<svg width="72" height="72" viewBox="0 0 72 72" fill="none" xmlns="http://www.w3.org/2000/svg">
<g clip-path="url(#clip0_207_2720)">
<path d="M49.3155 68.6294C67.5159 61.0905 76.1588 40.2247 68.6199 22.0243C61.0811 3.82384 40.2153 -4.81906 22.0148 2.7198C3.81442 10.2587 -4.82849 31.1245 2.71038 49.3249C10.2492 67.5253 31.115 76.1682 49.3155 68.6294Z" fill="#D6EEED"/>
<path d="M54.2401 16.1001H17.1001V51.0901H54.2401V16.1001Z" stroke="#21B59A" stroke-width="0.91" stroke-linecap="round" stroke-linejoin="round"/>
<path d="M55.28 51.0903H16.05V55.2403H55.28V51.0903Z" stroke="#21B59A" stroke-width="0.91" stroke-linecap="round" stroke-linejoin="round"/>
<path d="M34.8501 18.73H19.6101V49.54H34.8501V18.73Z" stroke="#21B59A" stroke-width="0.91" stroke-linecap="round" stroke-linejoin="round"/>
<path d="M51.8701 18.73H36.6301V49.54H51.8701V18.73Z" stroke="#21B59A" stroke-width="0.91" stroke-linecap="round" stroke-linejoin="round"/>
<path d="M25.56 21.3301L21.52 25.2701" stroke="#21B59A" stroke-width="0.91" stroke-linecap="round" stroke-linejoin="round"/>
<path d="M29.79 21.2803L21.52 29.6703" stroke="#21B59A" stroke-width="0.91" stroke-linecap="round" stroke-linejoin="round"/>
<path d="M43.4602 21.3999L39.4202 25.3399" stroke="#21B59A" stroke-width="0.91" stroke-linecap="round" stroke-linejoin="round"/>
<path d="M47.6802 21.3501L39.4202 29.7401" stroke="#21B59A" stroke-width="0.91" stroke-linecap="round" stroke-linejoin="round"/>
</g>
<defs>
<clipPath id="clip0_207_2720">
<rect width="71.34" height="71.34" fill="white"/>
</clipPath>
</defs>
</svg>
