<svg width="73" height="73" viewBox="0 0 73 73" fill="none" xmlns="http://www.w3.org/2000/svg">
<path d="M36.5002 72.2083C56.2216 72.2083 72.209 56.2209 72.209 36.4994C72.209 16.7779 56.2216 0.790527 36.5002 0.790527C16.7787 0.790527 0.79126 16.7779 0.79126 36.4994C0.79126 56.2209 16.7787 72.2083 36.5002 72.2083Z" fill="#D6EEED"/>
<path d="M35.5372 45.3292C35.6016 45.4472 35.7197 45.519 35.8474 45.5202H35.8486C35.9764 45.5202 36.0944 45.4484 36.1589 45.3316L44.7705 29.8933C44.8374 29.7741 44.8386 29.6269 44.7741 29.5052C44.7096 29.3848 44.5904 29.3105 44.4602 29.3105H27.3514C27.2224 29.3105 27.102 29.3848 27.0375 29.5052C26.973 29.6257 26.9742 29.7729 27.0387 29.8921L35.5372 45.3292ZM43.8251 30.0819L35.8511 44.3766L27.9841 30.0819H43.8251Z" fill="#21B59A" stroke="#21B59A" stroke-width="0.226556" stroke-miterlimit="10" stroke-linecap="round" stroke-linejoin="round"/>
<path d="M35.8487 45.5661C35.7051 45.5649 35.5713 45.4833 35.5007 45.3532L27.0035 29.9148C26.9305 29.781 26.9293 29.6155 27.0011 29.4817C27.0729 29.3479 27.2079 29.2651 27.3515 29.2651H44.4603C44.6051 29.2651 44.7401 29.3479 44.8119 29.4829C44.8837 29.6168 44.8825 29.7822 44.8083 29.9173L36.1967 45.3544C36.1237 45.4858 35.9911 45.5661 35.8487 45.5661ZM35.5737 45.3069C35.6309 45.4103 35.7356 45.4736 35.8487 45.4748C35.9606 45.4748 36.0653 45.4116 36.1225 45.3081L44.734 29.871C44.7924 29.7652 44.7936 29.6338 44.7365 29.5279C44.6805 29.4221 44.5746 29.3564 44.4591 29.3564H27.3515C27.2383 29.3564 27.1325 29.4221 27.0753 29.5279C27.0193 29.6326 27.0193 29.7628 27.0765 29.8674L35.5737 45.3069ZM35.8511 44.4662L35.8146 44.3993L27.9099 30.0353H43.9018L43.8629 30.1046L35.8511 44.4662ZM28.0584 30.1278L35.8511 44.2861L43.7485 30.1278H28.0584Z" fill="#21B59A" stroke="#21B59A" stroke-width="0.226556" stroke-miterlimit="10" stroke-linecap="round" stroke-linejoin="round"/>
<path d="M18.0903 47.6437C19.8252 51.4616 17.7277 54.889 17.7058 54.923C17.6389 55.0447 17.6352 55.1907 17.6973 55.3148C17.7946 55.4693 17.999 55.5156 18.1535 55.4194C18.1876 55.3975 21.615 53.3 25.4487 55.0423C27.062 55.7078 28.786 56.0667 30.5307 56.0996C33.9982 56.0996 35.9023 54.3877 36.5326 53.693C38.0948 55.1615 40.1777 55.9475 42.3202 55.8757C44.071 55.8428 45.8011 55.4827 47.4193 54.8148C51.2372 53.0786 54.6634 55.1773 54.6974 55.1992C54.7461 55.2272 54.8008 55.243 54.8568 55.2442C54.9846 55.2722 55.1172 55.2199 55.1914 55.1116C55.2656 55.0033 55.2656 54.861 55.1926 54.7515C55.1707 54.7174 53.0732 51.2913 54.8154 47.4563C57.3011 41.0774 54.7716 37.6646 53.6523 36.5489C54.7096 35.5439 57.4763 32.119 54.9079 25.5283C53.1729 21.7104 55.2705 18.2831 55.2924 18.249C55.3897 18.0945 55.3435 17.8901 55.1877 17.7927C55.0636 17.7307 54.9176 17.7343 54.796 17.8013C54.7619 17.8232 51.3358 19.9207 47.5008 18.1784C41.1887 15.7195 37.7821 18.1699 36.6299 19.3051C35.7381 18.3232 32.3083 15.3217 25.529 17.9631C21.7099 19.6993 18.2837 17.6017 18.2509 17.5798C18.1365 17.5068 17.9881 17.5117 17.8786 17.5932C17.7691 17.6735 17.7204 17.8134 17.7569 17.9448C17.763 17.9911 17.7788 18.0361 17.8031 18.0762C17.825 18.1103 19.9226 21.5376 18.1803 25.3714C15.545 32.1361 18.5477 35.5646 19.5296 36.4564C18.6779 37.1877 15.3528 40.6187 18.0903 47.6437ZM25.7066 54.4315C23.4813 53.4363 20.9385 53.4265 18.7047 54.406C19.6975 52.1722 19.6963 49.6208 18.6998 47.387C16.2774 41.1698 18.7582 38.0685 19.7401 37.1463C19.9335 41.3791 21.7245 45.3795 24.7515 48.3445C27.7786 51.3083 31.8167 53.0153 36.052 53.1212C36.058 53.1418 36.0678 53.1625 36.0775 53.182L36.0897 53.199C35.4266 53.9704 32.2839 56.9938 25.7066 54.4315ZM24.5836 47.2215C21.8814 44.2662 20.3837 40.407 20.3837 36.4029C20.3837 32.3989 21.8814 28.5384 24.5836 25.5831L25.6981 24.4747C28.6437 21.8077 32.4774 20.3319 36.451 20.3344H36.4522C40.4259 20.3319 44.2596 21.8077 47.2052 24.4747L48.2272 25.4845C50.9866 28.4508 52.5196 32.3502 52.5196 36.4017C52.5196 40.452 50.9854 44.3526 48.2272 47.3176L47.2064 48.3275C44.2608 50.9944 40.4271 52.4702 36.4535 52.4678H36.4522C32.4786 52.4702 28.6449 50.9944 25.6993 48.3275L24.5836 47.2215ZM54.2095 47.1972C53.2131 49.4225 53.2034 51.9653 54.1828 54.1991C51.9477 53.2051 49.3976 53.2075 47.1638 54.204C40.8542 56.6617 37.7541 54.0702 36.8842 53.1199C41.1413 53.0056 45.194 51.273 48.2187 48.2764C51.2433 45.2797 53.0123 41.2416 53.1656 36.9869C54.139 37.9298 56.5942 41.0761 54.2095 47.1972ZM47.2453 18.788C49.4828 19.7893 52.0402 19.7929 54.2813 18.8001C53.3019 21.0266 53.3092 23.5634 54.3008 25.785C56.7998 32.1981 54.0818 35.2945 53.1729 36.106C53.0926 31.8477 51.3917 27.7792 48.4182 24.7302C45.4434 21.6812 41.4199 19.8793 37.164 19.6932C38.2359 18.6359 41.3274 16.4824 47.2453 18.788ZM18.7911 25.6281C19.7924 23.3906 19.796 20.8344 18.8032 18.5933C21.0297 19.5727 23.5677 19.5666 25.7881 18.5738C32.1574 16.0931 35.255 18.7563 36.0909 19.6834C31.8338 19.7796 27.7737 21.4938 24.7357 24.4759C21.6977 27.4592 19.9104 31.4876 19.7364 35.7423C18.7108 34.6923 16.4831 31.5557 18.7911 25.6281Z" fill="#21B59A" stroke="#21B59A" stroke-width="0.226556" stroke-miterlimit="10" stroke-linecap="round" stroke-linejoin="round"/>
</svg>
