<svg width="71" height="71" viewBox="0 0 71 71" fill="none" xmlns="http://www.w3.org/2000/svg">
<g clip-path="url(#clip0_207_2803)">
<path d="M35.4951 71.0044C55.1012 71.0044 70.9951 55.1105 70.9951 35.5044C70.9951 15.8983 55.1012 0.00439453 35.4951 0.00439453C15.889 0.00439453 -0.00488281 15.8983 -0.00488281 35.5044C-0.00488281 55.1105 15.889 71.0044 35.4951 71.0044Z" fill="#D6EEED"/>
<path d="M45.2631 51.9812C45.3826 51.822 45.4921 51.6528 45.6115 51.4936C47.7114 48.6372 49.1048 45.4724 49.7318 41.9791C50.1398 39.6801 50.1896 37.3712 49.9607 35.0423C49.7019 32.3652 49.0649 29.7676 48.2289 27.2198C48.209 27.1601 48.1792 27.1004 48.0996 27.0506C48.1692 27.9264 48.2588 28.8022 48.3185 29.688C48.5176 32.3154 48.9654 34.9329 48.6868 37.5802C48.2488 41.79 46.955 45.6913 44.5167 49.1647C43.6111 50.4585 42.6158 51.6926 41.6206 53.0063C41.0035 52.3594 40.4661 51.7921 39.9386 51.2149C39.8889 51.1552 39.9386 50.9661 39.9984 50.8566C40.6751 49.4832 41.332 48.0899 41.5211 46.5572C41.6505 45.4525 41.6405 44.3179 41.5708 43.1933C41.4713 41.4616 41.0135 39.7996 40.287 38.2171C39.2519 35.9679 37.6994 34.1566 35.6989 32.7035C35.4501 32.5244 35.2113 32.3452 34.9326 32.1363C38.3463 27.0904 41.541 21.955 43.5712 16.103C44.1584 16.5011 44.7257 16.8694 45.2731 17.2575C48.219 19.3375 50.9061 21.7062 53.1155 24.5725C55.3449 27.4686 56.8576 30.6932 57.4548 34.3258C57.7434 36.1072 57.8529 37.8887 57.5045 39.6702C57.0467 41.9891 55.9719 43.9994 54.4492 45.7909C52.5682 48.0003 50.2095 49.5728 47.6716 50.9163C46.9053 51.3244 46.1091 51.6627 45.3229 52.0409C45.303 52.0111 45.2831 51.9812 45.2532 51.9514L45.2631 51.9812Z" stroke="#21B59A" stroke-width="0.905663" stroke-linecap="round" stroke-linejoin="round"/>
<path d="M37.9184 50.0809C37.3909 48.5084 36.7042 47.135 35.8284 45.8611C34.1265 43.3829 31.9669 41.4124 29.2996 40.029C27.2296 38.9541 25.1396 37.9191 23.0595 36.8641C22.9799 36.8243 22.8903 36.8044 22.7709 36.8343C23.9851 37.8295 25.1595 38.8646 26.4234 39.8001C28.2546 41.1636 30.066 42.5569 31.6384 44.2189C33.4299 46.1099 34.9526 48.1899 35.7289 50.7178C35.8881 51.2154 35.9478 51.7528 36.107 52.2505C36.2165 52.5988 36.0772 52.7282 35.7886 52.8775C32.8526 54.4101 29.7475 55.057 26.4533 54.8082C25.0699 54.6987 23.7363 54.43 22.4425 53.9225C20.2331 53.0367 18.9094 51.3249 17.9838 49.215C17.2374 47.5231 16.9189 45.7217 16.5606 43.9204C15.9635 41.0043 15.4261 38.0584 14.4806 35.222C14.182 34.3263 13.7939 33.4604 13.4456 32.5846C13.3958 32.4553 13.346 32.3358 13.2764 32.1766C14.2716 32.0074 15.2171 31.8084 16.1825 31.6889C18.0535 31.46 19.9245 31.1415 21.8055 31.0818C25.5576 30.9724 29.2101 31.5695 32.564 33.3709C35.2213 34.7941 37.3212 36.7845 38.4757 39.6408C39.0529 41.064 39.3017 42.5668 39.4411 44.0995C39.6401 46.2492 38.8837 48.1302 37.9184 50.0809V50.0809Z" stroke="#21B59A" stroke-width="0.905663" stroke-linecap="round" stroke-linejoin="round"/>
</g>
<defs>
<clipPath id="clip0_207_2803">
<rect width="71" height="71" fill="white"/>
</clipPath>
</defs>
</svg>
