<svg width="71" height="71" viewBox="0 0 71 71" fill="none" xmlns="http://www.w3.org/2000/svg">
<g clip-path="url(#clip0_207_2829)">
<path d="M35.4998 70.9985C55.1059 70.9985 70.9998 55.1046 70.9998 35.4985C70.9998 15.8924 55.1059 -0.00146484 35.4998 -0.00146484C15.8936 -0.00146484 -0.000244141 15.8924 -0.000244141 35.4985C-0.000244141 55.1046 15.8936 70.9985 35.4998 70.9985Z" fill="#EDE2F0"/>
<path d="M29.2002 51.0067C29.3495 51.0266 29.4291 51.0465 29.5087 51.0465C35.9678 51.0465 42.4169 51.0465 48.876 51.0465C49.2542 51.0465 49.6722 50.9569 50.0006 50.7877C50.8366 50.3598 51.0456 49.5835 51.0456 48.6977C51.0456 39.9198 51.0456 31.1418 51.0456 22.3638C51.0456 22.2046 51.0257 22.0354 51.0257 21.8762C51.0058 21.1397 50.6475 20.5824 50.0205 20.2738C49.6423 20.0847 49.1646 20.0051 48.7366 20.0051C42.387 19.9852 36.0474 19.9952 29.6978 19.9952C29.5585 19.9952 29.4191 20.0151 29.2002 20.025C29.857 20.861 29.8869 21.7667 29.8869 22.6823C29.8869 30.9726 29.8869 39.2629 29.8869 47.5532C29.8869 48.7375 30.0461 49.9517 29.2301 51.0266L29.2002 51.0067Z" stroke="#80609C" stroke-width="0.796187" stroke-linecap="round" stroke-linejoin="round"/>
<path d="M28.4935 35.511V33.7594C28.4935 29.8879 28.4935 26.0165 28.4935 22.1351C28.4935 20.8512 27.767 20.0351 26.4931 19.9953C24.9206 19.9555 23.3382 19.9754 21.7657 20.0252C21.4174 20.0351 21.0392 20.2342 20.7406 20.4332C20.0738 20.8811 19.9644 21.5877 19.9644 22.3441C19.9644 31.122 19.9644 39.9 19.9644 48.6879C19.9644 48.877 19.9743 49.0661 19.9942 49.2552C20.0738 50.2106 20.8004 50.9769 21.7657 51.0068C23.3581 51.0566 24.9405 51.0267 26.5329 51.0267C26.6921 51.0267 26.8613 51.0068 27.0106 50.967C27.9262 50.7381 28.4836 49.9518 28.4836 48.8869C28.4836 44.4283 28.4836 39.9696 28.4836 35.511H28.4935Z" stroke="#80609C" stroke-width="0.796187" stroke-linecap="round" stroke-linejoin="round"/>
<path d="M48.3186 22.6826V38.4272H32.584V22.6826H48.3186Z" stroke="#80609C" stroke-width="0.796187" stroke-linecap="round" stroke-linejoin="round"/>
<path d="M35.9778 44.8564C35.9778 42.3882 37.9782 40.3579 40.4364 40.338C42.8748 40.3181 44.9448 42.3982 44.9548 44.8564C44.9548 47.3743 42.9444 49.3847 40.4265 49.3748C37.9882 49.3748 35.9778 47.3246 35.9778 44.8564Z" stroke="#80609C" stroke-width="0.796187" stroke-linecap="round" stroke-linejoin="round"/>
</g>
<defs>
<clipPath id="clip0_207_2829">
<rect width="71" height="71" fill="white" transform="translate(0 0.000976562)"/>
</clipPath>
</defs>
</svg>
