<svg width="71" height="71" viewBox="0 0 71 71" fill="none" xmlns="http://www.w3.org/2000/svg">
<g clip-path="url(#clip0_207_2823)">
<path d="M35.5 71.001C55.1061 71.001 71 55.1071 71 35.501C71 15.8949 55.1061 0.000976562 35.5 0.000976562C15.8939 0.000976562 0 15.8949 0 35.501C0 55.1071 15.8939 71.001 35.5 71.001Z" fill="#EDE2F0"/>
<path d="M26.2542 29.7988C31.0313 30.6846 35.7885 30.7045 40.5656 29.7988V47.3747C35.7885 46.479 31.0313 46.479 26.2542 47.3747V29.7988V29.7988Z" stroke="#80609C" stroke-width="0.807561" stroke-linecap="round" stroke-linejoin="round"/>
<path d="M26.3435 27.4301C27.7767 26.0168 29.4487 25.1012 31.4093 24.723V23.2401C29.7572 23.5188 28.2046 23.9965 26.7715 24.8325C25.5075 25.569 24.4626 26.5344 23.736 27.8182C23.4972 28.2462 23.1488 28.4054 22.7906 28.3158C22.1835 28.1466 21.9546 27.5993 22.2631 27.032C22.91 25.8477 23.7957 24.8723 24.8905 24.0761C26.8113 22.6729 28.9809 21.9165 31.3297 21.6279C31.3496 21.6279 31.3695 21.6179 31.3993 21.598C31.459 21.1701 31.5387 20.7322 31.9467 20.4833C32.1955 20.3341 32.4941 20.2047 32.7827 20.1649C33.1908 20.1151 33.6088 20.145 34.0268 20.1549C34.6836 20.1549 35.2011 20.6227 35.2807 21.2696C35.3007 21.4288 35.3106 21.5482 35.5296 21.5482C37.1617 21.5482 38.7939 21.5482 40.4361 21.5482C40.4759 21.5482 40.5157 21.5383 40.5853 21.5184C40.5853 21.2596 40.5754 21.0009 40.5853 20.7521C40.5853 20.6724 40.6749 20.553 40.7446 20.5331C43.4417 19.8862 46.1288 19.2493 48.8259 18.6123C48.8259 18.6123 48.8458 18.6123 48.8756 18.6123V26.2557C46.1089 25.5988 43.3521 24.942 40.5654 24.2752V23.3098H35.3106C35.3106 23.7378 35.3007 24.1657 35.3206 24.5837C35.3206 24.6434 35.4798 24.733 35.5793 24.7529C36.6542 24.9918 37.6693 25.36 38.5949 25.9571C39.2418 26.3851 39.8588 26.8727 40.5057 27.3505C38.8636 28.3656 28.8416 28.3855 26.3435 27.4102V27.4301ZM33.4197 23.7179C33.967 23.7179 34.395 23.2899 34.395 22.7425C34.395 22.1951 33.967 21.7672 33.4197 21.7672C32.8822 21.7672 32.4344 22.1852 32.4344 22.7027C32.4344 23.3098 32.8424 23.7278 33.4296 23.7179H33.4197Z" stroke="#80609C" stroke-width="0.807561" stroke-linecap="round" stroke-linejoin="round"/>
<path d="M33.1809 49.0964C35.8282 49.1262 38.1272 49.3253 40.4063 49.793C40.6252 49.8329 40.665 49.9224 40.6352 50.1016C40.5157 50.7684 40.1177 51.2361 39.4807 51.4053C38.3163 51.7039 37.1419 51.9726 35.9576 52.1717C34.6339 52.4006 33.3003 52.4205 31.9667 52.3607C30.4042 52.2811 28.8715 52.0124 27.3787 51.5048C26.672 51.266 26.254 50.6688 26.3038 50.012C26.3038 49.9423 26.4033 49.8229 26.473 49.8129C27.9459 49.6039 29.4189 49.385 30.9018 49.2158C31.7676 49.1163 32.6434 49.1163 33.1809 49.0864V49.0964Z" stroke="#80609C" stroke-width="0.807561" stroke-linecap="round" stroke-linejoin="round"/>
</g>
<defs>
<clipPath id="clip0_207_2823">
<rect width="71" height="71" fill="white" transform="translate(0 0.000976562)"/>
</clipPath>
</defs>
</svg>
