<svg width="71" height="71" viewBox="0 0 71 71" fill="none" xmlns="http://www.w3.org/2000/svg">
<g clip-path="url(#clip0_207_2812)">
<path d="M35.5 71.001C55.1061 71.001 71 55.1071 71 35.501C71 15.8949 55.1061 0.000976562 35.5 0.000976562C15.8939 0.000976562 0 15.8949 0 35.501C0 55.1071 15.8939 71.001 35.5 71.001Z" fill="#EDE2F0"/>
<path d="M18.6108 52.4497V39.9197L25.1993 41.3529L23.7662 38.7951L18.6108 37.5212V18.562H39.0032V20.8013L34.7038 21.9856L33.2308 24.3841L39.0032 23.3093V26.3248L34.7038 27.0912L33.1214 29.4996L39.0032 28.7831V52.4497H18.6108Z" stroke="#80609C" stroke-width="0.796187" stroke-linecap="round" stroke-linejoin="round"/>
<path d="M39.0032 31.7983H52.3891V52.4494H39.0032" stroke="#80609C" stroke-width="0.796187" stroke-linecap="round" stroke-linejoin="round"/>
<path d="M32.9522 43.7812H24.2837V52.4497H32.9522V43.7812Z" stroke="#80609C" stroke-width="0.796187" stroke-linecap="round" stroke-linejoin="round"/>
<path d="M26.324 25.1504H22.8506V28.6238H26.324V25.1504Z" stroke="#80609C" stroke-width="0.796187" stroke-linecap="round" stroke-linejoin="round"/>
<path d="M26.324 31.7983H22.8506V35.2717H26.324V31.7983Z" stroke="#80609C" stroke-width="0.796187" stroke-linecap="round" stroke-linejoin="round"/>
<path d="M34.654 31.7983H31.1807V35.2717H34.654V31.7983Z" stroke="#80609C" stroke-width="0.796187" stroke-linecap="round" stroke-linejoin="round"/>
<path d="M47.4328 35.272H43.9595V38.7453H47.4328V35.272Z" stroke="#80609C" stroke-width="0.796187" stroke-linecap="round" stroke-linejoin="round"/>
<path d="M47.4328 42.1191H43.9595V45.5925H47.4328V42.1191Z" stroke="#80609C" stroke-width="0.796187" stroke-linecap="round" stroke-linejoin="round"/>
</g>
<defs>
<clipPath id="clip0_207_2812">
<rect width="71" height="71" fill="white" transform="translate(0 0.000976562)"/>
</clipPath>
</defs>
</svg>
