<svg width="40" height="41" viewBox="0 0 40 41" fill="none" xmlns="http://www.w3.org/2000/svg">
<path d="M38.9216 21.4623H1.07786C0.483591 21.4623 0 21.9504 0 22.5503V26.2285C0 26.8284 0.483591 27.3165 1.07786 27.3165H2.06549L3.0679 37.035C3.28594 39.1476 5.03716 40.7411 7.14176 40.7411H32.858C34.9629 40.7411 36.7144 39.1476 36.9319 37.035L37.9345 27.3165H38.9221C39.5167 27.3165 40 26.8284 40 26.2285V22.5503C39.9997 21.9501 39.5164 21.4623 38.9218 21.4623H38.9216ZM35.6447 36.8999C35.4962 38.3453 34.2974 39.4354 32.8575 39.4354H7.14122C5.70127 39.4354 4.50308 38.3453 4.35364 36.8999L3.36509 27.3167H36.6333L35.6447 36.8999ZM38.7063 26.011H1.29297V22.7679H38.7056L38.7063 26.011ZM4.18549 20.3763C4.54277 20.3763 4.83209 20.0842 4.83209 19.7236V2.48608C4.83209 2.12603 5.1223 1.83338 5.47868 1.83338H15.9894C16.3461 1.83338 16.636 2.12633 16.636 2.48608V5.90622H15.3425V3.79148C15.3425 3.43083 15.0531 3.13879 14.6959 3.13879H6.77204C6.41476 3.13879 6.12544 3.43083 6.12544 3.79148V19.7234C6.12544 20.084 6.41476 20.3761 6.77204 20.3761C7.12932 20.3761 7.41863 20.084 7.41863 19.7234L7.41893 4.44507H14.0494V5.90684H12.0819C11.4876 5.90684 11.0041 6.395 11.0041 6.99487V8.46302C11.0041 9.06289 11.4876 9.55105 12.0819 9.55105H19.898C20.4922 9.55105 20.9758 9.06289 20.9758 8.46302V6.99487C20.9758 6.395 20.4922 5.90684 19.898 5.90684H17.9299V2.4867C17.9299 1.40683 17.0596 0.52832 15.9899 0.52832H5.47917C4.40939 0.52832 3.53909 1.40691 3.53909 2.4867V19.7242C3.53879 20.0846 3.8284 20.3769 4.18569 20.3769L4.18549 20.3763ZM19.6821 7.21189V8.24497H12.2976V7.21189H19.6821ZM16.6364 10.6849C16.6364 11.0455 16.3471 11.3376 15.9898 11.3376C15.6325 11.3376 15.3432 11.0455 15.3432 10.6849V10.4672C15.3432 10.1066 15.6325 9.81452 15.9898 9.81452C16.3471 9.81452 16.6364 10.1066 16.6364 10.4672V10.6849ZM16.6364 14.5938C16.6364 14.9544 16.3471 15.2465 15.9898 15.2465C15.6325 15.2465 15.3432 14.9544 15.3432 14.5938V13.7249C15.3432 13.3643 15.6325 13.0722 15.9898 13.0722C16.3471 13.0722 16.6364 13.3643 16.6364 13.7249V14.5938ZM16.6364 17.6341V17.8518C16.6364 18.2125 16.3471 18.5045 15.9898 18.5045C15.6325 18.5045 15.3432 18.2125 15.3432 17.8518V17.6341C15.3432 17.2735 15.6325 16.9814 15.9898 16.9814C16.3471 16.9814 16.6364 17.2735 16.6364 17.6341ZM19.1548 11.3209C19.1124 11.3294 19.07 11.3337 19.0282 11.3337C18.726 11.3337 18.4559 11.1187 18.3946 10.8082L18.3525 10.5948C18.2827 10.2411 18.51 9.89743 18.8604 9.827C19.2111 9.75809 19.5512 9.98608 19.621 10.3397L19.6631 10.5532C19.7329 10.9068 19.5055 11.2505 19.1551 11.3209L19.1548 11.3209ZM18.9936 13.8518C18.9239 13.4982 19.1515 13.1545 19.5019 13.0844C19.8556 13.0155 20.193 13.2441 20.2622 13.5974L20.4333 14.4672C20.5031 14.8211 20.2754 15.1645 19.925 15.2346C19.8823 15.2431 19.8399 15.2474 19.7984 15.2474C19.4962 15.2474 19.2258 15.0324 19.1648 14.7216L18.9936 13.8518ZM21.0326 17.5112L21.0744 17.7249C21.1439 18.0789 20.9163 18.4222 20.5659 18.4921C20.5235 18.5006 20.4811 18.5048 20.4396 18.5048C20.137 18.5048 19.8667 18.2896 19.8059 17.9787L19.7641 17.765C19.6946 17.4113 19.9223 17.068 20.2724 16.9978H20.2727C20.6254 16.9277 20.9632 17.1578 21.0326 17.5112ZM12.9518 11.3337C12.91 11.3337 12.8679 11.3294 12.8254 11.3209H12.8251C12.4748 11.2508 12.2474 10.9074 12.3169 10.5538L12.3587 10.3403C12.4282 9.98637 12.7689 9.75626 13.1187 9.82699C13.4693 9.89681 13.6967 10.2405 13.6272 10.5941L13.5854 10.8076C13.5244 11.1184 13.2543 11.3337 12.9518 11.3337ZM12.1816 15.2474C12.1397 15.2474 12.0976 15.2431 12.0549 15.2346C11.7046 15.1645 11.4772 14.8209 11.5467 14.4672L11.7178 13.5975C11.7873 13.2444 12.1262 13.0155 12.4781 13.0844C12.8285 13.1545 13.0558 13.4982 12.9863 13.8519L12.8152 14.7219C12.7542 15.0322 12.4838 15.2474 12.1816 15.2474ZM12.2161 17.7656L12.174 17.9793C12.1127 18.2898 11.8426 18.5048 11.5404 18.5048C11.4986 18.5048 11.4562 18.5005 11.4135 18.492C11.0631 18.4216 10.8357 18.0779 10.9055 17.7243L10.9476 17.5105C11.0174 17.1572 11.3557 16.9274 11.7079 16.9978H11.7082C12.0585 17.0682 12.2859 17.4119 12.2161 17.7656ZM31.9349 14.7786C6.76379 14.7786 56.1594 14.7786 31.9349 14.7786V14.7786ZM31.9349 13.4728C52.0064 13.4728 11.0791 13.4728 31.9349 13.4728V13.4728Z" fill="#8D73B3"/>
</svg>
