<svg width="40" height="35" viewBox="0 0 40 35" fill="none" xmlns="http://www.w3.org/2000/svg">
<path d="M38.9494 21.7435H33.135V13.7665H38.9494C39.5299 13.7665 40 13.292 40 12.706C40 12.12 39.5299 11.6455 38.9494 11.6455H33.135V9.19151C33.135 8.81663 32.9874 8.45656 32.7246 8.19167C32.4621 7.9263 32.1054 7.77734 31.7341 7.77734H20.7776C20.0041 7.77734 19.3767 8.41068 19.3767 9.19149V12.1688H11.7342C10.9602 12.1688 10.3333 12.8016 10.3333 13.5829C10.3333 14.3637 10.9602 14.9971 11.7342 14.9971H20.7776C21.1495 14.9971 21.5057 14.8481 21.7686 14.5827C22.0315 14.3174 22.179 13.9578 22.179 13.5829V10.6056H30.3332V24.9036H22.179V21.9263C22.179 21.5514 22.0315 21.1919 21.7686 20.9265C21.5057 20.6611 21.1495 20.5122 20.7776 20.5122H11.7342C10.9602 20.5122 10.3333 21.1455 10.3333 21.9263C10.3333 22.7076 10.9602 23.3404 11.7342 23.3404H19.3767V26.3177C19.3767 26.6926 19.5242 27.0527 19.7871 27.3176C20.05 27.5829 20.4062 27.7319 20.7776 27.7319H31.7341C32.1055 27.7319 32.4622 27.5829 32.7246 27.3176C32.9875 27.0527 33.135 26.6926 33.135 26.3177V23.8637H38.9494C39.5299 23.8637 40 23.3892 40 22.8032C40 22.2172 39.5299 21.7427 38.9494 21.7427L38.9494 21.7435Z" fill="#8D73B3"/>
<path d="M8.23134 16.2618H8.18932H4.03532C5.10693 14.1403 6.13703 11.9764 7.14553 9.79182C7.79006 8.37768 8.43463 6.89244 9.0297 5.4216C9.62536 3.95076 10.2137 2.47285 10.7321 0.952637C9.75822 2.21828 8.85469 3.52648 7.9649 4.842C7.07507 6.15702 6.22772 7.49376 5.37996 8.83049C3.70783 11.503 2.10162 14.2233 0.560466 16.9904C0.451009 17.1897 0.390901 17.4132 0.385047 17.6411C0.384558 18.4002 0.978267 19.0246 1.73031 19.0552H1.77233H6.02452C5.05797 21.2404 4.06305 23.4111 3.19427 25.6668C2.61962 27.1308 2.03862 28.5874 1.50601 30.0721C0.973381 31.5573 0.448086 33.0421 0 34.5696C0.910834 33.2758 1.76545 31.946 2.58494 30.6098C3.40441 29.273 4.20341 27.9156 4.98762 26.5576C6.53816 23.8329 8.01376 21.0676 9.41482 18.263H9.4153C9.50766 18.076 9.5575 17.8708 9.56239 17.6622C9.56972 17.2981 9.43388 16.946 9.18418 16.6835C8.93448 16.4211 8.59145 16.2692 8.23132 16.2618L8.23134 16.2618Z" fill="#8D73B3"/>
</svg>
