<svg width="40" height="42" viewBox="0 0 40 42" fill="none" xmlns="http://www.w3.org/2000/svg">
<path d="M4.60349 5.46144L4.60333 5.46161C4.05689 6.0137 3.75023 6.76143 3.75023 7.54096V12.0015H0.250004L0.250071 7.54104C0.250071 5.82179 0.926462 4.17321 2.13026 2.95853L2.13032 2.95846C3.33359 1.74344 4.96567 1.06152 6.66673 1.06152H33.3333C35.0344 1.06152 36.6665 1.74339 37.8697 2.95846L37.8698 2.95852C39.0736 4.17321 39.75 5.82179 39.75 7.54104V34.4591C39.75 36.1783 39.0736 37.8269 37.8698 39.0416L37.8697 39.0417C36.6665 40.2567 35.0344 40.9386 33.3333 40.9386H28.9168V37.4007H33.3333C34.1078 37.4007 34.8496 37.0902 35.3966 36.5385L35.3967 36.5384C35.9432 35.9863 36.2498 35.2385 36.2498 34.459V7.54096C36.2498 6.7614 35.9432 6.01371 35.3967 5.46161L35.3966 5.46145C34.8496 4.90977 34.1077 4.59933 33.3333 4.59933H6.66673C5.89232 4.59933 5.15052 4.90977 4.60349 5.46144Z" fill="#8D73B3" stroke="#EEEDDE" stroke-width="0.5"/>
<path d="M0 18.3086H4.00023V22.3465H0V18.3086Z" fill="#8D73B3"/>
<path d="M0 27.729H4.00023V31.767H0V27.729Z" fill="#8D73B3"/>
<path d="M9.33325 18.3086H13.3335V22.3465H9.33325V18.3086Z" fill="#8D73B3"/>
<path d="M9.33325 27.729H13.3335V31.767H9.33325V27.729Z" fill="#8D73B3"/>
<path d="M18.6665 18.3086H22.6667V22.3465H18.6665V18.3086Z" fill="#8D73B3"/>
<path d="M18.6665 27.729H22.6667V31.767H18.6665V27.729Z" fill="#8D73B3"/>
<path d="M0 37.1509H4.00023V41.1888H0V37.1509Z" fill="#8D73B3"/>
<path d="M9.33325 37.1509H13.3335V41.1888H9.33325V37.1509Z" fill="#8D73B3"/>
<path d="M18.6665 37.1509H22.6667V41.1888H18.6665V37.1509Z" fill="#8D73B3"/>
</svg>
