<svg width="40" height="39" viewBox="0 0 40 39" fill="none" xmlns="http://www.w3.org/2000/svg">
<path d="M39.2938 5.86481C38.9063 5.86481 38.5939 6.1968 38.5939 6.60854V19.7025H20.9282V7.35221H26.2772C26.6647 7.35221 26.9771 7.02022 26.9771 6.60848C26.9771 6.19674 26.6647 5.86475 26.2772 5.86475H0.699943C0.312449 5.86475 0 6.19674 0 6.60848V37.7365C0 38.1482 0.312449 38.4802 0.699943 38.4802H39.3001C39.6875 38.4802 40 38.1482 40 37.7365L39.9997 6.60848C39.9936 6.19674 39.6811 5.86475 39.2936 5.86475L39.2938 5.86481ZM19.5342 7.3523V19.7026H1.3936V7.3523H19.5342ZM1.3936 21.1831H19.5285V36.9998H1.3936V21.1831ZM20.9283 36.9998V21.1831H38.6004V36.9998H20.9283Z" fill="#8D73B3"/>
<path d="M25.8089 10.3134C23.8843 10.3134 22.322 11.9734 22.322 14.0184C22.322 16.0635 23.8843 17.7234 25.8089 17.7234H32.7826C34.7072 17.7234 36.2695 16.0635 36.2695 14.0184C36.2695 11.9734 34.7072 10.3134 32.7826 10.3134H30.6892V4.94844C30.6892 3.50754 31.814 2.33899 33.2014 2.33899C34.5823 2.33899 35.7135 3.50746 35.7135 4.94844C35.7135 5.36018 36.026 5.69217 36.4135 5.69217C36.801 5.69217 37.1134 5.36018 37.1134 4.94844C37.1134 2.69087 35.3637 0.858398 33.2078 0.858398C31.0519 0.858398 29.3021 2.69087 29.3021 4.94844V10.3134H25.8089ZM34.876 14.0187C34.876 15.2472 33.9386 16.2431 32.7826 16.2431H25.8089C24.6528 16.2431 23.7155 15.2471 23.7155 14.0187C23.7155 12.7904 24.6529 11.7944 25.8089 11.7944H32.7826C33.9387 11.7944 34.876 12.7969 34.876 14.0187Z" fill="#8D73B3"/>
<path d="M4.4182 11.7951H7.67382C8.06131 11.7951 8.37376 11.4631 8.37376 11.0513C8.37376 10.6396 8.06131 10.3076 7.67382 10.3076H4.4182C4.03071 10.3076 3.71826 10.6396 3.71826 11.0513C3.71826 11.4631 4.03071 11.7951 4.4182 11.7951Z" fill="#8D73B3"/>
<path d="M4.4182 17.2326H7.67382C8.06131 17.2326 8.37376 16.9006 8.37376 16.4888C8.37376 16.0771 8.06131 15.7451 7.67382 15.7451L4.4182 15.7454C4.03071 15.7454 3.71826 16.0774 3.71826 16.4891C3.71826 16.9006 4.03071 17.2326 4.4182 17.2326Z" fill="#8D73B3"/>
<path d="M12.7917 11.7951H16.0474C16.4348 11.7951 16.7473 11.4631 16.7473 11.0513C16.7473 10.6396 16.4348 10.3076 16.0474 10.3076H12.7917C12.4042 10.3076 12.0918 10.6396 12.0918 11.0513C12.0918 11.4631 12.4042 11.7951 12.7917 11.7951Z" fill="#8D73B3"/>
<path d="M12.7917 17.2326H16.0474C16.4348 17.2326 16.7473 16.9006 16.7473 16.4888C16.7473 16.0771 16.4348 15.7451 16.0474 15.7451H12.7917C12.4042 15.7451 12.0918 16.0771 12.0918 16.4888C12.0918 16.9006 12.4042 17.2326 12.7917 17.2326Z" fill="#8D73B3"/>
</svg>
