<svg width="40" height="40" viewBox="0 0 40 40" fill="none" xmlns="http://www.w3.org/2000/svg">
<path d="M12.949 21.4042C11.0007 21.4042 8.98547 20.0791 8.98547 17.8624C8.98547 16.9036 9.19422 16.0557 9.41489 15.1574C9.70116 13.9958 10.0242 12.6786 10.0075 10.7138C9.97959 7.56959 7.24773 6.70271 3.39283 5.81993C3.23965 5.7854 3.08772 5.75054 2.93799 5.71601C2.51957 5.61968 2.25872 5.19826 2.35415 4.77621C2.44957 4.35384 2.86674 4.09053 3.28517 4.18685C3.43396 4.22171 3.58494 4.25624 3.73561 4.28983C5.4068 4.67196 7.30211 5.10544 8.7925 5.98376C10.6112 7.0557 11.5422 8.64159 11.561 10.6983C11.5799 12.8611 11.2161 14.3431 10.9229 15.5326C10.7176 16.3694 10.539 17.0931 10.539 17.8593C10.539 19.0947 11.7641 19.833 12.9491 19.833C13.5172 19.833 14.0245 19.6647 14.3773 19.359C14.7703 19.0187 14.9687 18.5146 14.9687 17.8593C14.9687 17.2991 14.7712 16.8502 14.4972 16.2272C14.1575 15.4566 13.736 14.4965 13.5863 13.0057C13.2488 9.63178 14.5173 8.40304 15.3039 7.97175C16.2327 7.46225 17.3945 7.58551 18.2633 8.28671C19.3208 9.14004 19.7125 10.6121 19.2854 12.1264C18.9404 13.3529 19.1055 14.2972 19.738 14.7183C20.1897 15.0186 20.7977 14.986 21.2174 14.641C21.5024 14.4058 22.0929 13.6701 21.3991 11.9147C21.3803 11.8675 21.3671 11.8194 21.357 11.7703C21.2249 11.0646 21.3426 10.4943 21.7055 10.0767C22.3923 9.28483 23.6196 9.35074 25.1753 9.4347C27.0894 9.53768 29.471 9.66791 30.8747 8.06142C30.8936 8.03892 30.9146 8.01896 30.9356 7.99868C31.6315 7.36243 31.6315 6.18186 31.6303 5.04048V4.97648C31.6303 4.54301 31.9777 4.19257 32.4072 4.19257C32.8366 4.19257 33.1837 4.54301 33.1837 4.97648V5.04048C33.1837 6.37223 33.1837 8.02683 32.011 9.13016C30.1091 11.2718 27.2106 11.115 25.0912 10.9996C24.3331 10.9581 23.0638 10.8897 22.8741 11.1083C22.8641 11.126 22.844 11.2192 22.8729 11.4119C23.5798 13.2667 23.3302 14.9233 22.1983 15.8554C21.2582 16.6282 19.8956 16.6986 18.8836 16.0265C17.6631 15.2157 17.2547 13.5972 17.7897 11.6964C18.0458 10.7866 17.8594 9.96884 17.2912 9.50973C16.9064 9.19826 16.4292 9.13679 16.045 9.34718C15.2951 9.75941 14.9533 11.0677 15.131 12.8466C15.255 14.0877 15.5902 14.8504 15.9154 15.5887C16.2262 16.2965 16.52 16.9642 16.52 17.8571C16.52 19.2683 15.9031 20.0982 15.3862 20.5465C14.7512 21.0963 13.8858 21.3989 12.9469 21.3989L12.949 21.4042Z" fill="#8D73B3"/>
<path d="M26.3028 30.4959H13.9415C12.9938 30.4959 12.2225 29.7174 12.2225 28.7608V28.1784C8.38861 27.3888 5.21296 25.1045 3.03046 21.5618C1.13419 18.4835 0.057883 14.5533 0.000106069 10.496C-0.0033468 10.2866 0.0776386 10.0838 0.22297 9.93487C0.368304 9.78595 0.568256 9.70072 0.776679 9.70072H3.33244C3.76186 9.70072 4.10902 10.0515 4.10902 10.4849C4.10902 10.9184 3.76186 11.2692 3.33244 11.2692H1.57905C1.75106 14.7593 2.72414 18.094 4.34977 20.7337C6.24194 23.8041 8.95617 25.8149 12.2229 26.574V26.08C12.2229 25.1238 12.9942 24.344 13.9419 24.344H26.3032C27.2509 24.344 28.0221 25.1225 28.0221 26.08V26.5148C31.1803 25.7141 33.8069 23.7268 35.6511 20.7337C37.2736 18.1003 38.2454 14.7758 38.4209 11.2943C37.9027 11.3009 37.3057 11.2978 36.8185 11.2952C36.6233 11.2952 36.4491 11.293 36.3138 11.293C35.8844 11.293 35.5369 10.9426 35.5369 10.5091C35.5369 10.0756 35.8844 9.72488 36.3138 9.72488C36.4525 9.72488 36.6277 9.72488 36.8264 9.7271C37.5597 9.73058 38.6683 9.73629 39.1712 9.70143C39.3875 9.68464 39.6006 9.76417 39.7582 9.91436C39.9158 10.0655 40.0034 10.2749 39.9999 10.4945C39.9421 14.5528 38.8658 18.4822 36.9695 21.5603C34.8335 25.0283 31.7463 27.2897 28.021 28.1243V28.7593C28.021 29.7159 27.2497 30.4944 26.302 30.4944L26.3028 30.4959ZM13.9415 25.9122C13.8517 25.9122 13.776 25.9886 13.776 26.0802V28.7608C13.776 28.8514 13.8517 28.9278 13.9415 28.9278H26.3028C26.3929 28.9278 26.4682 28.8514 26.4682 28.7608V26.0802C26.4682 25.9895 26.3929 25.9122 26.3028 25.9122H13.9415Z" fill="#8D73B3"/>
<path d="M33.85 39.5364H6.15002C4.6565 39.5364 3.44238 38.2808 3.44238 36.7361V4.95508H4.99585V36.7361C4.99585 37.4157 5.51409 37.9681 6.15002 37.9681H33.85C34.4869 37.9681 35.0042 37.4158 35.0042 36.7361V4.95508H36.5576V36.7361C36.5576 38.2808 35.3425 39.5364 33.85 39.5364Z" fill="#8D73B3"/>
<path d="M37.254 5.73744H32.5669C32.1371 5.73744 31.79 5.387 31.79 4.95353C31.79 4.52007 32.1371 4.16931 32.5669 4.16931H37.254C37.7066 4.16931 38.0751 3.79764 38.0751 3.34039C38.0751 2.88349 37.7066 2.51147 37.254 2.51147H2.74451C2.29188 2.51147 1.92334 2.88346 1.92334 3.34039C1.92334 3.79762 2.29185 4.16931 2.74451 4.16931C3.17393 4.16931 3.52141 4.52007 3.52141 4.95353C3.52141 5.387 3.17393 5.73744 2.74451 5.73744C1.43525 5.73744 0.369873 4.66234 0.369873 3.3404C0.369873 2.01879 1.43525 0.943359 2.74451 0.943359H37.254C38.5632 0.943359 39.6286 2.01879 39.6286 3.3404C39.6286 4.66234 38.5632 5.73744 37.254 5.73744Z" fill="#8D73B3"/>
</svg>
