<svg width="40" height="39" viewBox="0 0 40 39" fill="none" xmlns="http://www.w3.org/2000/svg">
<path d="M39.6989 17.5895L33.3963 12.1333V4.76712C33.3963 4.31535 33.0335 3.94884 32.5856 3.94884H28.3695C27.9216 3.94884 27.5585 4.31535 27.5585 4.76712V7.06977L20.5319 0.991584C20.2239 0.713743 19.7586 0.713743 19.4506 0.991584L0.284072 17.5893C0.0239146 17.8135 -0.0684583 18.1785 0.0525715 18.5013C0.173978 18.824 0.482773 19.0356 0.824753 19.0299H6.58668V34.3513C6.58668 34.8035 6.94939 35.1696 7.39731 35.1696H10.0999C10.5479 35.1696 10.911 34.8035 10.911 34.3513C10.911 33.8992 10.5479 33.533 10.0999 33.533H8.2083V18.2116C8.2083 17.7595 7.84521 17.3933 7.39728 17.3933H3.00289L19.9919 2.70528L36.9808 17.3933H32.5864C32.1385 17.3933 31.7754 17.7595 31.7754 18.2116V33.533H29.8623C29.4144 33.533 29.0513 33.8992 29.0513 34.3513C29.0513 34.8035 29.4144 35.1696 29.8623 35.1696H32.565C32.7837 35.1757 32.9956 35.0919 33.152 34.9378C33.3089 34.7837 33.3971 34.572 33.3971 34.3513V19.0299H39.1752C39.5172 19.0356 39.826 18.824 39.9474 18.5013C40.0685 18.1785 39.9761 17.8135 39.7159 17.5893L39.6989 17.5895ZM29.1799 5.58576H31.7743V10.7311L29.1799 8.48294V5.58576ZM26.6179 25.8343H25.7691V22.1784C25.7691 20.0938 24.6674 18.1672 22.8788 17.1248C21.0901 16.0823 18.8867 16.0823 17.0979 17.1248C15.3093 18.1672 14.2072 20.0939 14.2072 22.1784V25.8287H13.3641C12.9162 25.8287 12.5534 26.1952 12.5534 26.6474V37.3524C12.5534 37.8041 12.9162 38.1706 13.3641 38.1706H26.6176C27.0655 38.1706 27.4283 37.8041 27.4283 37.3524V26.6522C27.4283 26.2001 27.0655 25.8339 26.6176 25.8339L26.6179 25.8343ZM15.8073 22.184C15.8073 20.684 16.6002 19.2979 17.8871 18.5478C19.1739 17.798 20.7594 17.798 22.0462 18.5478C23.3331 19.298 24.126 20.6841 24.126 22.184V25.8343H15.8345L15.8073 22.184ZM25.8071 36.534H14.1741V27.4711H25.8071V36.534ZM20.8015 30.3302V33.6749C20.8015 34.127 20.4388 34.4936 19.9909 34.4936C19.5429 34.4936 19.1802 34.127 19.1802 33.6749V30.3302C19.1802 29.8784 19.5429 29.5119 19.9909 29.5119C20.4388 29.5119 20.8015 29.8784 20.8015 30.3302Z" fill="#8D73B3"/>
</svg>
