<svg width="42" height="37" viewBox="0 0 42 37" fill="none" xmlns="http://www.w3.org/2000/svg">
<path d="M1.70079 0.83885C1.29844 0.890379 0.99754 1.23988 1.00071 1.65211V18.7165V18.7293C0.999762 18.7549 0.999762 18.7802 1.00071 18.8055V35.8068C1.00103 36.0897 1.14561 36.3519 1.38277 36.4994C1.61994 36.6473 1.91544 36.6591 2.16338 36.5311L8.16318 33.456L13.8631 30.5208H28.1503L33.8375 33.456L39.8373 36.5311C40.0852 36.6591 40.3804 36.6473 40.6175 36.4994C40.8547 36.3515 40.9993 36.0894 40.9993 35.8068V18.7793C41.0002 18.7582 41.0002 18.737 40.9993 18.7159C41.0002 18.6948 41.0002 18.6733 40.9993 18.6522V1.65089C41.0012 1.41661 40.9032 1.19257 40.7311 1.03671C40.5586 0.881166 40.3284 0.808506 40.0995 0.837634C40.0085 0.847876 39.9197 0.87348 39.8369 0.914127L33.8371 4.00173L28.1123 6.93694H13.9005L8.16319 4.00173L2.16339 0.914127C2.02008 0.842114 1.85933 0.815552 1.70111 0.837634L1.70079 0.83885ZM2.60062 2.97364L7.43809 5.45149L12.9502 8.27248V17.9038H2.60046L2.60062 2.97364ZM39.3991 2.97364V17.9037H28.9998V8.29772L34.562 5.45149L39.3991 2.97364ZM14.6005 8.56433H27.3497V28.8946H14.6005V18.7799C14.6012 18.7629 14.6012 18.7459 14.6005 18.729C14.6018 18.7037 14.6018 18.6781 14.6005 18.6528V8.56433ZM2.60062 19.5427H12.9504V29.174L7.43825 31.995L2.60078 34.4729L2.60062 19.5427ZM28.999 19.5427H39.3983V34.4727L34.5608 31.9949L28.9986 29.1486L28.999 19.5427Z" fill="#8D73B3" stroke="#8D73B3" stroke-width="0.5"/>
<path d="M5.09131 11.8439L7.8187 9.09082L5.09131 11.8439Z" fill="#8D73B3"/>
<path d="M5.09131 11.8439L7.8187 9.09082" stroke="#8D73B3" stroke-width="0.5" stroke-linecap="square" stroke-linejoin="round"/>
<path d="M5.09131 15.5153L7.8187 12.7622L5.09131 15.5153Z" fill="#8D73B3"/>
<path d="M5.09131 15.5153L7.8187 12.7622" stroke="#8D73B3" stroke-width="0.5" stroke-linecap="square" stroke-linejoin="round"/>
</svg>
