<svg width="180" height="225" viewBox="0 0 180 225" fill="none" xmlns="http://www.w3.org/2000/svg">
<g clip-path="url(#clip0_902_49)">
<path d="M33.2088 159.242V157.13H43.7703V172.396C43.7703 175.07 43.503 177.129 42.9682 178.599C42.4334 180.07 41.3372 181.3 39.6794 182.236C38.3693 182.984 36.8987 183.385 35.4014 183.546C33.1554 183.786 30.5618 183.733 28.5297 182.637C26.5511 181.54 26.0431 178.706 27.8078 177.156C28.9575 176.166 30.8024 175.979 31.9789 177.022C32.9415 177.877 32.9949 179.161 32.7008 180.311C32.5671 180.792 32.7276 181.22 33.2088 181.407C34.4121 181.915 35.8559 181.273 36.3907 180.123C36.8185 179.161 37.0591 177.182 37.0591 174.161V162.424C37.0591 161.247 36.8719 160.418 36.4709 159.937C36.0698 159.483 35.2409 159.242 33.9575 159.242H33.2891H33.2088Z" fill="#754D29"/>
<path d="M78.5029 183.039L68.8772 162.853V183.039H63.1553V180.927C63.9574 180.927 64.6793 180.713 65.2676 180.285C65.8558 179.857 66.2301 179.376 66.3638 178.815C66.4975 178.253 66.551 177.371 66.551 176.141V162.505C66.551 161.195 66.3371 160.34 65.8825 159.885C65.428 159.457 64.5189 159.217 63.1553 159.217V157.104H73.5296L81.5243 174.136L89.5991 157.104H100V159.217H99.4922C98.182 159.217 97.3531 159.457 96.9521 159.939C96.551 160.42 96.3638 161.222 96.3638 162.398V177.718C96.3638 178.895 96.551 179.724 96.9521 180.205C97.3531 180.659 98.182 180.9 99.4654 180.9H100.054V183.012H89.5724V162.479L79.9735 183.012H78.4761L78.5029 183.039Z" fill="#754D29"/>
<path d="M131.712 183.039L122.086 162.853V183.039H116.364V180.927C117.166 180.927 117.888 180.713 118.477 180.285C119.065 179.857 119.439 179.376 119.573 178.815C119.707 178.253 119.76 177.371 119.76 176.141V162.505C119.76 161.195 119.546 160.34 119.092 159.885C118.637 159.457 117.728 159.217 116.364 159.217V157.104H126.739L134.733 174.136L142.808 157.104H153.209V159.217H152.701C151.391 159.217 150.562 159.457 150.161 159.939C149.76 160.42 149.573 161.222 149.573 162.398V177.718C149.573 178.895 149.76 179.724 150.161 180.205C150.562 180.659 151.391 180.9 152.674 180.9H153.263V183.012H142.781V162.479L133.182 183.012H131.685L131.712 183.039Z" fill="#754D29"/>
<path d="M10.1604 211.353V223.786H0V221.674C1.36364 221.674 2.27273 221.46 2.72727 221.032C3.18182 220.604 3.39572 219.748 3.39572 218.492V203.172C3.39572 201.942 3.18182 201.113 2.75401 200.659C2.3262 200.204 1.41711 199.99 0 199.99V197.878H10.1604V208.974H20.8021V197.878H30.9893V199.99C29.6257 199.99 28.6898 200.204 28.2353 200.632C27.7808 201.06 27.5668 201.888 27.5668 203.172V218.492C27.5668 219.722 27.7808 220.577 28.2086 221.005C28.6364 221.433 29.5722 221.674 30.9893 221.674V223.786H20.8021V211.353H10.1604Z" fill="#754D29"/>
<path d="M41.2299 210.738C41.2299 208.412 41.8716 206.139 43.1817 203.92C44.4919 201.701 46.2299 200.07 48.4759 199.001C50.6951 197.931 53.0748 197.396 55.6149 197.396C60.1871 197.396 63.7432 198.707 66.3368 201.353C68.9304 203.974 70.2138 207.209 70.2138 211.032C70.2138 214.855 68.9304 217.797 66.3368 220.39C63.7432 223.01 60.2406 224.32 55.7753 224.32C52.7272 224.32 50.0267 223.679 47.7005 222.395C45.3742 221.112 43.6898 219.374 42.7005 217.208C41.7111 215.043 41.2031 212.877 41.2031 210.765L41.2299 210.738ZM49.2245 210.524C49.2245 214.508 49.7593 217.395 50.8288 219.16C51.8983 220.925 53.5026 221.807 55.6149 221.807C57.7272 221.807 59.4919 221.005 60.5882 219.401C61.7111 217.796 62.2726 214.962 62.2726 210.925C62.2726 207.236 61.7379 204.482 60.6951 202.664C59.6523 200.846 57.9678 199.936 55.6684 199.936C53.5026 199.936 51.8716 200.792 50.8288 202.476C49.7593 204.161 49.2245 206.861 49.2245 210.551V210.524Z" fill="#754D29"/>
<path d="M136.978 211.38V217.77C136.978 219 137.059 219.802 137.192 220.176C137.326 220.551 137.7 220.872 138.315 221.112C138.93 221.353 139.866 221.486 141.096 221.486C142.781 221.486 144.037 221.273 144.839 220.845C145.642 220.417 146.337 219.695 146.978 218.626C147.62 217.556 148.075 216.433 148.342 215.23H150.481L150.321 223.732H130.187V203.065C130.187 201.889 130 201.06 129.599 200.578C129.198 200.124 128.369 199.883 127.112 199.883H126.631V197.798H148.716L149.091 204.509H146.952C146.577 203.332 146.15 202.397 145.668 201.701C145.187 201.006 144.732 200.552 144.251 200.365C143.77 200.177 142.968 200.07 141.845 200.07H137.005V209H144.492V211.3H137.005L136.978 211.38Z" fill="#754D29"/>
<path d="M161.444 223.331V214.454H163.744C164.385 217.101 165.348 219 166.605 220.123C167.888 221.246 169.252 221.834 170.722 221.834C171.818 221.834 172.701 221.513 173.343 220.844C173.984 220.203 174.305 219.427 174.305 218.545C174.305 217.93 174.091 217.289 173.69 216.674C173.289 216.059 172.326 215.363 170.776 214.588C167.834 213.118 165.856 212.048 164.813 211.38C163.77 210.711 162.941 209.829 162.326 208.76C161.711 207.69 161.391 206.46 161.391 205.07C161.391 202.851 162.193 201.006 163.797 199.562C165.401 198.118 167.246 197.396 169.359 197.396C171.471 197.396 173.423 198.145 174.974 199.616C175.214 199.241 175.428 198.653 175.615 197.851H177.808V205.498H175.669C175.294 203.813 174.572 202.396 173.476 201.3C172.407 200.204 171.203 199.669 169.867 199.669C168.851 199.669 168.048 199.936 167.46 200.498C166.872 201.059 166.578 201.755 166.578 202.61C166.578 203.252 166.765 203.867 167.139 204.428C167.514 204.99 168.048 205.444 168.69 205.792C169.332 206.166 170.722 206.834 172.808 207.797C174.706 208.679 176.096 209.481 177.006 210.177C177.915 210.872 178.637 211.754 179.145 212.823C179.679 213.893 179.947 215.043 179.947 216.273C179.947 218.572 179.091 220.47 177.407 221.994C175.722 223.518 173.69 224.267 171.337 224.267C170 224.267 168.69 223.999 167.407 223.438C166.123 222.876 165.107 222.128 164.332 221.192C164.038 221.78 163.824 222.475 163.69 223.304H161.391L161.444 223.331Z" fill="#754D29"/>
<path d="M95.7226 223.785L86.0969 203.599V223.785H80.375V221.673C81.1771 221.673 81.8991 221.459 82.4873 221.031C83.0755 220.603 83.4499 220.122 83.5836 219.561C83.7172 218.999 83.7707 218.117 83.7707 216.887V203.251C83.7707 201.941 83.5568 201.086 83.1023 200.631C82.6477 200.203 81.7386 199.963 80.375 199.963V197.851H90.7493L98.744 214.882L106.819 197.851H117.22V199.963H116.712C115.402 199.963 114.573 200.203 114.172 200.685C113.771 201.166 113.584 201.968 113.584 203.144V218.464C113.584 219.641 113.771 220.47 114.172 220.951C114.573 221.406 115.402 221.646 116.685 221.646H117.273V223.758H106.792V203.225L97.1932 223.758H95.6959L95.7226 223.785Z" fill="#754D29"/>
<path d="M19.5459 67.4831L89.9039 0L160.476 67.6703L155.769 71.7877L89.9039 8.63592L24.0385 71.7877L19.5459 67.4831Z" fill="#754D29"/>
<path d="M43.4535 141.623L43.4268 52.2959L90.038 96.9995L136.596 52.5633V141.623" fill="#754D29"/>
<path d="M100.012 39.3838V59.1154C100.012 62.9922 99.6109 65.7996 98.8087 67.5375C98.0064 69.3021 96.5624 70.7459 94.5032 71.949C92.4441 73.1254 89.9838 73.7136 87.069 73.7136C83.539 73.7136 80.6776 72.8313 78.5115 71.04C76.3187 69.2486 75.249 67.2968 75.249 65.1312C75.249 63.7409 75.7036 62.6179 76.5861 61.7624C77.4686 60.9068 78.565 60.479 79.8486 60.479C81.1323 60.479 82.1752 60.8533 83.0309 61.6287C83.8867 62.404 84.3145 63.3398 84.3145 64.4895C84.3145 65.051 84.2343 65.5322 84.1006 65.9333C84.0204 66.1204 83.6995 66.6284 83.1379 67.4305C82.5763 68.2326 82.2822 68.7941 82.2822 69.1417C82.2822 69.6497 82.5496 70.1042 83.0844 70.4785C83.8599 71.04 84.9029 71.3073 86.1597 71.3073C87.0422 71.3073 87.791 71.0934 88.3526 70.6656C88.9409 70.2379 89.342 69.5427 89.5827 68.6337C89.8234 67.7246 89.9304 65.1579 89.9304 60.9603V39.3838C89.9304 37.3251 89.8234 36.0418 89.5827 35.507C89.342 34.999 88.8874 34.5445 88.1921 34.1435C87.4968 33.7692 86.5609 33.5553 85.3842 33.5553H79.394V30.8281H100.039" fill="#754D29"/>
</g>
<defs>
<clipPath id="clip0_902_49">
<rect width="180" height="224.32" fill="white"/>
</clipPath>
</defs>
</svg>
