<?xml version="1.0" encoding="UTF-8"?>
<svg id="Layer_1" data-name="Layer 1" xmlns="http://www.w3.org/2000/svg" viewBox="0 0 304.08 377.86">
  <defs>
    <style>
      .cls-1 {
        fill: #1c2c58;
      }
    </style>
  </defs>
  <g>
    <g>
      <path class="cls-1" d="M56.08,268.26v-3.57h17.82v25.71c0,4.49-.46,7.97-1.37,10.46-.92,2.49-2.76,4.53-5.54,6.13-2.21,1.27-4.71,1.91-7.22,2.19-3.79,.42-8.19,.34-11.63-1.55-3.35-1.84-4.2-6.61-1.22-9.22,1.92-1.68,5.05-2,7.03-.24,1.63,1.44,1.71,3.59,1.2,5.55-.2,.79,.06,1.52,.85,1.85,2.03,.85,4.45-.21,5.36-2.17,.74-1.61,1.11-4.96,1.11-10.05v-19.75c0-1.99-.34-3.39-1.01-4.17-.68-.78-2.1-1.18-4.25-1.18h-1.13Z"/>
      <path class="cls-1" d="M132.62,308.34l-16.27-34.03v34.03h-9.65v-3.58c1.37,0,2.57-.36,3.58-1.07,1.01-.72,1.63-1.55,1.86-2.48,.23-.94,.34-2.43,.34-4.49v-22.95c0-2.19-.38-3.66-1.15-4.39-.76-.74-2.31-1.11-4.63-1.11v-3.57h17.53l13.5,28.68,13.62-28.68h17.59v3.57h-.87c-2.19,0-3.62,.4-4.27,1.21-.66,.81-.99,2.18-.99,4.14v25.82c0,1.99,.34,3.39,1.01,4.17,.68,.78,2.09,1.17,4.25,1.17h1v3.58h-17.72v-34.57l-16.21,34.57h-2.52Z"/>
      <path class="cls-1" d="M222.53,308.34l-16.27-34.03v34.03h-9.65v-3.58c1.37,0,2.57-.36,3.58-1.07,1.01-.72,1.63-1.55,1.86-2.48,.23-.94,.34-2.43,.34-4.49v-22.95c0-2.19-.38-3.66-1.15-4.39-.76-.74-2.31-1.11-4.63-1.11v-3.57h17.53l13.5,28.68,13.62-28.68h17.59v3.57h-.87c-2.19,0-3.62,.4-4.27,1.21-.66,.81-.99,2.18-.99,4.14v25.82c0,1.99,.34,3.39,1.01,4.17,.68,.78,2.09,1.17,4.25,1.17h1v3.58h-17.72v-34.57l-16.21,34.57h-2.52Z"/>
    </g>
    <g>
      <path class="cls-1" d="M17.17,356.03v20.92H0v-3.58c2.3,0,3.84-.36,4.6-1.07,.76-.72,1.15-2.14,1.15-4.27v-25.82c0-2.06-.36-3.47-1.08-4.22-.72-.75-2.27-1.13-4.66-1.13v-3.57H17.17v18.7h17.98v-18.7h17.21v3.57c-2.33,0-3.87,.35-4.63,1.06-.77,.71-1.15,2.14-1.15,4.28v25.82c0,2.08,.37,3.49,1.1,4.23,.73,.74,2.29,1.11,4.68,1.11v3.58h-17.21v-20.92H17.17Z"/>
      <path class="cls-1" d="M69.67,355c0-3.93,1.1-7.76,3.29-11.49,2.19-3.73,5.17-6.5,8.93-8.29,3.76-1.79,7.77-2.69,12.06-2.69,7.7,0,13.75,2.21,18.13,6.64,4.38,4.44,6.57,9.87,6.57,16.31s-2.19,11.37-6.55,15.77c-4.37,4.4-10.31,6.6-17.82,6.6-5.15,0-9.69-1.08-13.64-3.25-3.95-2.17-6.77-5.08-8.44-8.74-1.68-3.66-2.52-7.28-2.52-10.86Zm13.5-.35c0,6.72,.91,11.56,2.71,14.54,1.81,2.97,4.49,4.46,8.07,4.46s6.53-1.36,8.42-4.07c1.89-2.71,2.84-7.47,2.84-14.28,0-6.22-.89-10.87-2.66-13.94-1.78-3.07-4.6-4.6-8.47-4.6-3.66,0-6.39,1.43-8.2,4.28-1.81,2.86-2.71,7.39-2.71,13.62Z"/>
      <path class="cls-1" d="M231.4,356.1v10.78c0,2.06,.12,3.41,.35,4.04s.87,1.16,1.9,1.58c1.04,.42,2.6,.63,4.71,.63,2.86,0,4.97-.35,6.31-1.06,1.34-.71,2.55-1.95,3.62-3.73,1.07-1.78,1.84-3.68,2.31-5.7h3.61l-.29,14.33h-34v-34.8c0-2-.34-3.39-1.01-4.17-.68-.78-2.08-1.18-4.22-1.18h-.81v-3.51h37.29l.64,11.3h-3.62c-.65-1.97-1.37-3.55-2.16-4.72-.8-1.17-1.6-1.92-2.41-2.25-.81-.33-2.17-.5-4.08-.5h-8.17v15.06h12.65v3.9h-12.65Z"/>
      <path class="cls-1" d="M272.76,376.22v-14.94h3.87c1.08,4.46,2.69,7.65,4.85,9.56,2.15,1.91,4.47,2.87,6.97,2.87,1.85,0,3.32-.55,4.42-1.64,1.1-1.09,1.64-2.38,1.64-3.86,0-1.05-.34-2.1-1.03-3.15-.69-1.05-2.33-2.22-4.91-3.51-4.97-2.47-8.33-4.28-10.07-5.42-1.74-1.15-3.14-2.62-4.2-4.43-1.05-1.8-1.58-3.87-1.58-6.21,0-3.76,1.35-6.85,4.05-9.29,2.7-2.43,5.83-3.65,9.38-3.65s6.89,1.24,9.49,3.73c.43-.64,.78-1.63,1.07-2.96h3.71v12.88h-3.62c-.65-2.85-1.87-5.2-3.68-7.05-1.81-1.85-3.84-2.77-6.1-2.77-1.7,0-3.05,.47-4.05,1.42-1,.94-1.5,2.12-1.5,3.54,0,1.1,.32,2.11,.97,3.04,.64,.93,1.51,1.7,2.61,2.32,1.1,.61,3.42,1.74,6.97,3.39,3.19,1.5,5.54,2.85,7.07,4.03,1.53,1.18,2.74,2.66,3.63,4.46,.89,1.79,1.34,3.73,1.34,5.81,0,3.87-1.43,7.08-4.3,9.64-2.86,2.57-6.27,3.85-10.24,3.85-2.26,0-4.47-.47-6.63-1.42-2.16-.94-3.89-2.2-5.18-3.77-.49,.97-.86,2.15-1.1,3.54h-3.87Z"/>
      <path class="cls-1" d="M161.72,376.96l-16.27-34.03v34.03h-9.65v-3.58c1.37,0,2.57-.36,3.58-1.07,1.01-.72,1.63-1.55,1.86-2.48,.23-.94,.34-2.43,.34-4.49v-22.95c0-2.19-.38-3.66-1.15-4.39-.76-.74-2.31-1.11-4.63-1.11v-3.57h17.53l13.5,28.68,13.62-28.68h17.59v3.57h-.87c-2.19,0-3.62,.4-4.27,1.21-.66,.81-.99,2.18-.99,4.14v25.82c0,1.99,.34,3.39,1.01,4.17,.68,.78,2.09,1.17,4.25,1.17h1v3.58h-17.72v-34.57l-16.21,34.57h-2.52Z"/>
    </g>
  </g>
  <g>
    <polygon class="cls-1" points="33 113.7 151.88 0 271.08 114.01 263.13 120.94 151.88 14.54 40.62 120.94 33 113.7"/>
    <polyline class="cls-1" points="73.4 238.57 73.34 88.09 152.07 163.38 230.73 88.55 230.73 238.57"/>
    <path class="cls-1" d="M168.93,66.35v33.25c0,6.51-.68,11.24-2.04,14.2-1.36,2.95-3.78,5.42-7.25,7.41-3.47,1.99-7.65,2.98-12.54,2.98-5.97,0-10.79-1.5-14.47-4.51-3.68-3-5.52-6.32-5.52-9.96,0-2.34,.75-4.23,2.25-5.68,1.5-1.45,3.33-2.18,5.5-2.18s3.92,.65,5.37,1.95c1.45,1.3,2.17,2.9,2.17,4.81,0,.93-.12,1.75-.37,2.45-.14,.33-.69,1.18-1.65,2.53-.96,1.35-1.44,2.31-1.44,2.88,0,.87,.45,1.62,1.36,2.25,1.33,.93,3.05,1.4,5.18,1.4,1.5,0,2.74-.37,3.72-1.1,.98-.73,1.67-1.88,2.07-3.43,.4-1.55,.6-5.87,.6-12.94v-36.3c0-3.47-.2-5.64-.6-6.51-.4-.87-1.19-1.63-2.36-2.28-1.17-.65-2.75-.97-4.74-.97h-10.13v-4.59h34.89"/>
  </g>
</svg>