<?xml version="1.0" encoding="UTF-8"?>
<svg id="Layer_1" data-name="Layer 1" xmlns="http://www.w3.org/2000/svg" viewBox="0 0 587.37 235.24">
  <defs>
    <style>
      .cls-1 {
        fill: #1c2c58;
      }
    </style>
  </defs>
  <g>
    <g>
      <path class="cls-1" d="M.36,145.1V73.92H16.98c11.52,0,16.62,5.29,16.62,16.37v4.37c0,7.42-2.45,12.1-7.34,14.03v.2c5,1.53,7.44,6.61,7.44,15.05v12.51c0,3.86,.41,6.71,1.22,8.64h-11.42c-.71-2.03-1.02-4.98-1.02-8.74v-13.02c0-6.51-1.84-8.74-7.04-8.74h-3.88v30.5H.36Zm11.22-40.67h4.08c4.49,0,6.73-2.14,6.73-7.52v-5.49c0-4.88-1.94-7.32-5.71-7.32h-5.1v20.34Z"/>
      <path class="cls-1" d="M53.18,145.1V73.92h30.59v10.17h-19.38v18.81h15.4v10.17h-15.4v21.86h19.38v10.17h-30.59Z"/>
      <path class="cls-1" d="M101.52,145.1V73.92h11.22v71.18h-11.22Z"/>
      <path class="cls-1" d="M132.01,90.8c0-11.49,5.81-17.9,16.72-17.9s16.72,6.41,16.72,17.9v6.1h-10.61v-6.81c0-4.68-1.94-7.02-5.81-7.02s-5.81,2.34-5.81,7.02v38.94c0,4.58,1.94,6.91,5.81,6.91s5.81-2.34,5.81-6.91v-13.93h-5.61v-10.17h16.21v23.29c0,11.49-5.81,17.9-16.72,17.9s-16.72-6.41-16.72-17.9v-37.42Z"/>
      <path class="cls-1" d="M184.53,145.1V73.92h13.87l11.32,42.6v-42.6h9.99v71.18h-11.32l-13.87-51.96v51.96h-9.99Z"/>
    </g>
    <g>
      <path class="cls-1" d="M42.03,193.69v-20.76h4.85c3.36,0,4.85,1.54,4.85,4.77v1.28c0,2.17-.71,3.53-2.14,4.09v.06c1.46,.44,2.17,1.93,2.17,4.39v3.65c0,1.13,.12,1.96,.36,2.52h-3.33c-.21-.59-.3-1.45-.3-2.55v-3.8c0-1.9-.54-2.55-2.05-2.55h-1.13v8.9h-3.27Zm3.27-11.86h1.19c1.31,0,1.96-.62,1.96-2.19v-1.6c0-1.42-.56-2.14-1.67-2.14h-1.49v5.93Z"/>
      <path class="cls-1" d="M68.47,193.69v-20.76h8.92v2.97h-5.65v5.49h4.49v2.97h-4.49v6.38h5.65v2.97h-8.92Z"/>
      <path class="cls-1" d="M100.77,193.69l-.57-4.06h-3.78l-.57,4.06h-3.03l3.39-20.76h4.43l3.39,20.76h-3.27Zm-3.93-6.88h2.94l-1.49-10.47-1.46,10.47Z"/>
      <path class="cls-1" d="M120.04,193.69v-20.76h3.27v17.79h5.38v2.97h-8.66Z"/>
      <path class="cls-1" d="M145,193.69v-17.79h-3.42v-2.97h10.11v2.97h-3.42v17.79h-3.27Z"/>
      <path class="cls-1" d="M170.81,193.69v-8.84l-3.96-11.92h3.48l2.26,7.74,2.26-7.74h3.18l-3.96,11.92v8.84h-3.27Z"/>
    </g>
    <rect class="cls-1" x=".35" y="161.02" width="219.75" height="2.49"/>
    <g>
      <path class="cls-1" d="M113.57,51.72l-4.99-5.73h0c-.49-.56-1.46-.57-1.96,0l-4.99,5.73c-.43,.49-.42,1.22,0,1.71l4.99,5.6c.24,.28,.6,.43,.97,.43s.72-.16,.97-.43l4.99-5.6c.43-.48,.44-1.22,.01-1.71Zm-5.97,4.5l-3.26-3.66,3.26-3.75,3.26,3.75-3.26,3.66Z"/>
      <path class="cls-1" d="M136.96,60.35l5.52-34.43c.08-.47-.11-.94-.49-1.23-.38-.29-.89-.35-1.32-.15l-10.2,4.64c-.64,.29-.93,1.05-.65,1.69l4.1,9.49c-.31,1.23-2.07,6.01-10.69,6.18-.07,0-.14,0-.21,0-6.06,0-10.63-5.01-13.46-9.34l7.57-8.49c.43-.48,.44-1.22,0-1.71l-8.55-9.81c-.24-.27-.59-.43-.98-.43s-.74,.16-.98,.43l-8.55,9.81c-.42,.49-.42,1.22,.01,1.71l7.57,8.49c-2.81,4.32-7.39,9.34-13.45,9.34h-.21c-8.63-.17-10.39-4.95-10.69-6.18l4.1-9.49c.28-.64-.02-1.4-.65-1.69l-10.2-4.64c-.43-.2-.94-.14-1.32,.15-.38,.29-.57,.76-.49,1.23l5.52,34.43H0v2.58H79.77c.38,0,.74-.17,.99-.45,.25-.29,.35-.67,.29-1.04l-5.38-33.55,6.85,3.12-3.75,8.69c-.09,.21-.12,.44-.1,.67,.01,.09,1.2,8.5,13.28,8.74,4.01,.08,9.95-1.62,15.66-10.17,3.18,4.75,8.34,10.17,15.35,10.17,.1,0,.21,0,.31,0,12.08-.24,13.27-8.66,13.28-8.74,.03-.23,0-.46-.1-.67l-3.75-8.69,6.85-3.12-5.38,33.55c-.06,.37,.05,.75,.29,1.04,.25,.29,.61,.45,.99,.45h81.84v-2.58h-80.32Zm-29.56-25.1l-6.62-7.42,6.82-7.83,6.82,7.83-6.62,7.42c-.12-.03-.28-.03-.41,0Z"/>
    </g>
  </g>
  <g>
    <polygon class="cls-1" points="575.27 71.78 575.27 95.9 553.52 95.9 553.52 71.78 541.41 71.78 541.41 132.01 553.52 132.01 553.52 107.89 575.27 107.89 575.27 132.01 587.37 132.01 587.37 71.78 575.27 71.78"/>
    <path class="cls-1" d="M453.43,113.27l7.37-16.11,7.34,16.11h-14.71Zm23.26,18.74h13.15l-29.04-61.77-29.07,61.77h13.11l3.86-8.43h24.16l3.82,8.43Z"/>
    <path class="cls-1" d="M512.14,133.24c12.97,0,21.95-6.98,21.95-17.97,0-9.29-6.29-14.39-16.31-19.11-6.96-3.25-11.55-4.49-11.55-8.09,0-3.11,3.39-5.73,7.95-5.73,3.39,0,6.9,1.45,8.69,5.05l8.94-6.25c-2.73-7.27-9.53-10.66-17.82-10.66-11.13,0-19.96,6.86-19.96,17.29,0,9.63,7.45,13.34,14.24,16.71,6.36,3.15,13.63,6.63,13.63,11.06,0,3.21-3.84,5.54-9.56,5.54-5.25,0-9.1-1.94-11.76-6.21l-9.7,6.81c4.06,7.46,11.35,11.57,21.26,11.57"/>
    <path class="cls-1" d="M393.72,113.27l7.37-16.11,7.34,16.11h-14.71Zm23.26,18.74h13.15l-29.04-61.77-29.07,61.77h13.11l3.86-8.43h24.15l3.83,8.43Z"/>
    <polygon class="cls-1" points="336.4 110.06 306.79 70.24 306.79 132.01 318.92 132.01 318.92 105.76 336.4 131.01 353.85 105.76 353.85 132.01 365.98 132.01 365.98 70.24 336.4 110.06"/>
    <rect class="cls-1" x="306.79" y="141.23" width="41.7" height="13.41"/>
    <rect class="cls-1" x="545.67" y="141.23" width="41.7" height="13.41"/>
    <g>
      <path class="cls-1" d="M359.07,154.54v-13.23h5.87c.61,0,1.17,.13,1.69,.38,.52,.25,.96,.59,1.34,1.01,.37,.42,.67,.89,.88,1.42,.21,.53,.32,1.06,.32,1.59,0,.86-.22,1.64-.64,2.34-.43,.7-1.01,1.21-1.75,1.52l3.03,4.97h-2.9l-2.71-4.43h-2.54v4.43h-2.58Zm2.58-6.69h3.23c.24,0,.46-.06,.66-.17,.21-.11,.38-.26,.53-.46,.15-.19,.27-.42,.36-.68,.09-.26,.13-.54,.13-.84s-.05-.6-.15-.86c-.1-.26-.23-.49-.4-.68-.17-.19-.36-.34-.58-.45-.22-.11-.44-.16-.66-.16h-3.12v4.28Z"/>
      <path class="cls-1" d="M392.79,152.28v2.25h-9.21v-13.23h9.04v2.25h-6.46v3.19h5.59v2.09h-5.59v3.45h6.63Z"/>
      <path class="cls-1" d="M410.67,141.31h2.28l5.04,13.23h-2.65l-1.23-3.3h-4.63l-1.21,3.3h-2.65l5.06-13.23Zm2.97,8.12l-1.83-5.2-1.91,5.2h3.74Z"/>
      <path class="cls-1" d="M431.54,154.54v-13.23h2.58v10.97h6.76v2.25h-9.34Z"/>
      <path class="cls-1" d="M462.26,143.56h-4.24v10.97h-2.56v-10.97h-4.24v-2.25h11.04v2.25Z"/>
      <path class="cls-1" d="M485.2,152.28v2.25h-9.21v-13.23h9.04v2.25h-6.46v3.19h5.59v2.09h-5.59v3.45h6.63Z"/>
      <path class="cls-1" d="M498.23,147.83c0-.81,.15-1.61,.44-2.39,.29-.79,.72-1.49,1.28-2.11,.56-.62,1.25-1.12,2.06-1.51,.81-.38,1.73-.58,2.77-.58,1.22,0,2.28,.27,3.17,.8,.89,.53,1.55,1.23,1.99,2.09l-1.98,1.36c-.17-.37-.39-.69-.63-.94-.25-.25-.52-.46-.8-.61-.29-.15-.59-.26-.9-.33-.31-.07-.62-.1-.91-.1-.65,0-1.21,.13-1.69,.39-.48,.26-.88,.6-1.2,1.01-.32,.42-.56,.89-.72,1.42-.16,.53-.24,1.05-.24,1.57,0,.58,.09,1.15,.28,1.69,.19,.54,.45,1.02,.79,1.42,.34,.41,.75,.74,1.23,.99,.48,.25,1.01,.37,1.58,.37,.3,0,.61-.04,.93-.11,.32-.07,.63-.19,.92-.35,.29-.16,.56-.37,.81-.62,.25-.25,.45-.56,.6-.92l2.11,1.21c-.21,.5-.51,.93-.91,1.31-.39,.38-.83,.7-1.33,.96-.49,.26-1.02,.46-1.58,.6-.56,.14-1.11,.2-1.64,.2-.95,0-1.81-.2-2.6-.6-.78-.4-1.46-.92-2.03-1.56-.57-.64-1.01-1.37-1.33-2.18-.32-.81-.48-1.64-.48-2.49Z"/>
      <path class="cls-1" d="M535.09,141.31v13.23h-2.56v-5.64h-6.02v5.64h-2.58v-13.23h2.58v5.35h6.02v-5.35h2.56Z"/>
    </g>
  </g>
</svg>