<svg width="155" height="243" viewBox="0 0 155 243" fill="none" xmlns="http://www.w3.org/2000/svg">
<path d="M3.23633 141.956V93.2373H14.6062C22.501 93.2373 25.9761 96.8473 25.9761 104.438V107.441C25.9761 112.536 24.2891 115.707 20.949 117.057V117.192C24.3566 118.238 26.0435 121.713 26.0435 127.482V136.051C26.0435 138.683 26.3134 140.64 26.887 141.956H19.0597C18.5873 140.572 18.3512 138.548 18.3512 135.984V127.077C18.3512 122.624 17.1028 121.105 13.5266 121.105H10.8612V141.989H3.23633V141.956ZM10.9287 114.121H13.729C16.7992 114.121 18.3512 112.671 18.3512 108.959V105.214C18.3512 101.874 17.0354 100.187 14.4375 100.187H10.9624V114.121H10.9287Z" fill="#1C2C58"/>
<path d="M39.4038 141.956V93.2373H60.3554V100.187H47.0962V113.076H57.6226V120.026H47.0962V135.006H60.3554V141.956H39.4038Z" fill="#1C2C58"/>
<path d="M72.4678 141.956V93.2373H80.1601V141.956H72.4678Z" fill="#1C2C58"/>
<path d="M93.3518 104.776C93.3518 96.9153 97.3329 92.5293 104.789 92.5293C112.245 92.5293 116.226 96.9153 116.226 104.776V108.96H108.973V104.304C108.973 101.099 107.657 99.5132 104.992 99.5132C102.326 99.5132 101.01 101.099 101.01 104.304V130.957C101.01 134.095 102.326 135.681 104.992 135.681C107.657 135.681 108.973 134.095 108.973 130.957V121.409H105.127V114.459H116.226V130.384C116.226 138.245 112.245 142.631 104.789 142.631C97.3329 142.631 93.3518 138.245 93.3518 130.384V104.776Z" fill="#1C2C58"/>
<path d="M129.283 141.956V93.2373H138.764L146.524 122.387V93.2373H153.372V141.956H145.613L136.132 106.395V141.956H129.283Z" fill="#1C2C58"/>
<path d="M31.7791 175.188V160.984H35.0855C37.3797 160.984 38.3918 162.03 38.3918 164.257V165.134C38.3918 166.619 37.9195 167.563 36.9411 167.934C37.9532 168.272 38.4256 169.284 38.4256 170.971V173.468C38.4256 174.244 38.4931 174.817 38.6617 175.188H36.3675C36.2326 174.783 36.1651 174.21 36.1651 173.434V170.836C36.1651 169.52 35.794 169.082 34.7481 169.082H33.9721V175.155H31.7454L31.7791 175.188ZM34.0058 167.057H34.8156C35.7265 167.057 36.1651 166.619 36.1651 165.539V164.459C36.1651 163.481 35.794 163.009 35.018 163.009H34.0058V167.057Z" fill="#1C2C58"/>
<path d="M49.8628 175.188V160.984H55.9695V163.009H52.0895V166.754H55.1597V168.778H52.0895V173.13H55.9695V175.155H49.8628V175.188Z" fill="#1C2C58"/>
<path d="M71.9617 175.188L71.5906 172.422H68.9927L68.6216 175.188H66.5298L68.8577 160.984H71.8942L74.2222 175.188H71.9954H71.9617ZM69.2626 170.465H71.2869L70.2748 163.312L69.2626 170.465Z" fill="#1C2C58"/>
<path d="M85.1534 175.188V160.984H87.3801V173.164H91.0576V175.188H85.1196H85.1534Z" fill="#1C2C58"/>
<path d="M102.225 175.188V163.009H99.8972V160.984H106.814V163.009H104.486V175.188H102.259H102.225Z" fill="#1C2C58"/>
<path d="M119.904 175.188V169.149L117.205 160.984H119.601L121.152 166.281L122.704 160.984H124.897L122.198 169.149V175.188H119.972H119.904Z" fill="#1C2C58"/>
<path d="M153.642 152.854H3.23608V154.574H153.642V152.854Z" fill="#1C2C58"/>
<path d="M80.7335 78.0231L77.3259 74.1094C76.9885 73.7383 76.3138 73.7383 75.9764 74.1094L72.5688 78.0231C72.2652 78.3604 72.2652 78.8665 72.5688 79.2039L75.9764 83.0501C76.1451 83.2525 76.3812 83.3537 76.6512 83.3537C76.9211 83.3537 77.1572 83.2525 77.3259 83.0501L80.7335 79.2039C81.0372 78.8665 81.0372 78.3604 80.7335 78.0231ZM76.6512 81.0933L74.4244 78.5966L76.6512 76.0325L78.8779 78.5966L76.6512 81.0933Z" fill="#1C2C58"/>
<path d="M96.7255 83.926L100.504 60.3428C100.572 60.0054 100.437 59.7018 100.167 59.4994C99.8969 59.2969 99.5595 59.2632 99.2559 59.3982L92.272 62.5696C91.8334 62.772 91.631 63.2781 91.8334 63.7167L94.6337 70.1945C94.4313 71.0379 93.2167 74.3106 87.3124 74.4118C87.2787 74.4118 87.2112 74.4118 87.1775 74.4118C83.0277 74.4118 79.89 70.9705 77.9669 68.0015L83.1626 62.1985C83.4663 61.8611 83.4663 61.355 83.1626 61.0176L77.3259 54.3036C77.1572 54.1012 76.921 54 76.6511 54C76.3812 54 76.145 54.1012 75.9763 54.3036L70.1396 61.0176C69.8359 61.355 69.8359 61.8611 70.1396 62.1985L75.3353 68.0015C73.4122 70.9705 70.2745 74.4118 66.1247 74.4118H65.9897C60.0855 74.2768 58.8709 71.0379 58.6685 70.1945L61.4688 63.7167C61.6712 63.2781 61.4688 62.772 61.0302 62.5696L54.0463 59.3982C53.7427 59.2632 53.4053 59.2969 53.1354 59.4994C52.8655 59.7018 52.7305 60.0054 52.798 60.3428L56.5767 83.926H3V85.6804H57.5889C57.8588 85.6804 58.0949 85.5792 58.2636 85.3768C58.4323 85.1743 58.4998 84.9044 58.4661 84.6683L54.7886 61.6924L59.4782 63.8179L56.9141 69.7559C56.9141 69.7559 56.8129 70.0595 56.8466 70.2282C56.8466 70.2957 57.6563 76.0312 65.9223 76.1999C68.6551 76.2674 72.7374 75.0865 76.6511 69.2498C78.8104 72.4887 82.3529 76.1999 87.1438 76.1999C87.2112 76.1999 87.2787 76.1999 87.3462 76.1999C95.6121 76.0312 96.4218 70.2619 96.4218 70.2282C96.4218 70.0595 96.4218 69.9246 96.3544 69.7559L93.7902 63.8179L98.4799 61.6924L94.8024 84.6683C94.7686 84.9382 94.8024 85.1743 95.0048 85.3768C95.1735 85.5792 95.4097 85.6804 95.6796 85.6804H151.685V83.926H96.7255ZM76.4824 66.7531L71.9614 61.6586L76.6173 56.2942L81.2733 61.6586L76.7523 66.7531C76.7523 66.7531 76.5499 66.7531 76.4824 66.7531Z" fill="#1C2C58"/>
<path d="M148.431 197.827V210.885H136.654V197.827H130.085V230.46H136.654V217.401H148.431V230.46H155V197.827H148.431Z" fill="#1C2C58"/>
<path d="M82.418 220.313L86.4237 211.58L90.4026 220.313H82.4447H82.418ZM95.0224 230.46H102.152L86.4237 197L70.6682 230.46H77.7715L79.8544 225.894H92.9394L95.0224 230.46Z" fill="#1C2C58"/>
<path d="M114.249 231.128C121.272 231.128 126.133 227.336 126.133 221.381C126.133 216.361 122.714 213.584 117.294 211.02C113.528 209.258 111.045 208.59 111.045 206.641C111.045 204.958 112.887 203.543 115.344 203.543C117.187 203.543 119.083 204.344 120.044 206.267L124.877 202.876C123.409 198.923 119.724 197.107 115.211 197.107C109.175 197.107 104.395 200.819 104.395 206.481C104.395 211.688 108.428 213.717 112.113 215.533C115.558 217.242 119.483 219.138 119.483 221.515C119.483 223.251 117.4 224.506 114.303 224.506C111.472 224.506 109.362 223.464 107.92 221.141L102.66 224.826C104.849 228.859 108.802 231.102 114.169 231.102" fill="#1C2C58"/>
<path d="M50.0794 220.313L54.085 211.58L58.0639 220.313H50.1061H50.0794ZM62.6837 230.46H69.8138L54.085 197L38.3296 230.46H45.4329L47.5158 225.894H60.6008L62.6837 230.46Z" fill="#1C2C58"/>
<path d="M19.0225 218.577L3 197V230.46H9.5692V216.254L19.0225 229.926L28.4757 216.254V230.46H35.0449V197L19.0225 218.577Z" fill="#1C2C58"/>
<path d="M25.5917 235.455H3V242.719H25.5917V235.455Z" fill="#1C2C58"/>
<path d="M155 235.455H132.408V242.719H155V235.455Z" fill="#1C2C58"/>
<path d="M31.3065 242.664V235.507H34.4843C34.8047 235.507 35.1252 235.587 35.3922 235.72C35.6593 235.854 35.9263 236.041 36.1132 236.255C36.3269 236.468 36.4871 236.735 36.5939 237.029C36.7007 237.323 36.7541 237.59 36.7541 237.884C36.7541 238.337 36.6473 238.765 36.407 239.139C36.1666 239.512 35.8462 239.806 35.4723 239.966L37.1013 242.664H35.5257L34.057 240.26H32.6684V242.664H31.2798H31.3065ZM32.6951 239.032H34.4576C34.4576 239.032 34.6979 239.005 34.8047 238.952C34.9115 238.898 35.0184 238.818 35.0985 238.711C35.1786 238.605 35.232 238.498 35.2854 238.337C35.3388 238.204 35.3655 238.044 35.3655 237.884C35.3655 237.723 35.3388 237.563 35.2854 237.43C35.232 237.296 35.1519 237.162 35.0718 237.056C34.9917 236.949 34.8848 236.869 34.7513 236.815C34.6445 236.762 34.511 236.735 34.4042 236.735H32.7218V239.058L32.6951 239.032Z" fill="#1C2C58"/>
<path d="M49.5718 241.435V242.664H44.5781V235.507H49.465V236.735H45.9668V238.471H48.9843V239.593H45.9668V241.462H49.5718V241.435Z" fill="#1C2C58"/>
<path d="M59.2658 235.507H60.4941L63.218 242.664H61.776L61.1083 240.874H58.5982L57.9306 242.664H56.4885L59.2391 235.507H59.2658ZM60.868 239.913L59.88 237.109L58.8385 239.913H60.868Z" fill="#1C2C58"/>
<path d="M70.588 242.664V235.507H71.9766V241.462H75.6351V242.69H70.5613L70.588 242.664Z" fill="#1C2C58"/>
<path d="M87.2249 236.707H84.9283V242.662H83.5397V236.707H81.2432V235.479H87.2249V236.707Z" fill="#1C2C58"/>
<path d="M99.6421 241.435V242.664H94.6484V235.507H99.5353V236.735H96.0371V238.471H99.0546V239.593H96.0371V241.462H99.6421V241.435Z" fill="#1C2C58"/>
<path d="M106.692 239.032C106.692 238.605 106.772 238.151 106.932 237.723C107.092 237.296 107.333 236.922 107.627 236.575C107.92 236.228 108.294 235.961 108.748 235.747C109.175 235.534 109.683 235.427 110.244 235.427C110.911 235.427 111.472 235.56 111.953 235.854C112.433 236.148 112.807 236.522 113.021 236.976L111.953 237.723C111.846 237.51 111.739 237.349 111.605 237.216C111.472 237.082 111.338 236.976 111.178 236.895C111.018 236.815 110.858 236.762 110.698 236.709C110.537 236.682 110.35 236.655 110.19 236.655C109.843 236.655 109.523 236.735 109.282 236.869C109.015 237.002 108.802 237.189 108.641 237.43C108.481 237.643 108.348 237.91 108.241 238.204C108.161 238.498 108.107 238.765 108.107 239.059C108.107 239.379 108.161 239.673 108.267 239.966C108.374 240.26 108.508 240.527 108.695 240.741C108.882 240.955 109.095 241.141 109.362 241.275C109.629 241.408 109.896 241.489 110.217 241.489C110.377 241.489 110.537 241.489 110.724 241.435C110.911 241.382 111.071 241.328 111.232 241.248C111.392 241.168 111.525 241.061 111.659 240.901C111.792 240.768 111.899 240.607 111.979 240.394L113.128 241.061C113.021 241.328 112.861 241.569 112.647 241.782C112.433 241.996 112.193 242.156 111.926 242.29C111.659 242.423 111.365 242.53 111.071 242.61C110.778 242.69 110.484 242.717 110.19 242.717C109.683 242.717 109.202 242.61 108.775 242.397C108.348 242.183 107.974 241.889 107.68 241.542C107.386 241.195 107.146 240.794 106.959 240.367C106.799 239.94 106.692 239.486 106.692 239.032Z" fill="#1C2C58"/>
<path d="M126.667 235.507V242.664H125.278V239.593H122.02V242.664H120.632V235.507H122.02V238.391H125.278V235.507H126.667Z" fill="#1C2C58"/>
<path d="M17.44 19L17.4 5H14.74L9.58 13.7L4.34 5H1.66V19H4.7V10.78L8.8 17.52H10.26L14.38 10.6L14.4 19H17.44ZM31.2216 19H34.6216L28.3616 5H25.1616L18.9216 19H22.2416L23.4816 16H29.9816L31.2216 19ZM24.5216 13.54L26.7416 8.18L28.9616 13.54H24.5216ZM48.4741 19L45.3341 14.5C47.1541 13.72 48.2141 12.18 48.2141 10.08C48.2141 6.94 45.8741 5 42.1341 5H36.0741V19H39.3141V15.1H42.1341H42.2941L44.9941 19H48.4741ZM44.9341 10.08C44.9341 11.6 43.9341 12.52 41.9541 12.52H39.3141V7.64H41.9541C43.9341 7.64 44.9341 8.54 44.9341 10.08ZM60.3611 19H64.1411L58.0011 11.24L63.8011 5H60.2011L54.0011 11.54V5H50.7811V19H54.0011V15.46L55.8811 13.5L60.3611 19ZM68.8058 16.4V13.16H75.3058V10.64H68.8058V7.6H76.1658V5H65.5858V19H76.4258V16.4H68.8058ZM81.9038 19H85.1438V7.64H89.6238V5H77.4238V7.64H81.9038V19ZM94.587 16.4V13.16H101.087V10.64H94.587V7.6H101.947V5H91.367V19H102.207V16.4H94.587ZM104.785 19H111.145C115.725 19 118.865 16.24 118.865 12C118.865 7.76 115.725 5 111.145 5H104.785V19ZM108.025 16.34V7.66H110.985C113.765 7.66 115.585 9.32 115.585 12C115.585 14.68 113.765 16.34 110.985 16.34H108.025ZM137.253 11.72C138.393 11.12 139.113 10.04 139.113 8.64C139.113 6.46 137.313 5 133.813 5H126.973V19H134.213C137.893 19 139.813 17.6 139.813 15.18C139.813 13.42 138.813 12.22 137.253 11.72ZM133.413 7.44C134.993 7.44 135.853 7.98 135.853 9.08C135.853 10.18 134.993 10.74 133.413 10.74H130.193V7.44H133.413ZM133.973 16.56H130.193V13.1H133.973C135.653 13.1 136.553 13.66 136.553 14.84C136.553 16.04 135.653 16.56 133.973 16.56ZM154.133 5H150.953L147.213 11.22L143.473 5H140.032L145.452 14V19H148.693V14.04L154.133 5Z" fill="#1C2C58"/>
</svg>
