<svg width="155" height="244" viewBox="0 0 155 244" fill="none" xmlns="http://www.w3.org/2000/svg">
<path d="M3.24414 141.987V93.3359H14.5683C22.416 93.3359 25.8925 96.9548 25.8925 104.518V107.506C25.8925 112.589 24.2254 115.781 20.8912 117.103V117.245C24.3067 118.282 25.9738 121.758 25.9738 127.532V136.071C25.9738 138.714 26.2585 140.666 26.8074 141.987H19.0207C18.5328 140.605 18.3295 138.572 18.3295 136.01V127.105C18.3295 122.653 17.069 121.128 13.5315 121.128H10.8885V141.987H3.24414ZM10.8885 114.195H13.6738C16.7234 114.195 18.2685 112.731 18.2685 109.052V105.29C18.2685 101.956 16.947 100.289 14.3854 100.289H10.9088V114.195H10.8885Z" fill="#414042"/>
<path d="M39.25 141.987V93.3359H60.1093V100.289H46.8943V113.138H57.385V120.091H46.8943V135.034H60.1093V141.987H39.25Z" fill="#414042"/>
<path d="M72.1855 141.987V93.3359H79.8299V141.987H72.1855Z" fill="#414042"/>
<path d="M92.9629 104.885C92.9629 97.0369 96.9274 92.6455 104.368 92.6455C111.809 92.6455 115.774 97.0166 115.774 104.885V109.052H108.536V104.397C108.536 101.205 107.215 99.5986 104.572 99.5986C101.929 99.5986 100.607 101.205 100.607 104.397V131.01C100.607 134.14 101.929 135.726 104.572 135.726C107.215 135.726 108.536 134.12 108.536 131.01V121.495H104.714V114.542H115.774V130.461C115.774 138.308 111.809 142.7 104.368 142.7C96.9274 142.7 92.9629 138.329 92.9629 130.461V104.885Z" fill="#414042"/>
<path d="M128.766 141.987V93.3359H138.219L145.925 122.449V93.3359H152.736V141.987H145.03L135.576 106.47V141.987H128.766Z" fill="#414042"/>
<path d="M31.6455 175.207V161.017H34.9594C37.2568 161.017 38.2733 162.074 38.2733 164.29V165.164C38.2733 166.648 37.7854 167.583 36.8095 167.97V168.01C37.8057 168.315 38.2936 169.332 38.2936 171.019V173.52C38.2936 174.293 38.375 174.862 38.5376 175.248H36.2606C36.1183 174.841 36.0573 174.252 36.0573 173.5V170.897C36.0573 169.596 35.6913 169.149 34.6544 169.149H33.8819V175.228H31.6455V175.207ZM33.8819 167.095H34.6951C35.5897 167.095 36.0369 166.669 36.0369 165.591V164.493C36.0369 163.517 35.6507 163.029 34.8984 163.029H33.8819V167.075V167.095Z" fill="#414042"/>
<path d="M49.6592 175.207V161.017H55.7381V163.05H51.8956V166.791H54.9655V168.824H51.8956V173.174H55.7381V175.207H49.6592Z" fill="#414042"/>
<path d="M71.6763 175.207L71.2901 172.422H68.7081L68.3218 175.207H66.248L68.5657 161.017H71.595L73.9127 175.207H71.6763ZM68.9927 170.511H71.0054L69.9889 163.355L68.9927 170.511Z" fill="#414042"/>
<path d="M84.8105 175.207V161.017H87.0469V173.174H90.7064V175.207H84.8105Z" fill="#414042"/>
<path d="M101.827 175.207V163.05H99.4893V161.017H106.381V163.05H104.043V175.207H101.807H101.827Z" fill="#414042"/>
<path d="M119.413 175.207V169.169L116.709 161.017H119.088L120.633 166.303L122.178 161.017H124.353L121.649 169.169V175.207H119.413Z" fill="#414042"/>
<path d="M153 152.885H3.24414V154.593H153V152.885Z" fill="#C49A6C"/>
<path d="M80.3985 78.1707L77.0033 74.2673C76.6576 73.881 76.0071 73.881 75.6614 74.2673L72.2662 78.1707C71.9816 78.496 71.9816 79.0043 72.2662 79.3296L75.6614 83.1518C75.8241 83.3347 76.068 83.4567 76.312 83.4567C76.556 83.4567 76.8 83.3551 76.9626 83.1518L80.3578 79.3296C80.6424 79.0043 80.6628 78.496 80.3578 78.1707H80.3985ZM76.3323 81.2407L74.1163 78.74L76.3323 76.1783L78.5484 78.74L76.3323 81.2407Z" fill="#C49A6C"/>
<path d="M96.3382 84.0665L100.099 60.5236C100.16 60.1983 100.018 59.873 99.7537 59.69C99.4894 59.4867 99.1438 59.446 98.8592 59.5884L91.9061 62.7599C91.4791 62.9633 91.2758 63.4715 91.4588 63.9188L94.2441 70.4043C94.0408 71.2378 92.8413 74.5111 86.9657 74.6331C86.9251 74.6331 86.8641 74.6331 86.8234 74.6331C82.6963 74.6331 79.5857 71.2175 77.6543 68.2492L82.8183 62.4347C83.1029 62.1094 83.1232 61.6011 82.8183 61.2758L77.0037 54.5463C76.841 54.3634 76.5971 54.2617 76.3328 54.2617C76.0685 54.2617 75.8245 54.3634 75.6619 54.5463L69.827 61.2555C69.5423 61.5808 69.5423 62.089 69.827 62.4143L74.9909 68.2289C73.0799 71.1768 69.9489 74.6127 65.8218 74.6127H65.6795C59.8039 74.4907 58.6044 71.2378 58.4011 70.3839L61.1864 63.8985C61.3694 63.4512 61.1864 62.9429 60.7391 62.7396L53.786 59.568C53.5014 59.4257 53.1558 59.4664 52.8915 59.6697C52.6272 59.873 52.5052 60.1983 52.5459 60.5032L56.307 84.0462H3V85.8149H57.3642C57.6285 85.8149 57.8725 85.693 58.0352 85.51C58.1978 85.3067 58.2791 85.0627 58.2385 84.7984L54.5789 61.8654L59.255 64.0001L56.6933 69.9367C56.6323 70.079 56.612 70.2416 56.6323 70.4043C56.6323 70.4653 57.4456 76.2189 65.6795 76.3815C68.4038 76.4425 72.4699 75.2633 76.3531 69.4284C78.5082 72.6813 82.0254 76.3815 86.8234 76.3815C86.8844 76.3815 86.9657 76.3815 87.0267 76.3815C95.2606 76.2189 96.0739 70.4653 96.0739 70.4043C96.0739 70.2416 96.0739 70.079 96.0129 69.9367L93.4512 64.0001L98.1273 61.8654L94.4677 84.7984C94.4271 85.0627 94.5084 85.3067 94.671 85.51C94.8337 85.7133 95.0777 85.8149 95.3419 85.8149H151.109V84.0462H96.3788L96.3382 84.0665ZM76.1905 66.9074L71.677 61.8247L76.3328 56.4778L80.9885 61.8247L76.4751 66.9074C76.4751 66.9074 76.2921 66.8871 76.1905 66.9074Z" fill="#C49A6C"/>
<path d="M148.439 198.014V211.136H136.658V198.014H130.097V230.737H136.658V217.635H148.439V230.737H154.979V198.014H148.439Z" fill="url(#paint0_linear_902_67)"/>
<path d="M82.4344 220.564L86.4164 211.816L90.3985 220.564H82.4344ZM95.0408 230.736H102.159L86.4164 197.188L70.6738 230.736H77.7714L79.8553 226.156H92.9363L94.9995 230.736H95.0408Z" fill="url(#paint1_linear_902_67)"/>
<path d="M114.23 231.417C121.265 231.417 126.114 227.621 126.114 221.658C126.114 216.603 122.71 213.838 117.283 211.28C113.508 209.505 111.032 208.845 111.032 206.885C111.032 205.193 112.868 203.769 115.344 203.769C117.18 203.769 119.078 204.554 120.048 206.514L124.897 203.109C123.411 199.148 119.718 197.312 115.241 197.312C109.216 197.312 104.429 201.046 104.429 206.699C104.429 211.94 108.453 213.941 112.146 215.778C115.591 217.49 119.532 219.388 119.532 221.782C119.532 223.535 117.448 224.794 114.354 224.794C111.506 224.794 109.422 223.742 107.978 221.41L102.717 225.103C104.904 229.168 108.865 231.396 114.23 231.396" fill="url(#paint2_linear_902_67)"/>
<path d="M50.0836 220.564L54.0657 211.816L58.0478 220.564H50.0836ZM62.6901 230.736H69.8083L54.0863 197.188L38.3438 230.736H45.4413L47.5252 226.156H60.6062L62.6695 230.736H62.6901Z" fill="url(#paint3_linear_902_67)"/>
<path d="M19.0314 218.81L3 197.188V230.736H9.56113V216.479L19.0314 230.199L28.4811 216.479V230.736H35.0629V197.188L19.0314 218.81Z" fill="url(#paint4_linear_902_67)"/>
<path d="M25.5926 235.751H3V243.034H25.5926V235.751Z" fill="url(#paint5_linear_902_67)"/>
<path d="M155 235.751H132.407V243.034H155V235.751Z" fill="url(#paint6_linear_902_67)"/>
<path d="M31.3079 242.972V235.792H34.4853C34.8154 235.792 35.1249 235.854 35.3931 235.998C35.682 236.143 35.9089 236.328 36.1152 236.535C36.3216 236.762 36.466 237.009 36.5898 237.298C36.7136 237.587 36.7548 237.876 36.7548 238.165C36.7548 238.639 36.6311 239.052 36.4041 239.444C36.1771 239.815 35.847 240.104 35.455 240.269L37.085 242.972H35.5169L34.052 240.558H32.6696V242.972H31.2666H31.3079ZM32.7109 239.341H34.4646C34.5884 239.341 34.7122 239.32 34.8154 239.258C34.9186 239.196 35.0217 239.114 35.1042 239.011C35.1868 238.908 35.2487 238.784 35.2899 238.639C35.3312 238.495 35.3518 238.35 35.3518 238.185C35.3518 238.02 35.3312 237.855 35.2693 237.711C35.2074 237.566 35.1455 237.443 35.0423 237.339C34.9598 237.236 34.8567 237.154 34.7329 237.092C34.6091 237.03 34.4853 237.009 34.3821 237.009H32.6902V239.341H32.7109Z" fill="url(#paint7_linear_902_67)"/>
<path d="M49.5888 241.755V242.972H44.5957V235.792H49.4856V237.009H45.9781V238.742H49.0111V239.877H45.9781V241.755H49.5681H49.5888Z" fill="url(#paint8_linear_902_67)"/>
<path d="M59.2648 235.792H60.5027L63.2262 242.972H61.7819L61.1217 241.177H58.6045L57.9443 242.972H56.5L59.2441 235.792H59.2648ZM60.8741 240.207L59.8837 237.381L58.8521 240.207H60.8741Z" fill="url(#paint9_linear_902_67)"/>
<path d="M70.5723 242.972V235.792H71.9753V241.755H75.6479V242.972H70.5929H70.5723Z" fill="url(#paint10_linear_902_67)"/>
<path d="M87.2226 237.032H84.9323V242.995H83.55V237.032H81.2598V235.814H87.2432V237.032H87.2226Z" fill="url(#paint11_linear_902_67)"/>
<path d="M99.6425 241.755V242.972H94.6494V235.792H99.5393V237.009H96.0318V238.742H99.0648V239.877H96.0318V241.755H99.6219H99.6425Z" fill="url(#paint12_linear_902_67)"/>
<path d="M106.699 239.341C106.699 238.908 106.782 238.474 106.947 238.041C107.112 237.608 107.339 237.237 107.648 236.886C107.958 236.556 108.329 236.267 108.762 236.06C109.196 235.854 109.691 235.751 110.269 235.751C110.929 235.751 111.507 235.895 111.981 236.184C112.456 236.473 112.827 236.844 113.054 237.319L111.981 238.062C111.878 237.855 111.775 237.69 111.63 237.546C111.486 237.402 111.342 237.298 111.197 237.216C111.032 237.133 110.888 237.071 110.702 237.03C110.537 236.989 110.372 236.968 110.207 236.968C109.856 236.968 109.547 237.03 109.299 237.175C109.031 237.319 108.824 237.505 108.659 237.732C108.494 237.959 108.35 238.206 108.267 238.495C108.185 238.784 108.143 239.073 108.143 239.341C108.143 239.651 108.185 239.96 108.288 240.249C108.391 240.538 108.536 240.806 108.721 241.033C108.907 241.26 109.134 241.425 109.381 241.569C109.65 241.714 109.918 241.776 110.227 241.776C110.392 241.776 110.558 241.776 110.743 241.714C110.908 241.673 111.094 241.611 111.238 241.528C111.403 241.446 111.548 241.322 111.672 241.198C111.816 241.054 111.919 240.888 112.002 240.703L113.137 241.363C113.013 241.631 112.868 241.879 112.641 242.085C112.435 242.291 112.187 242.457 111.919 242.601C111.651 242.745 111.362 242.849 111.073 242.931C110.784 243.014 110.475 243.034 110.186 243.034C109.67 243.034 109.196 242.931 108.783 242.704C108.35 242.498 107.999 242.209 107.69 241.858C107.38 241.507 107.153 241.115 106.967 240.682C106.802 240.249 106.699 239.795 106.699 239.341Z" fill="url(#paint13_linear_902_67)"/>
<path d="M126.671 235.792V242.972H125.289V239.898H122.029V242.972H120.626V235.792H122.029V238.701H125.289V235.792H126.671Z" fill="url(#paint14_linear_902_67)"/>
<path d="M17.44 19L17.4 5H14.74L9.58 13.7L4.34 5H1.66V19H4.7V10.78L8.8 17.52H10.26L14.38 10.6L14.4 19H17.44ZM31.2216 19H34.6216L28.3616 5H25.1616L18.9216 19H22.2416L23.4816 16H29.9816L31.2216 19ZM24.5216 13.54L26.7416 8.18L28.9616 13.54H24.5216ZM48.4741 19L45.3341 14.5C47.1541 13.72 48.2141 12.18 48.2141 10.08C48.2141 6.94 45.8741 5 42.1341 5H36.0741V19H39.3141V15.1H42.1341H42.2941L44.9941 19H48.4741ZM44.9341 10.08C44.9341 11.6 43.9341 12.52 41.9541 12.52H39.3141V7.64H41.9541C43.9341 7.64 44.9341 8.54 44.9341 10.08ZM60.3611 19H64.1411L58.0011 11.24L63.8011 5H60.2011L54.0011 11.54V5H50.7811V19H54.0011V15.46L55.8811 13.5L60.3611 19ZM68.8058 16.4V13.16H75.3058V10.64H68.8058V7.6H76.1658V5H65.5858V19H76.4258V16.4H68.8058ZM81.9038 19H85.1438V7.64H89.6238V5H77.4238V7.64H81.9038V19ZM94.587 16.4V13.16H101.087V10.64H94.587V7.6H101.947V5H91.367V19H102.207V16.4H94.587ZM104.785 19H111.145C115.725 19 118.865 16.24 118.865 12C118.865 7.76 115.725 5 111.145 5H104.785V19ZM108.025 16.34V7.66H110.985C113.765 7.66 115.585 9.32 115.585 12C115.585 14.68 113.765 16.34 110.985 16.34H108.025ZM137.253 11.72C138.393 11.12 139.113 10.04 139.113 8.64C139.113 6.46 137.313 5 133.813 5H126.973V19H134.213C137.893 19 139.813 17.6 139.813 15.18C139.813 13.42 138.813 12.22 137.253 11.72ZM133.413 7.44C134.993 7.44 135.853 7.98 135.853 9.08C135.853 10.18 134.993 10.74 133.413 10.74H130.193V7.44H133.413ZM133.973 16.56H130.193V13.1H133.973C135.653 13.1 136.553 13.66 136.553 14.84C136.553 16.04 135.653 16.56 133.973 16.56ZM154.133 5H150.953L147.213 11.22L143.473 5H140.032L145.452 14V19H148.693V14.04L154.133 5Z" fill="#1C2C58"/>
<defs>
<linearGradient id="paint0_linear_902_67" x1="142.538" y1="199.479" x2="142.538" y2="229.127" gradientUnits="userSpaceOnUse">
<stop stop-color="#F36F21"/>
<stop offset="1" stop-color="#CC1A20"/>
</linearGradient>
<linearGradient id="paint1_linear_902_67" x1="86.4164" y1="199.478" x2="86.4164" y2="229.127" gradientUnits="userSpaceOnUse">
<stop stop-color="#F36F21"/>
<stop offset="1" stop-color="#CC1A20"/>
</linearGradient>
<linearGradient id="paint2_linear_902_67" x1="114.415" y1="199.478" x2="114.415" y2="229.127" gradientUnits="userSpaceOnUse">
<stop stop-color="#F36F21"/>
<stop offset="1" stop-color="#CC1A20"/>
</linearGradient>
<linearGradient id="paint3_linear_902_67" x1="54.0657" y1="199.478" x2="54.0657" y2="229.127" gradientUnits="userSpaceOnUse">
<stop stop-color="#F36F21"/>
<stop offset="1" stop-color="#CC1A20"/>
</linearGradient>
<linearGradient id="paint4_linear_902_67" x1="19.0314" y1="199.478" x2="19.0314" y2="229.127" gradientUnits="userSpaceOnUse">
<stop stop-color="#F36F21"/>
<stop offset="1" stop-color="#CC1A20"/>
</linearGradient>
<linearGradient id="paint5_linear_902_67" x1="14.286" y1="199.479" x2="14.286" y2="229.128" gradientUnits="userSpaceOnUse">
<stop stop-color="#F36F21"/>
<stop offset="1" stop-color="#CC1A20"/>
</linearGradient>
<linearGradient id="paint6_linear_902_67" x1="143.693" y1="199.479" x2="143.693" y2="229.128" gradientUnits="userSpaceOnUse">
<stop stop-color="#F36F21"/>
<stop offset="1" stop-color="#CC1A20"/>
</linearGradient>
<linearGradient id="paint7_linear_902_67" x1="34.217" y1="199.479" x2="34.217" y2="229.128" gradientUnits="userSpaceOnUse">
<stop stop-color="#F36F21"/>
<stop offset="1" stop-color="#CC1A20"/>
</linearGradient>
<linearGradient id="paint8_linear_902_67" x1="47.0922" y1="199.479" x2="47.0922" y2="229.128" gradientUnits="userSpaceOnUse">
<stop stop-color="#F36F21"/>
<stop offset="1" stop-color="#CC1A20"/>
</linearGradient>
<linearGradient id="paint9_linear_902_67" x1="59.8837" y1="199.479" x2="59.8837" y2="229.128" gradientUnits="userSpaceOnUse">
<stop stop-color="#F36F21"/>
<stop offset="1" stop-color="#CC1A20"/>
</linearGradient>
<linearGradient id="paint10_linear_902_67" x1="73.1101" y1="199.479" x2="73.1101" y2="229.128" gradientUnits="userSpaceOnUse">
<stop stop-color="#F36F21"/>
<stop offset="1" stop-color="#CC1A20"/>
</linearGradient>
<linearGradient id="paint11_linear_902_67" x1="84.2308" y1="199.481" x2="84.2308" y2="229.13" gradientUnits="userSpaceOnUse">
<stop stop-color="#F36F21"/>
<stop offset="1" stop-color="#CC1A20"/>
</linearGradient>
<linearGradient id="paint12_linear_902_67" x1="97.1459" y1="199.479" x2="97.1459" y2="229.128" gradientUnits="userSpaceOnUse">
<stop stop-color="#F36F21"/>
<stop offset="1" stop-color="#CC1A20"/>
</linearGradient>
<linearGradient id="paint13_linear_902_67" x1="109.918" y1="199.479" x2="109.918" y2="229.128" gradientUnits="userSpaceOnUse">
<stop stop-color="#F36F21"/>
<stop offset="1" stop-color="#CC1A20"/>
</linearGradient>
<linearGradient id="paint14_linear_902_67" x1="123.638" y1="199.479" x2="123.638" y2="229.128" gradientUnits="userSpaceOnUse">
<stop stop-color="#F36F21"/>
<stop offset="1" stop-color="#CC1A20"/>
</linearGradient>
</defs>
</svg>
