<?xml version="1.0" encoding="UTF-8"?>
<svg id="Layer_1" data-name="Layer 1" xmlns="http://www.w3.org/2000/svg" viewBox="0 0 675.47 176.5">
  <defs>
    <style>
      .cls-1 {
        fill: #fff;
      }

      .cls-2 {
        fill: #c49a6c;
      }
    </style>
  </defs>
  <g>
    <g>
      <path class="cls-2" d="M0,65.63c0-3.2,2.53-5.73,5.73-5.73h15.56c12.43,0,19.95,7.37,19.95,18.01v.15c0,12.06-9.38,18.31-21.07,18.31H11.46v10.35c0,3.2-2.53,5.73-5.73,5.73s-5.73-2.53-5.73-5.73v-41.09Zm20.54,20.54c5.73,0,9.08-3.42,9.08-7.89v-.15c0-5.14-3.57-7.89-9.3-7.89H11.46v15.93h9.08Z"/>
      <path class="cls-2" d="M41.62,104.63l18.16-41.01c1.27-2.83,3.57-4.54,6.7-4.54h.67c3.13,0,5.36,1.71,6.62,4.54l18.16,41.01c.37,.82,.6,1.56,.6,2.31,0,3.05-2.38,5.51-5.43,5.51-2.68,0-4.47-1.56-5.51-3.94l-3.5-8.19h-22.93l-3.65,8.56c-.97,2.23-2.9,3.57-5.29,3.57-2.98,0-5.28-2.38-5.28-5.36,0-.82,.3-1.64,.67-2.46Zm32.23-14.44l-7.22-17.19-7.22,17.19h14.44Z"/>
      <path class="cls-2" d="M100.06,65.33c0-3.2,2.53-5.73,5.73-5.73h1.19c2.75,0,4.39,1.34,5.95,3.35l22.11,29.03v-26.87c0-3.13,2.53-5.66,5.66-5.66s5.66,2.53,5.66,5.66v41.46c0,3.2-2.53,5.73-5.73,5.73h-.37c-2.75,0-4.39-1.34-5.95-3.35l-22.93-30.07v27.91c0,3.13-2.53,5.66-5.66,5.66s-5.66-2.53-5.66-5.66v-41.46Z"/>
      <path class="cls-2" d="M171.31,108.28l-16.9-40.42c-.37-.89-.67-1.79-.67-2.75,0-3.2,2.53-5.66,5.73-5.66,2.98,0,4.91,1.71,5.81,4.02l13.03,33.72,13.18-34.09c.74-1.86,2.75-3.65,5.51-3.65,3.13,0,5.66,2.38,5.66,5.51,0,.89-.3,1.86-.6,2.53l-17.05,40.79c-1.19,2.83-3.35,4.54-6.48,4.54h-.74c-3.13,0-5.29-1.71-6.48-4.54Z"/>
      <path class="cls-2" d="M209.95,106.27v-40.64c0-3.2,2.53-5.73,5.73-5.73h28.88c2.83,0,5.14,2.31,5.14,5.14s-2.31,5.06-5.14,5.06h-23.22v10.57h19.87c2.83,0,5.14,2.31,5.14,5.14s-2.31,5.06-5.14,5.06h-19.87v10.94h23.6c2.83,0,5.14,2.31,5.14,5.14s-2.31,5.06-5.14,5.06h-29.25c-3.2,0-5.73-2.53-5.73-5.73Z"/>
      <path class="cls-2" d="M258.34,65.18c0-3.2,2.53-5.73,5.73-5.73s5.73,2.53,5.73,5.73v36.4h21.21c2.9,0,5.21,2.31,5.21,5.21s-2.31,5.21-5.21,5.21h-26.95c-3.2,0-5.73-2.53-5.73-5.73v-41.09Z"/>
      <path class="cls-2" d="M363.31,96.96c-1.34,0-2.53,.52-3.42,1.27-3.28,2.61-6.48,4.09-11.31,4.09-7.75,0-13.42-5.6-14.79-12.92h-12.1c1.54,13.36,12.33,23.49,26.51,23.49,8.34,0,13.85-2.45,18.53-6.55,1.04-.89,1.94-2.31,1.94-4.1,0-2.9-2.46-5.28-5.36-5.28Zm-14.74-27.39c4.09,0,7.44,1.34,10.64,3.72,.82,.52,1.86,1.12,3.42,1.12,3.13,0,5.66-2.46,5.66-5.58,0-2.01-1.04-3.65-2.23-4.54-4.32-3.2-9.6-5.28-17.42-5.28-14.74,0-25.35,10.3-26.94,23.49h12.05c1.35-7.36,7.14-12.92,14.81-12.92Z"/>
      <path class="cls-2" d="M377.23,106.27v-40.64c0-3.2,2.53-5.73,5.73-5.73h28.88c2.83,0,5.14,2.31,5.14,5.14s-2.31,5.06-5.14,5.06h-23.22v10.57h19.88c2.83,0,5.14,2.31,5.14,5.14s-2.31,5.06-5.14,5.06h-19.88v10.94h23.6c2.83,0,5.14,2.31,5.14,5.14s-2.31,5.06-5.14,5.06h-29.25c-3.2,0-5.73-2.53-5.73-5.73Z"/>
      <path class="cls-2" d="M425.63,65.33c0-3.2,2.53-5.73,5.73-5.73h1.19c2.75,0,4.39,1.34,5.95,3.35l22.11,29.03v-26.87c0-3.13,2.53-5.66,5.66-5.66s5.66,2.53,5.66,5.66v41.46c0,3.2-2.53,5.73-5.73,5.73h-.37c-2.75,0-4.39-1.34-5.95-3.35l-22.93-30.07v27.91c0,3.13-2.53,5.66-5.66,5.66s-5.66-2.53-5.66-5.66v-41.46Z"/>
      <path class="cls-2" d="M495.09,70.47h-11.02c-2.91,0-5.29-2.38-5.29-5.28s2.38-5.28,5.29-5.28h33.49c2.9,0,5.28,2.38,5.28,5.28s-2.38,5.28-5.28,5.28h-11.02v36.25c0,3.2-2.53,5.73-5.73,5.73s-5.73-2.53-5.73-5.73v-36.25Z"/>
      <path class="cls-2" d="M529.71,65.63c0-3.2,2.53-5.73,5.73-5.73h18.09c6.63,0,11.76,1.86,15.19,5.28,2.9,2.9,4.47,7,4.47,11.91v.15c0,8.19-4.1,13.25-10.42,15.86l7.97,9.68c1.12,1.41,1.86,2.6,1.86,4.39,0,3.2-2.68,5.28-5.43,5.28-2.61,0-4.32-1.27-5.66-2.98l-11.16-14.14h-9.16v11.39c0,3.2-2.53,5.73-5.73,5.73s-5.73-2.53-5.73-5.73v-41.09Zm23.08,19.58c5.58,0,8.78-2.98,8.78-7.37v-.15c0-4.91-3.42-7.44-9.01-7.44h-11.39v14.96h11.61Z"/>
      <path class="cls-2" d="M579.14,104.63l18.16-41.01c1.27-2.83,3.57-4.54,6.7-4.54h.67c3.13,0,5.36,1.71,6.62,4.54l18.16,41.01c.37,.82,.6,1.56,.6,2.31,0,3.05-2.38,5.51-5.43,5.51-2.68,0-4.47-1.56-5.51-3.94l-3.5-8.19h-22.93l-3.65,8.56c-.97,2.23-2.9,3.57-5.28,3.57-2.98,0-5.29-2.38-5.29-5.36,0-.82,.3-1.64,.67-2.46Zm32.23-14.44l-7.22-17.19-7.22,17.19h14.44Z"/>
      <path class="cls-2" d="M637.58,65.18c0-3.2,2.53-5.73,5.73-5.73s5.73,2.53,5.73,5.73v36.4h21.22c2.9,0,5.21,2.31,5.21,5.21s-2.31,5.21-5.21,5.21h-26.95c-3.2,0-5.73-2.53-5.73-5.73v-41.09Z"/>
    </g>
    <path class="cls-2" d="M357.01,85.95c0,4.67-3.78,8.45-8.45,8.45s-8.45-3.78-8.45-8.45,3.78-8.45,8.45-8.45,8.45,3.78,8.45,8.45Z"/>
  </g>
  <g>
    <path class="cls-1" d="M218.29,31.85c-2.23-1.21-3.98-2.89-5.25-5.03-1.27-2.14-1.9-4.55-1.9-7.24s.64-5.1,1.92-7.24c1.28-2.14,3.03-3.82,5.27-5.03s4.73-1.82,7.5-1.82c2.25,0,4.29,.39,6.15,1.17,1.85,.78,3.42,1.92,4.7,3.41l-3.29,3.09c-1.98-2.14-4.42-3.21-7.32-3.21-1.88,0-3.56,.41-5.05,1.23-1.49,.82-2.65,1.96-3.48,3.43-.84,1.46-1.25,3.12-1.25,4.97s.42,3.51,1.25,4.97c.83,1.46,2,2.6,3.48,3.43,1.49,.82,3.17,1.23,5.05,1.23,2.9,0,5.34-1.08,7.32-3.25l3.29,3.13c-1.28,1.49-2.85,2.62-4.72,3.41-1.87,.78-3.92,1.17-6.17,1.17-2.77,0-5.27-.61-7.5-1.82Z"/>
    <path class="cls-1" d="M247.8,31.85c-2.25-1.21-4.01-2.9-5.29-5.05-1.28-2.15-1.92-4.56-1.92-7.22s.64-5.07,1.92-7.22c1.28-2.15,3.04-3.84,5.29-5.05,2.24-1.21,4.76-1.82,7.56-1.82s5.31,.61,7.56,1.82c2.24,1.21,4.01,2.89,5.29,5.03,1.28,2.14,1.92,4.56,1.92,7.24s-.64,5.1-1.92,7.24c-1.28,2.14-3.04,3.82-5.29,5.03-2.25,1.21-4.76,1.82-7.56,1.82s-5.31-.61-7.56-1.82Zm12.49-3.88c1.46-.82,2.61-1.97,3.45-3.45,.83-1.47,1.25-3.13,1.25-4.95s-.42-3.48-1.25-4.95c-.84-1.47-1.98-2.62-3.45-3.45-1.46-.82-3.11-1.23-4.93-1.23s-3.47,.41-4.93,1.23c-1.46,.82-2.61,1.97-3.45,3.45-.84,1.48-1.25,3.13-1.25,4.95s.42,3.48,1.25,4.95c.83,1.48,1.98,2.62,3.45,3.45,1.46,.82,3.11,1.23,4.93,1.23s3.47-.41,4.93-1.23Z"/>
    <path class="cls-1" d="M277.09,5.87h11.98c2.92,0,5.52,.57,7.79,1.7,2.27,1.14,4.03,2.74,5.29,4.82s1.88,4.47,1.88,7.19-.63,5.11-1.88,7.19-3.02,3.68-5.29,4.82c-2.27,1.14-4.87,1.7-7.79,1.7h-11.98V5.87Zm11.75,23.1c2.01,0,3.78-.38,5.31-1.16,1.53-.77,2.7-1.87,3.52-3.29,.82-1.42,1.23-3.07,1.23-4.95s-.41-3.53-1.23-4.95-2-2.52-3.52-3.29c-1.53-.77-3.3-1.16-5.31-1.16h-6.66V28.98h6.66Z"/>
    <path class="cls-1" d="M331.55,29.01v4.27h-20.56V5.87h20.01v4.27h-14.92v7.13h13.23v4.19h-13.23v7.56h15.47Z"/>
    <path class="cls-1" d="M363.15,5.87v27.41h-4.19l-15.11-18.56v18.56h-5.05V5.87h4.19l15.11,18.56V5.87h5.05Z"/>
    <path class="cls-1" d="M389.86,26.94h-13.71l-2.7,6.34h-5.25l12.33-27.41h5.01l12.37,27.41h-5.33l-2.74-6.34Zm-1.68-3.99l-5.17-11.98-5.13,11.98h10.3Z"/>
    <path class="cls-1" d="M428.15,33.28l-.04-18.17-9.01,15.04h-2.27l-9.01-14.8v17.93h-4.86V5.87h4.19l10.89,18.17,10.69-18.17h4.19l.04,27.41h-4.82Z"/>
    <path class="cls-1" d="M462.49,29.01v4.27h-20.56V5.87h20.01v4.27h-14.92v7.13h13.24v4.19h-13.24v7.56h15.47Z"/>
  </g>
  <g>
    <path class="cls-2" d="M158.63,156.82h9.1v3.44h-9.1v-3.44Z"/>
    <path class="cls-2" d="M195.02,144.57h4.3v19.52h12.11v3.64h-16.41v-23.16Z"/>
    <path class="cls-2" d="M221.26,146.44c-.51-.47-.76-1.06-.76-1.77s.25-1.3,.76-1.77c.51-.47,1.14-.71,1.89-.71s1.38,.23,1.89,.68c.51,.45,.76,1.02,.76,1.7,0,.73-.25,1.34-.74,1.84-.5,.5-1.13,.74-1.9,.74s-1.38-.24-1.89-.71Zm-.2,3.62h4.14v17.67h-4.14v-17.67Z"/>
    <path class="cls-2" d="M253.79,150.07l-7.58,17.67h-4.27l-7.58-17.67h4.3l5.49,13.1,5.66-13.1h3.97Z"/>
    <path class="cls-2" d="M279.03,160.22h-13.86c.24,1.3,.88,2.33,1.9,3.09,1.03,.76,2.3,1.14,3.82,1.14,1.94,0,3.54-.64,4.8-1.92l2.22,2.55c-.79,.95-1.8,1.67-3.01,2.15-1.21,.49-2.58,.73-4.1,.73-1.94,0-3.65-.39-5.13-1.16-1.48-.77-2.62-1.85-3.42-3.23s-1.21-2.94-1.21-4.68,.39-3.27,1.17-4.65c.78-1.38,1.87-2.45,3.26-3.23,1.39-.77,2.96-1.16,4.7-1.16s3.26,.38,4.62,1.14c1.36,.76,2.42,1.83,3.18,3.21,.76,1.38,1.14,2.97,1.14,4.78,0,.29-.02,.7-.07,1.22Zm-12.23-5.87c-.92,.78-1.47,1.83-1.67,3.13h10.03c-.18-1.28-.72-2.32-1.62-3.11-.9-.79-2.03-1.19-3.38-1.19s-2.44,.39-3.36,1.17Z"/>
    <path class="cls-2" d="M310.22,166.53c-1.89-1.03-3.36-2.44-4.43-4.25-1.07-1.81-1.6-3.85-1.6-6.12s.54-4.31,1.62-6.12c1.08-1.81,2.56-3.23,4.45-4.25,1.89-1.03,4-1.54,6.34-1.54,1.9,0,3.63,.33,5.19,.99s2.89,1.62,3.97,2.88l-2.78,2.61c-1.68-1.81-3.74-2.71-6.19-2.71-1.59,0-3.01,.35-4.27,1.04-1.26,.7-2.24,1.66-2.94,2.9s-1.06,2.64-1.06,4.2,.35,2.97,1.06,4.2c.71,1.24,1.69,2.2,2.94,2.9,1.26,.69,2.68,1.04,4.27,1.04,2.45,0,4.51-.92,6.19-2.75l2.78,2.65c-1.08,1.26-2.41,2.22-3.99,2.88-1.58,.66-3.31,.99-5.21,.99-2.34,0-4.45-.51-6.34-1.54Z"/>
    <path class="cls-2" d="M351.99,160.22h-13.86c.24,1.3,.88,2.33,1.9,3.09,1.03,.76,2.3,1.14,3.82,1.14,1.94,0,3.54-.64,4.8-1.92l2.22,2.55c-.79,.95-1.8,1.67-3.01,2.15s-2.58,.73-4.1,.73c-1.94,0-3.65-.39-5.13-1.16-1.48-.77-2.62-1.85-3.42-3.23s-1.21-2.94-1.21-4.68,.39-3.27,1.17-4.65c.78-1.38,1.87-2.45,3.26-3.23,1.39-.77,2.96-1.16,4.7-1.16s3.26,.38,4.62,1.14c1.36,.76,2.42,1.83,3.18,3.21,.76,1.38,1.14,2.97,1.14,4.78,0,.29-.02,.7-.07,1.22Zm-12.23-5.87c-.92,.78-1.47,1.83-1.67,3.13h10.03c-.18-1.28-.72-2.32-1.62-3.11-.9-.79-2.03-1.19-3.38-1.19s-2.44,.39-3.36,1.17Z"/>
    <path class="cls-2" d="M378.03,151.82c1.34,1.3,2.02,3.23,2.02,5.79v10.12h-4.14v-9.6c0-1.54-.36-2.71-1.09-3.49s-1.76-1.17-3.11-1.17c-1.52,0-2.72,.46-3.61,1.37-.88,.92-1.32,2.23-1.32,3.95v8.93h-4.14v-17.67h3.94v2.28c.68-.82,1.54-1.43,2.58-1.85,1.04-.42,2.21-.63,3.51-.63,2.23,0,4.01,.65,5.36,1.95Z"/>
    <path class="cls-2" d="M402.55,166.78c-.49,.4-1.08,.7-1.77,.89-.7,.2-1.43,.3-2.2,.3-1.94,0-3.44-.51-4.5-1.52-1.06-1.01-1.59-2.49-1.59-4.43v-8.5h-2.91v-3.31h2.91v-4.04h4.14v4.04h4.73v3.31h-4.73v8.4c0,.86,.21,1.52,.63,1.97s1.03,.68,1.82,.68c.93,0,1.7-.24,2.32-.73l1.16,2.94Z"/>
    <path class="cls-2" d="M422.8,149.87v3.94c-.35-.07-.67-.1-.96-.1-1.61,0-2.87,.47-3.77,1.41-.91,.94-1.36,2.29-1.36,4.05v8.57h-4.14v-17.67h3.94v2.58c1.19-1.85,3.29-2.78,6.29-2.78Z"/>
    <path class="cls-2" d="M449.31,160.22h-13.86c.24,1.3,.88,2.33,1.9,3.09,1.03,.76,2.3,1.14,3.82,1.14,1.94,0,3.54-.64,4.8-1.92l2.22,2.55c-.79,.95-1.8,1.67-3.01,2.15s-2.58,.73-4.1,.73c-1.94,0-3.65-.39-5.13-1.16-1.48-.77-2.62-1.85-3.42-3.23s-1.21-2.94-1.21-4.68,.39-3.27,1.17-4.65c.78-1.38,1.87-2.45,3.26-3.23,1.39-.77,2.96-1.16,4.7-1.16s3.26,.38,4.62,1.14c1.36,.76,2.42,1.83,3.18,3.21,.76,1.38,1.14,2.97,1.14,4.78,0,.29-.02,.7-.07,1.22Zm-12.23-5.87c-.92,.78-1.47,1.83-1.67,3.13h10.03c-.18-1.28-.72-2.32-1.62-3.11-.9-.79-2.03-1.19-3.38-1.19s-2.44,.39-3.36,1.17Z"/>
    <path class="cls-2" d="M477.27,143.18v24.55h-3.97v-2.28c-.68,.84-1.53,1.47-2.53,1.89-1,.42-2.11,.63-3.33,.63-1.7,0-3.23-.38-4.58-1.12-1.36-.75-2.42-1.81-3.19-3.19-.77-1.38-1.16-2.96-1.16-4.75s.38-3.36,1.16-4.73c.77-1.37,1.84-2.43,3.19-3.18s2.88-1.12,4.58-1.12c1.17,0,2.24,.2,3.21,.59,.97,.4,1.8,.99,2.48,1.79v-9.07h4.14Zm-6.65,20.56c.79-.45,1.42-1.1,1.89-1.94,.46-.84,.69-1.81,.69-2.91s-.23-2.07-.69-2.91c-.46-.84-1.09-1.48-1.89-1.94-.79-.45-1.69-.68-2.68-.68s-1.89,.23-2.68,.68c-.79,.45-1.42,1.1-1.89,1.94-.46,.84-.69,1.81-.69,2.91s.23,2.07,.69,2.91c.46,.84,1.09,1.48,1.89,1.94,.79,.45,1.69,.68,2.68,.68s1.89-.23,2.68-.68Z"/>
    <path class="cls-2" d="M504.17,156.82h9.1v3.44h-9.1v-3.44Z"/>
  </g>
</svg>