<svg width="465" height="122" viewBox="0 0 465 122" fill="none" xmlns="http://www.w3.org/2000/svg">
<g clip-path="url(#clip0_926_1619)">
<path d="M0.000562842 45.1869C0.000562842 42.9837 1.74351 41.2407 3.94677 41.2407H14.6547C23.213 41.2407 28.3882 46.3131 28.3882 53.638V53.7408C28.3882 62.0443 21.9304 66.3481 13.886 66.3481H7.88851V73.4718C7.88851 75.6751 6.14556 77.418 3.9423 77.418C1.73904 77.418 -0.00390625 75.6751 -0.00390625 73.4718V45.1869H0.000562842ZM14.1452 59.3271C18.0914 59.3271 20.3975 56.9719 20.3975 53.8972V53.7944C20.3975 50.2594 17.9395 48.3645 13.9933 48.3645H7.89298V59.3316H14.1452V59.3271Z" fill="url(#paint0_linear_926_1619)"/>
<path d="M28.6517 72.0373L41.1562 43.8016C42.0277 41.8531 43.6142 40.6777 45.7683 40.6777H46.2287C48.3783 40.6777 49.9201 41.8576 50.7871 43.8016L63.2916 72.0373C63.5464 72.6005 63.7028 73.1144 63.7028 73.6239C63.7028 75.7244 62.0626 77.4181 59.9622 77.4181C58.1164 77.4181 56.8874 76.3411 56.1679 74.7009L53.7591 69.0654H37.9787L35.4671 74.9557C34.8012 76.493 33.4694 77.4137 31.8292 77.4137C29.7779 77.4137 28.1914 75.7735 28.1914 73.7222C28.1914 73.1591 28.397 72.596 28.6517 72.0329V72.0373ZM50.8408 62.0981L45.8711 50.2595L40.9015 62.0981H50.8408Z" fill="url(#paint1_linear_926_1619)"/>
<path d="M68.8828 44.9814C68.8828 42.7781 70.6258 41.0352 72.829 41.0352H73.6469C75.5418 41.0352 76.668 41.9558 77.745 43.3412L92.9623 63.327V44.8294C92.9623 42.6753 94.7052 40.9324 96.8593 40.9324C99.0134 40.9324 100.752 42.6753 100.752 44.8294V73.369C100.752 75.5723 99.009 77.3153 96.8057 77.3153H96.551C94.6561 77.3153 93.5298 76.3946 92.4528 75.0092L76.6724 54.3084V73.5255C76.6724 75.6796 74.9295 77.418 72.7799 77.418C70.6302 77.418 68.8873 75.6751 68.8873 73.5255V44.9814H68.8828Z" fill="url(#paint2_linear_926_1619)"/>
<path d="M117.926 74.5489L106.293 46.7243C106.039 46.1121 105.833 45.4953 105.833 44.8294C105.833 42.6262 107.576 40.9324 109.779 40.9324C111.831 40.9324 113.162 42.1122 113.775 43.6987L122.74 66.9112L131.807 43.444C132.321 42.1614 133.702 40.9324 135.597 40.9324C137.747 40.9324 139.49 42.5725 139.49 44.7266C139.49 45.3434 139.284 46.0093 139.079 46.4696L127.343 74.5489C126.525 76.4974 125.037 77.6772 122.887 77.6772H122.373C120.219 77.6772 118.735 76.4974 117.913 74.5489H117.926Z" fill="url(#paint3_linear_926_1619)"/>
<path d="M144.531 73.1681V45.1916C144.531 42.9883 146.274 41.2454 148.477 41.2454H168.36C170.309 41.2454 171.895 42.8319 171.895 44.7804C171.895 46.7289 170.309 48.2663 168.36 48.2663H152.375V55.542H166.054C168.003 55.542 169.589 57.1285 169.589 59.077C169.589 61.0256 168.003 62.5629 166.054 62.5629H152.375V70.0933H168.62C170.568 70.0933 172.155 71.6799 172.155 73.6284C172.155 75.5769 170.568 77.1143 168.62 77.1143H148.482C146.279 77.1143 144.536 75.3713 144.536 73.1681H144.531Z" fill="url(#paint4_linear_926_1619)"/>
<path d="M177.844 44.883C177.844 42.6797 179.587 40.9368 181.79 40.9368C183.993 40.9368 185.736 42.6797 185.736 44.883V69.9412H200.341C202.339 69.9412 203.93 71.5277 203.93 73.5299C203.93 75.532 202.339 77.1185 200.341 77.1185H181.79C179.587 77.1185 177.844 75.3756 177.844 73.1723V44.8874V44.883Z" fill="url(#paint5_linear_926_1619)"/>
<path d="M239.954 47.9043C242.774 47.9043 245.076 48.825 247.284 50.4651C247.847 50.8227 248.566 51.2338 249.639 51.2338C251.793 51.2338 253.536 49.5445 253.536 47.3904C253.536 46.0094 252.816 44.8788 251.999 44.2665C249.027 42.0632 245.389 40.6287 240.008 40.6287C229.863 40.6287 222.561 47.7166 221.466 56.7978H229.76C230.685 51.7344 234.676 47.9043 239.959 47.9043H239.954ZM250.099 66.7594C249.179 66.7594 248.356 67.117 247.744 67.6309C245.487 69.423 243.288 70.4509 239.954 70.4509C234.618 70.4509 230.717 66.5941 229.774 61.5574H221.443C222.507 70.7548 229.93 77.7266 239.695 77.7266C245.433 77.7266 249.228 76.0373 252.454 73.2173C253.174 72.6005 253.786 71.6263 253.786 70.3973C253.786 68.3996 252.097 66.7594 250.095 66.7594H250.099Z" fill="url(#paint6_linear_926_1619)"/>
<path d="M239.951 64.994C243.164 64.994 245.769 62.3888 245.769 59.1752C245.769 55.9616 243.164 53.3564 239.951 53.3564C236.737 53.3564 234.132 55.9616 234.132 59.1752C234.132 62.3888 236.737 64.994 239.951 64.994Z" fill="url(#paint7_linear_926_1619)"/>
<path d="M259.69 73.1681V45.1916C259.69 42.9883 261.433 41.2454 263.637 41.2454H283.52C285.468 41.2454 287.055 42.8319 287.055 44.7804C287.055 46.7289 285.468 48.2663 283.52 48.2663H267.534V55.542H281.214C283.162 55.542 284.749 57.1285 284.749 59.077C284.749 61.0256 283.162 62.5629 281.214 62.5629H267.534V70.0933H283.779C285.727 70.0933 287.314 71.6799 287.314 73.6284C287.314 75.5769 285.727 77.1143 283.779 77.1143H263.641C261.438 77.1143 259.695 75.3713 259.695 73.1681H259.69Z" fill="url(#paint8_linear_926_1619)"/>
<path d="M293.003 44.9814C293.003 42.7781 294.746 41.0352 296.95 41.0352H297.768C299.662 41.0352 300.793 41.9558 301.866 43.3412L317.083 63.327V44.8294C317.083 42.6753 318.826 40.9324 320.976 40.9324C323.125 40.9324 324.873 42.6753 324.873 44.8294V73.369C324.873 75.5723 323.13 77.3153 320.926 77.3153H320.672C318.777 77.3153 317.646 76.3946 316.573 75.0092L300.793 54.3084V73.5255C300.793 75.6796 299.05 77.418 296.896 77.418C294.742 77.418 292.999 75.6751 292.999 73.5255V44.9814H293.003Z" fill="url(#paint9_linear_926_1619)"/>
<path d="M340.821 48.521H333.237C331.24 48.521 329.6 46.8809 329.6 44.8832C329.6 42.8855 331.24 41.2454 333.237 41.2454H356.293C358.291 41.2454 359.931 42.8855 359.931 44.8832C359.931 46.8809 358.291 48.521 356.293 48.521H348.709V73.4764C348.709 75.6797 346.966 77.4227 344.763 77.4227C342.56 77.4227 340.817 75.6797 340.817 73.4764V48.521H340.821Z" fill="url(#paint10_linear_926_1619)"/>
<path d="M364.652 45.1869C364.652 42.9837 366.395 41.2407 368.598 41.2407H381.049C385.608 41.2407 389.147 42.5189 391.502 44.8786C393.5 46.8762 394.577 49.6962 394.577 53.0793V53.1821C394.577 58.8177 391.757 62.3035 387.404 64.0957L392.888 70.7591C393.656 71.7333 394.166 72.5512 394.166 73.7802C394.166 75.9834 392.32 77.418 390.425 77.418C388.633 77.418 387.453 76.5465 386.528 75.3667L378.841 65.633H372.54V73.4718C372.54 75.6751 370.797 77.418 368.594 77.418C366.39 77.418 364.647 75.6751 364.647 73.4718V45.1869H364.652ZM380.54 58.6612C384.383 58.6612 386.586 56.6099 386.586 53.5888V53.486C386.586 50.1029 384.231 48.36 380.388 48.36H372.549V58.6612H380.544H380.54Z" fill="url(#paint11_linear_926_1619)"/>
<path d="M398.683 72.0373L411.187 43.8016C412.059 41.8531 413.645 40.6777 415.8 40.6777H416.26C418.414 40.6777 419.951 41.8576 420.818 43.8016L433.323 72.0373C433.578 72.6005 433.734 73.1144 433.734 73.6239C433.734 75.7244 432.094 77.4181 429.993 77.4181C428.148 77.4181 426.919 76.3411 426.199 74.7009L423.79 69.0654H408.01L405.498 74.9557C404.832 76.493 403.501 77.4137 401.861 77.4137C399.809 77.4137 398.223 75.7735 398.223 73.7222C398.223 73.1591 398.428 72.596 398.683 72.0329V72.0373ZM420.872 62.0981L415.902 50.2595L410.933 62.0981H420.872Z" fill="url(#paint12_linear_926_1619)"/>
<path d="M438.914 44.883C438.914 42.6797 440.657 40.9368 442.86 40.9368C445.064 40.9368 446.806 42.6797 446.806 44.883V69.9412H461.411C463.409 69.9412 465 71.5277 465 73.5299C465 75.532 463.414 77.1185 461.411 77.1185H442.86C440.657 77.1185 438.914 75.3756 438.914 73.1723V44.8874V44.883Z" fill="url(#paint13_linear_926_1619)"/>
<path d="M150.268 21.9301C148.731 21.0943 147.529 19.9413 146.657 18.4665C145.786 16.9917 145.348 15.3292 145.348 13.479C145.348 11.6288 145.786 9.9663 146.671 8.4915C147.551 7.0167 148.758 5.86368 150.295 5.02796C151.832 4.19224 153.553 3.77661 155.457 3.77661C157.003 3.77661 158.411 4.04476 159.689 4.58552C160.963 5.12628 162.044 5.90837 162.925 6.93179L160.659 9.05908C159.291 7.58428 157.611 6.84688 155.618 6.84688C154.322 6.84688 153.164 7.12843 152.141 7.696C151.117 8.26358 150.317 9.05014 149.741 10.0557C149.164 11.0612 148.878 12.2053 148.878 13.479C148.878 14.7527 149.164 15.8968 149.741 16.9023C150.317 17.9079 151.117 18.6944 152.141 19.262C153.164 19.8296 154.326 20.1111 155.618 20.1111C157.611 20.1111 159.291 19.3648 160.659 17.8721L162.925 20.0307C162.044 21.0541 160.963 21.8362 159.676 22.377C158.388 22.9177 156.976 23.1859 155.43 23.1859C153.526 23.1859 151.805 22.7703 150.268 21.9345V21.9301Z" fill="white"/>
<path d="M170.581 21.9301C169.035 21.0943 167.823 19.9368 166.943 18.4531C166.063 16.9694 165.62 15.3113 165.62 13.479C165.62 11.6467 166.058 9.98865 166.943 8.50491C167.823 7.02117 169.035 5.86368 170.581 5.02796C172.127 4.19224 173.861 3.77661 175.783 3.77661C177.705 3.77661 179.439 4.19224 180.985 5.02796C182.531 5.86368 183.742 7.0167 184.623 8.4915C185.503 9.9663 185.946 11.6288 185.946 13.479C185.946 15.3292 185.503 16.9917 184.623 18.4665C183.742 19.9413 182.527 21.0943 180.985 21.9301C179.439 22.7658 177.705 23.1814 175.783 23.1814C173.861 23.1814 172.127 22.7658 170.581 21.9301ZM179.179 19.262C180.185 18.6944 180.976 17.9034 181.552 16.8889C182.129 15.8744 182.415 14.7393 182.415 13.479C182.415 12.2187 182.129 11.0836 181.552 10.0691C180.976 9.05461 180.185 8.26358 179.179 7.696C178.174 7.12843 177.039 6.84688 175.783 6.84688C174.527 6.84688 173.392 7.12843 172.386 7.696C171.381 8.26358 170.59 9.05461 170.013 10.0691C169.437 11.0836 169.151 12.2232 169.151 13.479C169.151 14.7348 169.437 15.8744 170.013 16.8889C170.59 17.9034 171.381 18.6944 172.386 19.262C173.392 19.8296 174.523 20.1111 175.783 20.1111C177.043 20.1111 178.174 19.8296 179.179 19.262Z" fill="white"/>
<path d="M190.74 4.04468H198.99C201.001 4.04468 202.789 4.43349 204.353 5.21558C205.917 5.99767 207.128 7.10154 207.991 8.53165C208.853 9.96175 209.287 11.6108 209.287 13.4789C209.287 15.347 208.858 16.9961 207.991 18.4262C207.124 19.8563 205.917 20.9602 204.353 21.7423C202.789 22.5244 201.001 22.9132 198.99 22.9132H190.74V4.04468ZM198.825 19.9502C200.21 19.9502 201.426 19.6865 202.476 19.1547C203.526 18.6229 204.335 17.872 204.903 16.8888C205.47 15.9101 205.752 14.775 205.752 13.4789C205.752 12.1829 205.47 11.0477 204.903 10.069C204.335 9.09028 203.526 8.335 202.476 7.80318C201.426 7.27136 200.206 7.00769 198.825 7.00769H194.244V19.9457H198.825V19.9502Z" fill="white"/>
<path d="M228.236 19.9725V22.9087H214.082V4.04468H227.856V6.98087H217.586V11.8879H226.698V14.7705H217.586V19.9725H228.231H228.236Z" fill="white"/>
<path d="M249.991 4.04468V22.9132H247.109L236.705 10.136V22.9132H233.228V4.04468H236.11L246.514 16.8218V4.04468H249.991Z" fill="white"/>
<path d="M268.373 18.5469H258.939L257.08 22.9132H253.469L261.96 4.04468H265.41L273.928 22.9132H270.264L268.378 18.5469H268.373ZM267.216 15.7984L263.658 7.54844L260.128 15.7984H267.216Z" fill="white"/>
<path d="M294.736 22.9132L294.71 10.4042L288.511 20.7546H286.947L280.748 10.5651V22.9087H277.405V4.04468H280.288L287.783 16.5537L295.143 4.04468H298.026L298.052 22.9132H294.736Z" fill="white"/>
<path d="M318.373 19.9725V22.9087H304.22V4.04468H317.993V6.98087H307.724V11.8879H316.836V14.7705H307.724V19.9725H318.369H318.373Z" fill="white"/>
<path d="M109.188 107.951H115.454V110.32H109.188V107.951Z" fill="white"/>
<path d="M134.247 99.5222H137.21V112.961H145.545V115.468H134.247V99.5222Z" fill="white"/>
<path d="M152.306 100.809C151.957 100.483 151.783 100.076 151.783 99.5893C151.783 99.1022 151.957 98.6955 152.306 98.3693C152.655 98.043 153.088 97.8777 153.602 97.8777C154.116 97.8777 154.55 98.0341 154.903 98.3425C155.251 98.6553 155.426 99.0441 155.426 99.5134C155.426 100.014 155.256 100.434 154.912 100.778C154.572 101.118 154.134 101.292 153.602 101.292C153.07 101.292 152.655 101.131 152.306 100.8V100.809ZM152.168 103.303H155.014V115.468H152.168V103.303Z" fill="white"/>
<path d="M174.696 103.303L169.481 115.468H166.545L161.329 103.303H164.292L168.073 112.322L171.97 103.303H174.705H174.696Z" fill="white"/>
<path d="M192.076 110.297H182.53C182.696 111.191 183.134 111.902 183.84 112.425C184.546 112.947 185.422 113.211 186.472 113.211C187.808 113.211 188.908 112.769 189.775 111.888L191.303 113.64C190.758 114.293 190.065 114.789 189.23 115.119C188.394 115.455 187.451 115.62 186.405 115.62C185.069 115.62 183.893 115.356 182.875 114.824C181.856 114.293 181.069 113.551 180.515 112.603C179.961 111.656 179.684 110.579 179.684 109.381C179.684 108.183 179.952 107.129 180.492 106.181C181.033 105.234 181.78 104.492 182.736 103.96C183.692 103.428 184.769 103.165 185.972 103.165C187.174 103.165 188.215 103.428 189.149 103.951C190.083 104.474 190.812 105.211 191.335 106.159C191.857 107.106 192.121 108.206 192.121 109.453C192.121 109.649 192.108 109.931 192.076 110.297ZM183.661 106.253C183.031 106.793 182.647 107.509 182.513 108.407H189.413C189.292 107.526 188.921 106.811 188.296 106.266C187.674 105.721 186.897 105.448 185.972 105.448C185.047 105.448 184.291 105.716 183.661 106.257V106.253Z" fill="white"/>
<path d="M213.546 114.637C212.245 113.93 211.231 112.956 210.494 111.709C209.756 110.462 209.39 109.059 209.39 107.495C209.39 105.931 209.761 104.528 210.507 103.281C211.249 102.034 212.272 101.059 213.568 100.353C214.864 99.6473 216.321 99.2942 217.93 99.2942C219.235 99.2942 220.428 99.5221 221.505 99.978C222.582 100.434 223.494 101.095 224.24 101.958L222.328 103.759C221.175 102.512 219.753 101.891 218.069 101.891C216.974 101.891 215.995 102.132 215.132 102.61C214.265 103.088 213.591 103.754 213.103 104.603C212.616 105.453 212.375 106.418 212.375 107.495C212.375 108.572 212.616 109.537 213.103 110.386C213.591 111.236 214.265 111.902 215.132 112.38C215.999 112.858 216.978 113.099 218.069 113.099C219.753 113.099 221.175 112.469 222.328 111.209L224.24 113.032C223.494 113.899 222.582 114.556 221.496 115.012C220.41 115.468 219.213 115.696 217.908 115.696C216.299 115.696 214.842 115.343 213.546 114.637Z" fill="white"/>
<path d="M242.305 110.297H232.759C232.924 111.191 233.362 111.902 234.068 112.425C234.774 112.947 235.65 113.211 236.701 113.211C238.037 113.211 239.136 112.769 240.003 111.888L241.532 113.64C240.987 114.293 240.294 114.789 239.458 115.119C238.622 115.455 237.679 115.62 236.634 115.62C235.297 115.62 234.122 115.356 233.103 114.824C232.084 114.293 231.298 113.551 230.743 112.603C230.189 111.656 229.912 110.579 229.912 109.381C229.912 108.183 230.18 107.129 230.721 106.181C231.262 105.234 232.008 104.492 232.965 103.96C233.921 103.428 234.998 103.165 236.2 103.165C237.402 103.165 238.444 103.428 239.378 103.951C240.312 104.474 241.04 105.211 241.563 106.159C242.086 107.106 242.35 108.206 242.35 109.453C242.35 109.649 242.336 109.931 242.305 110.297ZM233.89 106.253C233.259 106.793 232.875 107.509 232.741 108.407H239.641C239.521 107.526 239.15 106.811 238.524 106.266C237.903 105.721 237.125 105.448 236.2 105.448C235.275 105.448 234.52 105.716 233.89 106.257V106.253Z" fill="white"/>
<path d="M260.229 104.51C261.155 105.404 261.619 106.736 261.619 108.496V115.468H258.773V108.863C258.773 107.799 258.522 106.999 258.022 106.458C257.521 105.918 256.806 105.65 255.881 105.65C254.835 105.65 254.004 105.967 253.396 106.597C252.788 107.227 252.485 108.134 252.485 109.319V115.468H249.638V103.303H252.346V104.876C252.815 104.313 253.41 103.889 254.125 103.603C254.84 103.317 255.644 103.169 256.538 103.169C258.071 103.169 259.3 103.616 260.229 104.514V104.51Z" fill="white"/>
<path d="M277.106 114.807C276.77 115.079 276.364 115.285 275.886 115.423C275.407 115.562 274.902 115.629 274.371 115.629C273.034 115.629 272.002 115.28 271.273 114.583C270.545 113.886 270.178 112.867 270.178 111.531V105.676H268.172V103.397H270.178V100.617H273.025V103.397H276.283V105.676H273.025V111.464C273.025 112.058 273.168 112.509 273.459 112.818C273.749 113.126 274.165 113.283 274.71 113.283C275.349 113.283 275.881 113.117 276.306 112.782L277.101 114.811L277.106 114.807Z" fill="white"/>
<path d="M291.049 103.165V105.877C290.807 105.833 290.584 105.81 290.387 105.81C289.279 105.81 288.412 106.132 287.791 106.78C287.169 107.424 286.857 108.358 286.857 109.569V115.468H284.01V103.303H286.718V105.082C287.536 103.808 288.979 103.169 291.044 103.169L291.049 103.165Z" fill="white"/>
<path d="M309.291 110.297H299.745C299.911 111.191 300.349 111.902 301.055 112.425C301.761 112.947 302.637 113.211 303.687 113.211C305.023 113.211 306.123 112.769 306.99 111.888L308.518 113.64C307.973 114.293 307.28 114.789 306.444 115.119C305.609 115.455 304.666 115.62 303.62 115.62C302.284 115.62 301.108 115.356 300.089 114.824C299.07 114.293 298.284 113.551 297.73 112.603C297.176 111.656 296.898 110.579 296.898 109.381C296.898 108.183 297.167 107.129 297.707 106.181C298.248 105.234 298.994 104.492 299.951 103.96C300.907 103.428 301.984 103.165 303.186 103.165C304.389 103.165 305.43 103.428 306.364 103.951C307.298 104.474 308.026 105.211 308.549 106.159C309.072 107.106 309.336 108.206 309.336 109.453C309.336 109.649 309.323 109.931 309.291 110.297ZM300.876 106.253C300.246 106.793 299.861 107.509 299.727 108.407H306.628C306.507 107.526 306.136 106.811 305.51 106.266C304.889 105.721 304.112 105.448 303.186 105.448C302.261 105.448 301.506 105.716 300.876 106.257V106.253Z" fill="white"/>
<path d="M328.541 98.5659V115.468H325.806V113.895C325.336 114.471 324.755 114.905 324.063 115.195C323.37 115.481 322.61 115.629 321.774 115.629C320.604 115.629 319.553 115.37 318.619 114.856C317.685 114.337 316.952 113.609 316.421 112.657C315.889 111.71 315.625 110.619 315.625 109.39C315.625 108.161 315.889 107.075 316.421 106.132C316.952 105.189 317.685 104.461 318.619 103.947C319.553 103.433 320.604 103.174 321.774 103.174C322.579 103.174 323.316 103.312 323.982 103.585C324.653 103.857 325.22 104.268 325.689 104.814V98.5704H328.536L328.541 98.5659ZM323.96 112.724C324.505 112.411 324.939 111.969 325.26 111.392C325.582 110.816 325.739 110.145 325.739 109.386C325.739 108.626 325.578 107.96 325.26 107.379C324.943 106.802 324.51 106.356 323.96 106.047C323.415 105.734 322.798 105.582 322.114 105.582C321.43 105.582 320.814 105.739 320.268 106.047C319.723 106.36 319.29 106.802 318.968 107.379C318.651 107.955 318.49 108.626 318.49 109.386C318.49 110.145 318.651 110.811 318.968 111.392C319.285 111.969 319.719 112.416 320.268 112.724C320.814 113.037 321.43 113.189 322.114 113.189C322.798 113.189 323.415 113.032 323.96 112.724Z" fill="white"/>
<path d="M347.06 107.951H353.325V110.32H347.06V107.951Z" fill="white"/>
</g>
<defs>
<linearGradient id="paint0_linear_926_1619" x1="-0.602764" y1="59.3584" x2="457.783" y2="56.668" gradientUnits="userSpaceOnUse">
<stop stop-color="#D49547"/>
<stop offset="0.22" stop-color="#8C5928"/>
<stop offset="0.41" stop-color="#B87D3B"/>
<stop offset="0.52" stop-color="#D49547"/>
<stop offset="0.76" stop-color="#E6B981"/>
<stop offset="0.95" stop-color="#D89D54"/>
<stop offset="1" stop-color="#D49547"/>
</linearGradient>
<linearGradient id="paint1_linear_926_1619" x1="-0.602945" y1="59.363" x2="457.783" y2="56.6726" gradientUnits="userSpaceOnUse">
<stop stop-color="#D49547"/>
<stop offset="0.22" stop-color="#8C5928"/>
<stop offset="0.41" stop-color="#B87D3B"/>
<stop offset="0.52" stop-color="#D49547"/>
<stop offset="0.76" stop-color="#E6B981"/>
<stop offset="0.95" stop-color="#D89D54"/>
<stop offset="1" stop-color="#D49547"/>
</linearGradient>
<linearGradient id="paint2_linear_926_1619" x1="-0.598153" y1="59.6802" x2="457.788" y2="56.9898" gradientUnits="userSpaceOnUse">
<stop stop-color="#D49547"/>
<stop offset="0.22" stop-color="#8C5928"/>
<stop offset="0.41" stop-color="#B87D3B"/>
<stop offset="0.52" stop-color="#D49547"/>
<stop offset="0.76" stop-color="#E6B981"/>
<stop offset="0.95" stop-color="#D89D54"/>
<stop offset="1" stop-color="#D49547"/>
</linearGradient>
<linearGradient id="paint3_linear_926_1619" x1="-0.59839" y1="59.9931" x2="457.787" y2="57.3027" gradientUnits="userSpaceOnUse">
<stop stop-color="#D49547"/>
<stop offset="0.22" stop-color="#8C5928"/>
<stop offset="0.41" stop-color="#B87D3B"/>
<stop offset="0.52" stop-color="#D49547"/>
<stop offset="0.76" stop-color="#E6B981"/>
<stop offset="0.95" stop-color="#D89D54"/>
<stop offset="1" stop-color="#D49547"/>
</linearGradient>
<linearGradient id="paint4_linear_926_1619" x1="-0.598004" y1="60.1094" x2="457.788" y2="57.4235" gradientUnits="userSpaceOnUse">
<stop stop-color="#D49547"/>
<stop offset="0.22" stop-color="#8C5928"/>
<stop offset="0.41" stop-color="#B87D3B"/>
<stop offset="0.52" stop-color="#D49547"/>
<stop offset="0.76" stop-color="#E6B981"/>
<stop offset="0.95" stop-color="#D89D54"/>
<stop offset="1" stop-color="#D49547"/>
</linearGradient>
<linearGradient id="paint5_linear_926_1619" x1="-0.593645" y1="60.1494" x2="457.788" y2="57.459" gradientUnits="userSpaceOnUse">
<stop stop-color="#D49547"/>
<stop offset="0.22" stop-color="#8C5928"/>
<stop offset="0.41" stop-color="#B87D3B"/>
<stop offset="0.52" stop-color="#D49547"/>
<stop offset="0.76" stop-color="#E6B981"/>
<stop offset="0.95" stop-color="#D89D54"/>
<stop offset="1" stop-color="#D49547"/>
</linearGradient>
<linearGradient id="paint6_linear_926_1619" x1="-0.594506" y1="60.5876" x2="457.791" y2="57.8972" gradientUnits="userSpaceOnUse">
<stop stop-color="#D49547"/>
<stop offset="0.22" stop-color="#8C5928"/>
<stop offset="0.41" stop-color="#B87D3B"/>
<stop offset="0.52" stop-color="#D49547"/>
<stop offset="0.76" stop-color="#E6B981"/>
<stop offset="0.95" stop-color="#D89D54"/>
<stop offset="1" stop-color="#D49547"/>
</linearGradient>
<linearGradient id="paint7_linear_926_1619" x1="-0.593574" y1="60.5874" x2="457.792" y2="57.9015" gradientUnits="userSpaceOnUse">
<stop stop-color="#D49547"/>
<stop offset="0.22" stop-color="#8C5928"/>
<stop offset="0.41" stop-color="#B87D3B"/>
<stop offset="0.52" stop-color="#D49547"/>
<stop offset="0.76" stop-color="#E6B981"/>
<stop offset="0.95" stop-color="#D89D54"/>
<stop offset="1" stop-color="#D49547"/>
</linearGradient>
<linearGradient id="paint8_linear_926_1619" x1="-0.593895" y1="60.7887" x2="457.792" y2="58.0983" gradientUnits="userSpaceOnUse">
<stop stop-color="#D49547"/>
<stop offset="0.22" stop-color="#8C5928"/>
<stop offset="0.41" stop-color="#B87D3B"/>
<stop offset="0.52" stop-color="#D49547"/>
<stop offset="0.76" stop-color="#E6B981"/>
<stop offset="0.95" stop-color="#D89D54"/>
<stop offset="1" stop-color="#D49547"/>
</linearGradient>
<linearGradient id="paint9_linear_926_1619" x1="-0.589018" y1="60.9941" x2="457.792" y2="58.3037" gradientUnits="userSpaceOnUse">
<stop stop-color="#D49547"/>
<stop offset="0.22" stop-color="#8C5928"/>
<stop offset="0.41" stop-color="#B87D3B"/>
<stop offset="0.52" stop-color="#D49547"/>
<stop offset="0.76" stop-color="#E6B981"/>
<stop offset="0.95" stop-color="#D89D54"/>
<stop offset="1" stop-color="#D49547"/>
</linearGradient>
<linearGradient id="paint10_linear_926_1619" x1="-0.590245" y1="61.325" x2="457.795" y2="58.6346" gradientUnits="userSpaceOnUse">
<stop stop-color="#D49547"/>
<stop offset="0.22" stop-color="#8C5928"/>
<stop offset="0.41" stop-color="#B87D3B"/>
<stop offset="0.52" stop-color="#D49547"/>
<stop offset="0.76" stop-color="#E6B981"/>
<stop offset="0.95" stop-color="#D89D54"/>
<stop offset="1" stop-color="#D49547"/>
</linearGradient>
<linearGradient id="paint11_linear_926_1619" x1="-0.589201" y1="61.5617" x2="457.797" y2="58.8713" gradientUnits="userSpaceOnUse">
<stop stop-color="#D49547"/>
<stop offset="0.22" stop-color="#8C5928"/>
<stop offset="0.41" stop-color="#B87D3B"/>
<stop offset="0.52" stop-color="#D49547"/>
<stop offset="0.76" stop-color="#E6B981"/>
<stop offset="0.95" stop-color="#D89D54"/>
<stop offset="1" stop-color="#D49547"/>
</linearGradient>
<linearGradient id="paint12_linear_926_1619" x1="-0.590234" y1="61.535" x2="457.796" y2="58.8446" gradientUnits="userSpaceOnUse">
<stop stop-color="#D49547"/>
<stop offset="0.22" stop-color="#8C5928"/>
<stop offset="0.41" stop-color="#B87D3B"/>
<stop offset="0.52" stop-color="#D49547"/>
<stop offset="0.76" stop-color="#E6B981"/>
<stop offset="0.95" stop-color="#D89D54"/>
<stop offset="1" stop-color="#D49547"/>
</linearGradient>
<linearGradient id="paint13_linear_926_1619" x1="-0.585261" y1="61.6778" x2="457.796" y2="58.9919" gradientUnits="userSpaceOnUse">
<stop stop-color="#D49547"/>
<stop offset="0.22" stop-color="#8C5928"/>
<stop offset="0.41" stop-color="#B87D3B"/>
<stop offset="0.52" stop-color="#D49547"/>
<stop offset="0.76" stop-color="#E6B981"/>
<stop offset="0.95" stop-color="#D89D54"/>
<stop offset="1" stop-color="#D49547"/>
</linearGradient>
<clipPath id="clip0_926_1619">
<rect width="465" height="121.501" fill="white"/>
</clipPath>
</defs>
</svg>
