<?xml version="1.0" encoding="UTF-8"?>
<svg xmlns="http://www.w3.org/2000/svg" xmlns:xlink="http://www.w3.org/1999/xlink" viewBox="0 0 671.49 534.77">
  <defs>
    <style>
      .cls-1 {
        fill: url(#linear-gradient-2);
      }

      .cls-2 {
        fill: #d39f64;
      }

      .cls-3, .cls-4, .cls-5 {
        fill: #fff;
      }

      .cls-6 {
        fill: url(#linear-gradient-17);
      }

      .cls-7 {
        fill: url(#linear-gradient-15);
      }

      .cls-4, .cls-8, .cls-9 {
        fill-rule: evenodd;
      }

      .cls-10, .cls-11, .cls-12, .cls-13, .cls-14, .cls-15 {
        fill: none;
      }

      .cls-10, .cls-16 {
        mix-blend-mode: multiply;
      }

      .cls-17 {
        fill: url(#linear-gradient-18);
      }

      .cls-18 {
        fill: url(#linear-gradient-14);
      }

      .cls-19 {
        fill: url(#linear-gradient-20);
      }

      .cls-20 {
        fill: url(#linear-gradient-6);
      }

      .cls-21 {
        isolation: isolate;
      }

      .cls-11 {
        stroke-dasharray: 0 0 .41 2.58;
        stroke-width: 2.06px;
      }

      .cls-11, .cls-5, .cls-12, .cls-13, .cls-15 {
        stroke: #fff;
        stroke-miterlimit: 10;
      }

      .cls-5, .cls-13 {
        stroke-width: 3.09px;
      }

      .cls-22 {
        fill: url(#linear-gradient-11);
      }

      .cls-23 {
        fill: url(#linear-gradient-10);
      }

      .cls-24 {
        fill: #097;
      }

      .cls-8, .cls-25 {
        fill: #010101;
      }

      .cls-26 {
        fill: url(#linear-gradient-16);
      }

      .cls-27 {
        opacity: .75;
      }

      .cls-28 {
        opacity: .3;
      }

      .cls-29 {
        fill: url(#linear-gradient-21);
      }

      .cls-30 {
        fill: url(#linear-gradient-5);
      }

      .cls-9, .cls-31 {
        fill: #21b59a;
      }

      .cls-12 {
        stroke-width: 1.03px;
      }

      .cls-32 {
        fill: url(#linear-gradient-7);
      }

      .cls-33 {
        fill: url(#linear-gradient-9);
      }

      .cls-34 {
        fill: url(#linear-gradient-22);
      }

      .cls-35 {
        fill: url(#linear-gradient-3);
      }

      .cls-14 {
        stroke: #414042;
        stroke-dasharray: 0 0 0 2.58;
        stroke-linecap: round;
        stroke-linejoin: round;
        stroke-width: .69px;
      }

      .cls-36 {
        fill: url(#linear-gradient);
      }

      .cls-15 {
        stroke-width: .52px;
      }

      .cls-37 {
        fill: url(#linear-gradient-23);
      }

      .cls-38 {
        fill: url(#linear-gradient-19);
      }

      .cls-39 {
        fill: url(#linear-gradient-4);
      }

      .cls-40 {
        fill: url(#linear-gradient-8);
      }

      .cls-41 {
        fill: url(#linear-gradient-12);
      }

      .cls-42 {
        fill: url(#linear-gradient-13);
      }

      .cls-16 {
        fill: #e6f4f4;
      }

      .cls-43 {
        fill: #414042;
      }
    </style>
    <linearGradient id="linear-gradient" x1="423.37" y1="294.5" x2="443.3" y2="294.5" gradientUnits="userSpaceOnUse">
      <stop offset="0" stop-color="#b49166"/>
      <stop offset=".5" stop-color="#d2a777"/>
      <stop offset="1" stop-color="#b49166"/>
    </linearGradient>
    <linearGradient id="linear-gradient-2" x1="416.44" y1="320.04" x2="431.78" y2="342.23" xlink:href="#linear-gradient"/>
    <linearGradient id="linear-gradient-3" x1="419.1" y1="318.2" x2="434.45" y2="340.39" xlink:href="#linear-gradient"/>
    <linearGradient id="linear-gradient-4" x1="423.54" y1="315.13" x2="438.88" y2="337.32" xlink:href="#linear-gradient"/>
    <linearGradient id="linear-gradient-5" x1="427.83" y1="312.17" x2="443.17" y2="334.35" xlink:href="#linear-gradient"/>
    <linearGradient id="linear-gradient-6" x1="430.72" y1="310.17" x2="446.06" y2="332.35" xlink:href="#linear-gradient"/>
    <linearGradient id="linear-gradient-7" x1="433.02" y1="308.57" x2="448.37" y2="330.76" xlink:href="#linear-gradient"/>
    <linearGradient id="linear-gradient-8" x1="411.9" y1="323.18" x2="427.25" y2="345.37" xlink:href="#linear-gradient"/>
    <linearGradient id="linear-gradient-9" x1="415.19" y1="320.91" x2="430.54" y2="343.09" xlink:href="#linear-gradient"/>
    <linearGradient id="linear-gradient-10" x1="411.92" y1="323.17" x2="427.26" y2="345.36" xlink:href="#linear-gradient"/>
    <linearGradient id="linear-gradient-11" x1="418.66" y1="318.51" x2="434" y2="340.7" xlink:href="#linear-gradient"/>
    <linearGradient id="linear-gradient-12" x1="422.7" y1="315.71" x2="438.05" y2="337.9" xlink:href="#linear-gradient"/>
    <linearGradient id="linear-gradient-13" x1="425.38" y1="313.86" x2="440.72" y2="336.05" xlink:href="#linear-gradient"/>
    <linearGradient id="linear-gradient-14" x1="428.48" y1="311.72" x2="443.82" y2="333.9" xlink:href="#linear-gradient"/>
    <linearGradient id="linear-gradient-15" x1="431.75" y1="309.45" x2="447.1" y2="331.64" xlink:href="#linear-gradient"/>
    <linearGradient id="linear-gradient-16" x1="421.52" y1="316.53" x2="436.87" y2="338.71" xlink:href="#linear-gradient"/>
    <linearGradient id="linear-gradient-17" x1="423.26" y1="315.33" x2="438.6" y2="337.51" xlink:href="#linear-gradient"/>
    <linearGradient id="linear-gradient-18" x1="425.13" y1="314.03" x2="440.47" y2="336.22" xlink:href="#linear-gradient"/>
    <linearGradient id="linear-gradient-19" x1="427.09" y1="312.67" x2="442.44" y2="334.86" xlink:href="#linear-gradient"/>
    <linearGradient id="linear-gradient-20" x1="428.84" y1="311.46" x2="444.19" y2="333.65" xlink:href="#linear-gradient"/>
    <linearGradient id="linear-gradient-21" x1="430.36" y1="310.41" x2="445.7" y2="332.6" xlink:href="#linear-gradient"/>
    <linearGradient id="linear-gradient-22" x1="432.76" y1="308.75" x2="448.1" y2="330.94" xlink:href="#linear-gradient"/>
    <linearGradient id="linear-gradient-23" x1="434.74" y1="307.38" x2="450.09" y2="329.57" xlink:href="#linear-gradient"/>
  </defs>
  <g class="cls-21">
    <g id="Layer_1" data-name="Layer 1">
      <g class="cls-27">
        <circle class="cls-16" cx="435.23" cy="298.5" r="236.27"/>
        <circle class="cls-16" cx="435.23" cy="298.5" r="178.79"/>
        <circle class="cls-16" cx="435.23" cy="298.5" r="127.69"/>
        <circle class="cls-16" cx="435.23" cy="298.5" r="83.78" transform="translate(-83.6 395.18) rotate(-45)"/>
        <circle class="cls-16" cx="435.23" cy="298.5" r="39.72" transform="translate(-81.1 189.28) rotate(-22.5)"/>
      </g>
      <g>
        <path class="cls-10" d="M543.18,225.91c-.8-2.31-9.79,1.35-18.79,13.46-8.99,12.11-13.97,10.04-26.65,10.09-12.68,.05-15,15.11-11.97,21.11,3.03,6-8.11,10.81-12.81,13.58-4.69,2.77-1.56,11.75-5.9,15.25-4.35,3.5-4.36-2.79-12.29,2.63-7.93,5.41-23.17,3.46-26.29-8.21-3.12-11.67-9.17-17.43-15.68-20.22-6.51-2.79-42.94-44.48-45.82-51.3-2.88-6.82,26.78-18.05,37.42-17.61,10.39,.43,48.73,25.72,27.36,9.65-25.4-19.1-35.25-15.32-68.96,.7-34.57,16.43-44.52,8.51-47.78-3.45-3.26-11.97-18.76-22.43,4.85-12.28,23.61,10.15,46.31-20.46,29.26-10.43-17.05,10.02-44.5,1.25-30.79,.46,13.71-.79,25.58-14.06,37.79-26.03,12.21-11.97,32.92-9.03,40.36-7.46,7.44,1.57,1.51,14.04,3.61,15.73,4.82,3.88,10.57-20.86-3.61-20.54-9.97,.22-36.76,3.65-27.17-5.96,9.59-9.6,33.93-23.7,33.93-23.7l17.51-28.98-23.43-7.97-5.71,9.72-14.65,27.7c-6.94,13.25-27.22,51.52-47.63,55.09-20.41,3.57-53.38,11.9-64.17,23.8-10.78,11.9,1.12,23.55-6.77,23.18-7.88-.37-20.79,4.88-27.78,9.01-27.58,16.31-54.25,8.5-63.92,6.44-9.14-1.95-19.38-18.64-13.29-41.14,10.55-38.99-6.09-76.38-6.09-76.38L54,0,0,82.95l27.99,240.75,35.42,3.3s22.24,23.9,41.25,12.08c19.01-11.82,40.32-8.1,48.03-15.16,7.71-7.06,10.56-15.09,17.77-17.05,7.21-1.96,20.29,1.8,23.3-11.32,3.01-13.12,8.87-34.09,22.27-24.09,13.4,10,12.46,3.64,12.46,3.64-3.2-27.14,18.94-42.22,34.32-44.46,15.38-2.24,11.11,14.12,26.98,20.91,15.87,6.79,13.35,8.15,17.38,10.8,4.03,2.66,1.75,7.14,4.82,10.35,3.08,3.21,2.86-1.53,3.07,12.62,.2,14.15,7.45,14.76,10.14,20.46,2.69,5.7-18.21,18.95-4.08,10.35,14.13-8.59-2.85-18.5-1.61-28.67,1.23-10.18-1.12-12.67-4.65-16.29-3.53-3.62,1.77-10.51-3.21-10.79-4.98-.27-7.33-2.06-4.64-4.3,2.69-2.24,8.73-10.64,14.11-16.71,5.38-6.07,19.27-5.37,33.65-7.98,14.39-2.61,37.75,29,44.96,36.5,7.21,7.51,5.2,13.79,9.54,15.47,4.34,1.68,12.36-3.32,13.1,4.34,.74,7.66,6.33,13.89,11.31,16.18,4.98,2.29,7.46,13.19,8.97,9.43,1.52-3.76,6.59-7.12,13.75-7.7,7.17-.58,14.04-4.34,15.38-10.92,1.34-6.58,4.06-12.15,13.11-14.69,9.05-2.54,.87-9.44,2.09-17.61,1.21-8.18,7.55-8.96,13.33-10.11s3.37,2.76,11.55,2.76,12.64-12.92,18.32-19.75c5.68-6.83,13.81-7.07,13.01-9.38Zm-161.53-104.82l15.48-26.07,15.67,1.58-16.31,24.73c-34.46,28.52-14.84-.24-14.84-.24Zm-80.52,130.19c-12.93-2.27-17.69-13.17-20.19-17.03-2.5-3.86-6.94-2.93-7.39-6.51-.6-4.81,1.09-18.39,11.62-24.45,10.53-6.06,21.9-5.85,24.06,8.02,2.15,13.87,6.19,18.23,8.19,19.71,2,1.49-3.35,22.52-16.28,20.25Z"/>
        <g class="cls-28">
          <polyline class="cls-13" points="158.32 33.6 228.61 139.36 228.61 221.14 248.81 260.54 248.81 353.32 200.9 444.34"/>
          <polyline class="cls-12" points="248.81 353.32 256.8 339.19 330.6 339.19 362.32 294.08 376.97 294.08 477.74 336.72 498.84 327.77"/>
          <polyline class="cls-12" points="579.18 353.99 533.4 353.99 477.72 310.41 458.04 310.41 451.05 299.4 450.01 266.96 426.74 241.52 426.74 36.66"/>
          <line class="cls-12" x1="489.76" y1="331.62" x2="489.76" y2="445.97"/>
          <line class="cls-12" x1="426.74" y1="194.11" x2="376.97" y2="294.08"/>
          <polyline class="cls-13" points="228.61 162.03 241.36 162.03 261.91 182.58 282 182.58 347.12 137.44 426.74 194.11 480.41 231.6 578.09 349.87"/>
          <polyline class="cls-12" points="290.38 339.19 317.04 299.47 344.08 299.47 359.75 280.05 383.88 280.2 422.78 297.26 443.27 273.16 458.59 273.16 458.59 298.72 451.05 298.72"/>
          <polyline class="cls-12" points="317.04 299.47 317.04 299.47 279.57 248.98 242.88 248.98"/>
          <line class="cls-15" x1="185.82" y1="447.69" x2="4.5" y2="99.83"/>
          <g>
            <line class="cls-15" x1="71.44" y1="228.26" x2="71.44" y2="244.92"/>
            <line class="cls-15" x1="86.66" y1="257.45" x2="86.66" y2="274.11"/>
            <line class="cls-15" x1="40.64" y1="169.16" x2="40.64" y2="185.82"/>
            <line class="cls-15" x1="55.85" y1="198.35" x2="55.85" y2="215.01"/>
            <line class="cls-15" x1="103.11" y1="289.01" x2="103.11" y2="305.67"/>
            <line class="cls-15" x1="118.32" y1="318.2" x2="118.32" y2="334.86"/>
          </g>
          <circle class="cls-5" cx="427.25" cy="193.71" r="6.1" transform="translate(-11.84 358.85) rotate(-45)"/>
        </g>
        <g class="cls-28">
          <line class="cls-15" x1="448.29" y1="252.5" x2="448.29" y2="36.66"/>
          <polyline class="cls-15" points="84.95 30.21 224.28 215.95 310.96 153.93 448.29 252.5 585.02 415.88"/>
          <polyline class="cls-11" points="84.95 30.21 224.28 215.95 310.96 153.93 448.29 252.5 585.02 415.88"/>
          <line class="cls-11" x1="448.29" y1="252.5" x2="448.29" y2="36.66"/>
        </g>
        <g>
          <g>
            <polyline class="cls-14" points="529.45 276.65 435.24 294.5 373.39 265.84"/>
            <polyline class="cls-14" points="448.29 252.5 435.24 294.5 448.84 151.73"/>
            <line class="cls-14" x1="435.24" y1="294.5" x2="498.54" y2="338.54"/>
          </g>
          <g>
            <polygon class="cls-8" points="445.92 155.14 446.25 155.14 445.86 156.33 445.22 156.33 445.92 155.14"/>
            <path class="cls-8" d="M446.18,153.96c-.33,0-.59-.27-.59-.59s.27-.59,.59-.59,.59,.27,.59,.59-.27,.59-.59,.59Z"/>
            <polygon class="cls-8" points="446.88 155.14 447.37 155.14 447.37 156.33 446.48 156.33 446.88 155.14"/>
            <path class="cls-8" d="M447.96,151.11c0,.26-.21,.47-.47,.47h-2.14c-.19,0-.35-.16-.35-.35v-1.68c0-.19,.15-.34,.34-.34h2.15c.26,0,.47,.21,.47,.47v1.43Z"/>
            <rect class="cls-25" x="447.96" y="155.14" width=".59" height="1.19"/>
            <polygon class="cls-8" points="449.62 155.14 450.13 156.33 449.15 156.33 449.15 155.14 449.62 155.14"/>
            <path class="cls-8" d="M450.33,153.95c-.33,0-.59-.27-.59-.59s.27-.59,.59-.59,.59,.27,.59,.59-.27,.59-.59,.59Z"/>
            <polygon class="cls-8" points="450.77 155.14 451.4 156.33 450.78 156.33 450.27 155.14 450.77 155.14"/>
            <path class="cls-8" d="M451.52,151.24c0,.19-.15,.34-.34,.34h-2.15c-.26,0-.47-.21-.47-.47v-1.43c0-.26,.21-.47,.47-.47h2.03c.26,0,.47,.21,.47,.47v1.56Z"/>
            <path class="cls-8" d="M443.52,146.48v11.39h9.64v-11.39h-9.64Zm8.62,10.29c-.05,.09-.15,.14-.26,.14h-7.19c-.11,0-.2-.06-.26-.15-.05-.09-.05-.21,0-.3l.79-1.33h-.14c-.38,0-.69-.31-.69-.69v-6.33c0-.38,.31-.69,.69-.69h6.33c.38,0,.69,.31,.69,.69v6.33c0,.38-.3,.68-.68,.69l.71,1.35c.05,.09,.05,.2,0,.29Z"/>
            <path class="cls-9" d="M450.77,155.14h-.5l.51,1.19h.62l-.63-1.19Zm-1.15,0h-.47v1.19h.99l-.51-1.19Zm-1.66,0v1.19h.59v-1.19h-.59Zm-1.08,0l-.4,1.19h.88v-1.19h-.49Zm-.96,0l-.7,1.19h.64l.4-1.19h-.34Zm.26-2.37c-.33,0-.59,.27-.59,.59s.27,.59,.59,.59,.59-.27,.59-.59-.27-.59-.59-.59Zm4.15,0c-.33,0-.59,.27-.59,.59s.27,.59,.59,.59,.59-.27,.59-.59-.27-.59-.59-.59Zm.72-3.55h-2.03c-.26,0-.47,.21-.47,.47v1.43c0,.26,.21,.47,.47,.47h2.15c.19,0,.34-.15,.34-.34v-1.56c0-.26-.21-.47-.47-.47Zm-3.56,0h-2.15c-.19,0-.34,.15-.34,.34v1.68c0,.19,.16,.35,.35,.35h2.14c.26,0,.47-.21,.47-.47v-1.43c0-.26-.21-.47-.47-.47Zm3.56,0h-2.03c-.26,0-.47,.21-.47,.47v1.43c0,.26,.21,.47,.47,.47h2.15c.19,0,.34-.15,.34-.34v-1.56c0-.26-.21-.47-.47-.47Zm-.78,5.93l.51,1.19h.62l-.63-1.19h-.5Zm.66-1.78c0-.33-.27-.59-.59-.59s-.59,.27-.59,.59,.27,.59,.59,.59,.59-.27,.59-.59Zm-1.78,1.78v1.19h.99l-.51-1.19h-.47Zm-1.19,1.19h.59v-1.19h-.59v1.19Zm0-6.65c0-.26-.21-.47-.47-.47h-2.15c-.19,0-.34,.15-.34,.34v1.68c0,.19,.16,.35,.35,.35h2.14c.26,0,.47-.21,.47-.47v-1.43Zm-1.48,6.65h.88v-1.19h-.49l-.4,1.19Zm.29-2.97c0-.33-.27-.59-.59-.59s-.59,.27-.59,.59,.27,.59,.59,.59,.59-.27,.59-.59Zm-1.56,2.97h.64l.4-1.19h-.34l-.7,1.19Zm10.27-8.3c-.73-1.26-1.78-2.31-3.04-3.04-1.26-.73-2.69-1.11-4.15-1.11-2.2,0-4.31,.87-5.87,2.43s-2.43,3.67-2.43,5.87,.87,4.31,2.43,5.87,3.67,2.43,5.87,2.43,4.31-.87,5.87-2.43c1.56-1.56,2.43-3.67,2.43-5.87,0-1.46-.38-2.89-1.11-4.15Zm-3.34,8.75c-.05,.09-.15,.14-.26,.14h-7.19c-.11,0-.2-.06-.26-.15-.05-.09-.05-.21,0-.3l.79-1.33h-.14c-.38,0-.69-.31-.69-.69v-6.33c0-.38,.31-.69,.69-.69h6.33c.38,0,.69,.31,.69,.69v6.33c0,.38-.3,.68-.68,.69l.71,1.35c.05,.09,.05,.2,0,.29Zm-.63-7.1c0-.26-.21-.47-.47-.47h-2.03c-.26,0-.47,.21-.47,.47v1.43c0,.26,.21,.47,.47,.47h2.15c.19,0,.34-.15,.34-.34v-1.56Zm-1.25,5.46l.51,1.19h.62l-.63-1.19h-.5Zm.66-1.78c0-.33-.27-.59-.59-.59s-.59,.27-.59,.59,.27,.59,.59,.59,.59-.27,.59-.59Zm-1.78,1.78v1.19h.99l-.51-1.19h-.47Zm-1.19,1.19h.59v-1.19h-.59v1.19Zm0-6.65c0-.26-.21-.47-.47-.47h-2.15c-.19,0-.34,.15-.34,.34v1.68c0,.19,.16,.35,.35,.35h2.14c.26,0,.47-.21,.47-.47v-1.43Zm-1.48,6.65h.88v-1.19h-.49l-.4,1.19Zm.29-2.97c0-.33-.27-.59-.59-.59s-.59,.27-.59,.59,.27,.59,.59,.59,.59-.27,.59-.59Zm-1.56,2.97h.64l.4-1.19h-.34l-.7,1.19Z"/>
            <path class="cls-4" d="M452.15,156.49l-.71-1.35c.37,0,.68-.31,.68-.69v-6.33c0-.38-.31-.69-.69-.69h-6.33c-.38,0-.69,.31-.69,.69v6.33c0,.38,.31,.69,.69,.69h.14l-.79,1.33c-.05,.09-.06,.21,0,.3,.05,.09,.15,.15,.26,.15h7.19c.1,0,.2-.05,.26-.14,.05-.09,.06-.2,0-.29Zm-6.29-.16h-.64l.7-1.19h.34l-.4,1.19Zm-.27-2.97c0-.33,.27-.59,.59-.59s.59,.27,.59,.59-.27,.59-.59,.59-.59-.27-.59-.59Zm1.78,2.97h-.88l.4-1.19h.49v1.19Zm.12-4.74h-2.14c-.19,0-.35-.16-.35-.35v-1.68c0-.19,.15-.34,.34-.34h2.15c.26,0,.47,.21,.47,.47v1.43c0,.26-.21,.47-.47,.47Zm1.06,4.74h-.59v-1.19h.59v1.19Zm.59,0v-1.19h.47l.51,1.19h-.99Zm.59-2.97c0-.33,.27-.59,.59-.59s.59,.27,.59,.59-.27,.59-.59,.59-.59-.27-.59-.59Zm1.04,2.97l-.51-1.19h.5l.63,1.19h-.62Zm.4-4.74h-2.15c-.26,0-.47-.21-.47-.47v-1.43c0-.26,.21-.47,.47-.47h2.03c.26,0,.47,.21,.47,.47v1.56c0,.19-.15,.34-.34,.34Z"/>
          </g>
          <g>
            <circle class="cls-31" cx="372.67" cy="265.13" r="8.3" transform="translate(-50.94 92.72) rotate(-13.28)"/>
            <path class="cls-3" d="M378.32,266.12v.66l-4.65-.66v2.66l1.33,1.33c0,.33-.33,.66-.66,.66h-3.32c-.33,0-.66-.33-.66-.66l1.33-1.33v-2.66s-4.65,.66-4.65,.66v-.66l4.65-2.66v-1.33c0-.66,.33-2.66,1-2.66s1,1.99,1,2.66v1.33l4.65,2.66Z"/>
          </g>
          <g>
            <g>
              <circle class="cls-3" cx="448.29" cy="252.4" r="5.92"/>
              <path class="cls-31" d="M458.56,250.17h-2.27c-.98-3.5-4.19-6.07-7.99-6.07s-7.01,2.58-7.99,6.07h-2.27v4.83h2.38c1.09,3.31,4.21,5.71,7.88,5.71s6.79-2.4,7.88-5.71h2.38v-4.83Zm-10.26-3.69c2.47,0,4.59,1.53,5.48,3.69h-10.95c.88-2.16,3-3.69,5.48-3.69Zm0,11.83c-2.33,0-4.34-1.36-5.31-3.32h10.62c-.96,1.96-2.98,3.32-5.31,3.32Z"/>
            </g>
            <g>
              <path class="cls-3" d="M441.84,251.63h.89c.52,0,.83,.31,.83,.75h0c0,.51-.39,.77-.88,.77h-.36v.65h-.48v-2.17Zm.86,1.09c.24,0,.38-.14,.38-.33h0c0-.22-.15-.33-.39-.33h-.37v.66h.38Z"/>
              <path class="cls-3" d="M444.75,251.61h.44l.93,2.18h-.5l-.2-.49h-.92l-.2,.49h-.49l.93-2.18Zm.5,1.28l-.29-.7-.29,.7h.58Z"/>
              <path class="cls-3" d="M446.77,251.63h.44l1.02,1.34v-1.34h.47v2.17h-.41l-1.05-1.38v1.38h-.47v-2.17Z"/>
              <path class="cls-3" d="M449.34,251.63h.53l.57,1.53,.57-1.53h.51l-.88,2.18h-.42l-.88-2.18Z"/>
              <path class="cls-3" d="M452.17,251.63h1.64v.42h-1.16v.44h1.02v.42h-1.02v.46h1.18v.42h-1.65v-2.17Z"/>
              <path class="cls-3" d="M454.55,251.63h.48v1.73h1.08v.43h-1.56v-2.17Z"/>
            </g>
          </g>
          <g>
            <circle class="cls-31" cx="529.72" cy="276.93" r="8.3" transform="translate(-49.46 129.11) rotate(-13.28)"/>
            <path class="cls-3" d="M532.08,276.76c-2.88-1.25-1.92-3.18,.88-5.48-.73,.14-1.97,.82-2.56,1.14l-.34-.63c.82-.45,1.81-.75,2.86-.87l.04,.36c.17-.13,.34-.26,.52-.39-2.85-.84-10.42,2.75-6.22,6.05,4.28,3.35-3.69,4.1-4.95,3.72,0,0,2.46,4.3,6.07,4.47,4.32-.8,8.99-6.07,3.7-8.37Zm-1.34,.88c.34,.21,.63,.43,.85,.66l-.52,.5c-.18-.18-.41-.37-.7-.54-.63-.38-1.16-.79-1.56-1.23l.53-.49c.35,.38,.82,.75,1.4,1.1Zm-2.75-1.96c-.09-.28-.14-.56-.14-.84,0-.76,.33-1.5,.96-2.14l.51,.5c-.49,.5-.76,1.07-.76,1.64,0,.2,.03,.41,.1,.61l-.68,.22Zm-1.89,8.33l-.2-.69c.85-.24,1.78-.6,2.62-1.01l.32,.64c-.87,.43-1.84,.8-2.74,1.06Zm4.03-1.78l-.39-.6c1.01-.65,1.59-1.29,1.7-1.86l.71,.13c-.14,.78-.82,1.56-2.01,2.33Z"/>
          </g>
          <g>
            <circle class="cls-31" cx="499.29" cy="339.6" r="8.3"/>
            <path class="cls-3" d="M501.65,339.43c-2.88-1.25-1.92-3.18,.88-5.48-.73,.14-1.97,.82-2.56,1.14l-.34-.63c.82-.45,1.81-.75,2.86-.87l.04,.36c.17-.13,.34-.26,.52-.39-2.85-.84-10.42,2.75-6.22,6.05,4.28,3.35-3.69,4.1-4.95,3.72,0,0,2.46,4.3,6.07,4.47,4.32-.8,8.99-6.07,3.7-8.37Zm-1.34,.88c.34,.21,.63,.43,.85,.66l-.52,.5c-.18-.18-.41-.37-.7-.54-.63-.38-1.16-.79-1.56-1.23l.53-.49c.35,.38,.82,.75,1.4,1.1Zm-2.75-1.96c-.09-.28-.14-.56-.14-.84,0-.76,.33-1.5,.96-2.14l.51,.5c-.49,.5-.76,1.07-.76,1.64,0,.2,.03,.41,.1,.61l-.68,.22Zm-1.89,8.33l-.2-.69c.85-.24,1.78-.6,2.62-1.01l.32,.64c-.87,.43-1.84,.8-2.74,1.06Zm4.03-1.78l-.39-.6c1.01-.65,1.59-1.29,1.7-1.86l.71,.13c-.14,.78-.82,1.56-2.01,2.33Z"/>
          </g>
          <g>
            <circle class="cls-36" cx="433.33" cy="294.5" r="9.96"/>
            <g>
              <path class="cls-3" d="M433.57,290.06c1.11,0,2.02,.36,2.89,1.01,.22,.14,.5,.3,.93,.3,.85,0,1.53-.67,1.53-1.51,0-.54-.28-.99-.61-1.23-1.17-.87-2.6-1.43-4.72-1.43-4,0-6.87,2.79-7.3,6.37h3.27c.37-1.99,1.94-3.5,4.02-3.5Zm4,7.43c-.36,0-.69,.14-.93,.34-.89,.71-1.76,1.11-3.07,1.11-2.1,0-3.64-1.52-4.01-3.5h-3.28c.42,3.62,3.34,6.37,7.19,6.37,2.26,0,3.75-.67,5.03-1.78,.28-.24,.52-.63,.52-1.11,0-.79-.67-1.43-1.45-1.43Z"/>
              <path class="cls-3" d="M435.86,294.5c0,1.27-1.03,2.29-2.29,2.29s-2.29-1.03-2.29-2.29,1.03-2.29,2.29-2.29,2.29,1.03,2.29,2.29Z"/>
            </g>
          </g>
          <g>
            <polygon class="cls-3" points="452.93 336.7 452.93 312.85 438.05 312.85 432.88 303.49 425.74 312.85 409.36 312.85 409.36 336.7 452.93 336.7"/>
            <g>
              <g>
                <g>
                  <path class="cls-1" d="M417.19,321.65c0-.32,.25-.57,.57-.57h1.55c1.24,0,1.98,.73,1.98,1.79h0c0,1.21-.93,1.84-2.09,1.84h-.87v1.03c0,.32-.25,.57-.57,.57s-.57-.25-.57-.57v-4.09Zm2.04,2.04c.57,0,.9-.34,.9-.78h0c0-.53-.36-.8-.93-.8h-.88v1.58h.9Z"/>
                  <path class="cls-35" d="M421.33,325.53l1.81-4.08c.13-.28,.36-.45,.67-.45h.07c.31,0,.53,.17,.66,.45l1.81,4.08c.04,.08,.06,.16,.06,.23,0,.3-.24,.55-.54,.55-.27,0-.44-.16-.55-.39l-.35-.81h-2.28l-.36,.85c-.1,.22-.29,.36-.53,.36-.3,0-.53-.24-.53-.53,0-.08,.03-.16,.07-.24Zm3.21-1.44l-.72-1.71-.72,1.71h1.44Z"/>
                  <path class="cls-39" d="M427.14,321.62c0-.32,.25-.57,.57-.57h.12c.27,0,.44,.13,.59,.33l2.2,2.89v-2.67c0-.31,.25-.56,.56-.56s.56,.25,.56,.56v4.12c0,.32-.25,.57-.57,.57h-.04c-.27,0-.44-.13-.59-.33l-2.28-2.99v2.78c0,.31-.25,.56-.56,.56s-.56-.25-.56-.56v-4.12Z"/>
                  <path class="cls-30" d="M434.23,325.89l-1.68-4.02c-.04-.09-.07-.18-.07-.27,0-.32,.25-.56,.57-.56,.3,0,.49,.17,.58,.4l1.3,3.35,1.31-3.39c.07-.19,.27-.36,.55-.36,.31,0,.56,.24,.56,.55,0,.09-.03,.19-.06,.25l-1.7,4.06c-.12,.28-.33,.45-.64,.45h-.07c-.31,0-.53-.17-.64-.45Z"/>
                  <path class="cls-20" d="M438.07,325.69v-4.04c0-.32,.25-.57,.57-.57h2.87c.28,0,.51,.23,.51,.51s-.23,.5-.51,.5h-2.31v1.05h1.98c.28,0,.51,.23,.51,.51s-.23,.5-.51,.5h-1.98v1.09h2.35c.28,0,.51,.23,.51,.51s-.23,.5-.51,.5h-2.91c-.32,0-.57-.25-.57-.57Z"/>
                  <path class="cls-32" d="M442.88,321.61c0-.32,.25-.57,.57-.57s.57,.25,.57,.57v3.62h2.11c.29,0,.52,.23,.52,.52s-.23,.52-.52,.52h-2.68c-.32,0-.57-.25-.57-.57v-4.09Z"/>
                </g>
                <g>
                  <path class="cls-40" d="M416.83,328.65c.41,0,.74,.13,1.06,.37,.08,.05,.18,.11,.34,.11,.31,0,.56-.24,.56-.56,0-.2-.1-.36-.22-.45-.43-.32-.95-.53-1.73-.53-1.47,0-2.52,1.02-2.68,2.34h1.2c.13-.73,.71-1.28,1.47-1.28Zm1.47,2.72c-.13,0-.25,.05-.34,.13-.33,.26-.64,.41-1.12,.41-.77,0-1.33-.56-1.47-1.28h-1.2c.15,1.33,1.23,2.34,2.64,2.34,.83,0,1.38-.24,1.84-.65,.1-.09,.19-.23,.19-.41,0-.29-.24-.53-.53-.53Z"/>
                  <path class="cls-33" d="M419.68,332.29v-4.04c0-.32,.25-.57,.57-.57h2.87c.28,0,.51,.23,.51,.51s-.23,.5-.51,.5h-2.31v1.05h1.98c.28,0,.51,.23,.51,.51s-.23,.5-.51,.5h-1.98v1.09h2.35c.28,0,.51,.23,.51,.51s-.23,.5-.51,.5h-2.91c-.32,0-.57-.25-.57-.57Z"/>
                  <path class="cls-23" d="M417.67,330.27c0,.46-.38,.84-.84,.84s-.84-.38-.84-.84,.38-.84,.84-.84,.84,.38,.84,.84Z"/>
                  <path class="cls-22" d="M424.49,328.22c0-.32,.25-.57,.57-.57h.12c.27,0,.44,.13,.59,.33l2.2,2.89v-2.67c0-.31,.25-.56,.56-.56s.56,.25,.56,.56v4.12c0,.32-.25,.57-.57,.57h-.04c-.27,0-.44-.13-.59-.33l-2.28-2.99v2.78c0,.31-.25,.56-.56,.56s-.56-.25-.56-.56v-4.12Z"/>
                  <path class="cls-41" d="M431.4,328.73h-1.1c-.29,0-.53-.24-.53-.53s.24-.53,.53-.53h3.33c.29,0,.53,.24,.53,.53s-.24,.53-.53,.53h-1.1v3.6c0,.32-.25,.57-.57,.57s-.57-.25-.57-.57v-3.6Z"/>
                  <path class="cls-42" d="M434.84,328.25c0-.32,.25-.57,.57-.57h1.8c.66,0,1.17,.18,1.51,.53,.29,.29,.44,.7,.44,1.18h0c0,.83-.41,1.33-1.04,1.59l.79,.96c.11,.14,.18,.26,.18,.44,0,.32-.27,.53-.54,.53-.26,0-.43-.13-.56-.3l-1.11-1.41h-.91v1.13c0,.32-.25,.57-.57,.57s-.57-.25-.57-.57v-4.09Zm2.29,1.95c.56,0,.87-.3,.87-.73h0c0-.5-.34-.75-.9-.75h-1.13v1.49h1.15Z"/>
                  <path class="cls-18" d="M439.76,332.13l1.81-4.08c.13-.28,.36-.45,.67-.45h.07c.31,0,.53,.17,.66,.45l1.81,4.08c.04,.08,.06,.16,.06,.23,0,.3-.24,.55-.54,.55-.27,0-.44-.16-.55-.39l-.35-.81h-2.28l-.36,.85c-.1,.22-.29,.36-.53,.36-.3,0-.53-.24-.53-.53,0-.08,.03-.16,.07-.24Zm3.21-1.44l-.72-1.71-.72,1.71h1.44Z"/>
                  <path class="cls-7" d="M445.57,328.21c0-.32,.25-.57,.57-.57s.57,.25,.57,.57v3.62h2.11c.29,0,.52,.23,.52,.52s-.23,.52-.52,.52h-2.68c-.32,0-.57-.25-.57-.57v-4.09Z"/>
                </g>
              </g>
              <g>
                <path class="cls-26" d="M421.53,318.52c-.19-.1-.34-.25-.45-.43-.11-.18-.16-.39-.16-.63s.06-.44,.17-.63,.26-.33,.45-.43c.19-.1,.41-.16,.65-.16,.19,0,.37,.03,.53,.1,.16,.07,.29,.17,.41,.29l-.28,.27c-.17-.18-.38-.28-.63-.28-.16,0-.31,.04-.44,.11-.13,.07-.23,.17-.3,.3-.07,.13-.11,.27-.11,.43s.04,.3,.11,.43c.07,.13,.17,.22,.3,.3,.13,.07,.27,.11,.44,.11,.25,0,.46-.09,.63-.28l.28,.27c-.11,.13-.25,.23-.41,.29-.16,.07-.34,.1-.53,.1-.24,0-.45-.05-.65-.16Z"/>
                <path class="cls-6" d="M424.08,318.52c-.19-.1-.35-.25-.46-.44-.11-.19-.17-.39-.17-.62s.06-.44,.17-.62c.11-.19,.26-.33,.46-.44s.41-.16,.65-.16,.46,.05,.65,.16c.19,.1,.35,.25,.46,.43,.11,.18,.17,.39,.17,.63s-.05,.44-.17,.63c-.11,.19-.26,.33-.46,.43-.19,.1-.41,.16-.65,.16s-.46-.05-.65-.16Zm1.08-.33c.13-.07,.23-.17,.3-.3,.07-.13,.11-.27,.11-.43s-.04-.3-.11-.43c-.07-.13-.17-.23-.3-.3-.13-.07-.27-.11-.43-.11s-.3,.04-.43,.11c-.13,.07-.23,.17-.3,.3-.07,.13-.11,.27-.11,.43s.04,.3,.11,.43c.07,.13,.17,.23,.3,.3,.13,.07,.27,.11,.43,.11s.3-.04,.43-.11Z"/>
                <path class="cls-17" d="M426.61,316.27h1.03c.25,0,.48,.05,.67,.15,.2,.1,.35,.24,.46,.42,.11,.18,.16,.39,.16,.62s-.05,.44-.16,.62c-.11,.18-.26,.32-.46,.42-.2,.1-.42,.15-.67,.15h-1.03v-2.37Zm1.01,2c.17,0,.33-.03,.46-.1,.13-.07,.23-.16,.3-.28,.07-.12,.11-.27,.11-.43s-.03-.3-.11-.43c-.07-.12-.17-.22-.3-.28-.13-.07-.29-.1-.46-.1h-.58v1.62h.58Z"/>
                <path class="cls-38" d="M431.31,318.27v.37h-1.78v-2.37h1.73v.37h-1.29v.62h1.14v.36h-1.14v.65h1.34Z"/>
                <path class="cls-19" d="M434.04,316.27v2.37h-.36l-1.31-1.6v1.6h-.44v-2.37h.36l1.31,1.6v-1.6h.44Z"/>
                <path class="cls-29" d="M436.35,318.09h-1.18l-.23,.55h-.45l1.07-2.37h.43l1.07,2.37h-.46l-.24-.55Zm-.15-.35l-.45-1.04-.44,1.04h.89Z"/>
                <path class="cls-34" d="M439.66,318.64v-1.57s-.78,1.3-.78,1.3h-.2l-.78-1.28v1.55h-.42v-2.37h.36l.94,1.57,.92-1.57h.36v2.37s-.41,0-.41,0Z"/>
                <path class="cls-37" d="M442.63,318.27v.37h-1.78v-2.37h1.73v.37h-1.29v.62h1.14v.36h-1.14v.65h1.34Z"/>
              </g>
            </g>
          </g>
        </g>
        <g>
          <g>
            <path class="cls-43" d="M312.26,254.8v4.84h-.74l-2.67-3.28v3.28h-.89v-4.84h.74l2.67,3.28v-3.28h.89Z"/>
            <path class="cls-43" d="M316.84,258.52h-2.42l-.48,1.12h-.93l2.18-4.84h.89l2.19,4.84h-.94l-.48-1.12Zm-.3-.71l-.91-2.12-.91,2.12h1.82Z"/>
            <path class="cls-43" d="M323.19,254.8l-2.11,4.84h-.89l-2.12-4.84h.98l1.61,3.74,1.63-3.74h.9Z"/>
            <path class="cls-43" d="M323.84,254.8h.9v4.84h-.9v-4.84Z"/>
            <path class="cls-43" d="M332.69,259.64v-3.21s-1.6,2.66-1.6,2.66h-.4l-1.59-2.62v3.17h-.86v-4.84h.74l1.92,3.21,1.89-3.21h.74v4.84s-.84,0-.84,0Z"/>
            <path class="cls-43" d="M335.5,259.15c-.37-.38-.56-.91-.56-1.62v-2.73h.9v2.7c0,.95,.41,1.43,1.23,1.43s1.22-.48,1.22-1.43v-2.7h.89v2.73c0,.7-.19,1.24-.56,1.62s-.89,.56-1.56,.56-1.19-.19-1.56-.56Z"/>
            <path class="cls-43" d="M345.03,259.64v-3.21s-1.6,2.66-1.6,2.66h-.4l-1.59-2.62v3.17h-.86v-4.84h.74l1.92,3.21,1.89-3.21h.74v4.84s-.84,0-.84,0Z"/>
            <path class="cls-43" d="M351.39,257.56c.16,.21,.24,.46,.24,.76,0,.42-.16,.74-.48,.97-.32,.23-.79,.34-1.41,.34h-2.41v-4.84h2.27c.57,0,1.01,.11,1.32,.34,.31,.22,.46,.53,.46,.92,0,.24-.06,.45-.17,.64-.11,.18-.26,.33-.46,.43,.27,.09,.48,.23,.64,.44Zm-3.17-2.06v1.34h1.27c.31,0,.55-.06,.72-.17,.17-.11,.25-.28,.25-.49s-.08-.39-.25-.5c-.17-.11-.41-.17-.72-.17h-1.27Zm2.5,2.73c0-.47-.35-.7-1.04-.7h-1.45v1.4h1.45c.7,0,1.04-.23,1.04-.7Z"/>
            <path class="cls-43" d="M355.87,258.52h-2.42l-.48,1.12h-.93l2.18-4.84h.89l2.19,4.84h-.94l-.48-1.12Zm-.3-.71l-.91-2.12-.91,2.12h1.82Z"/>
            <path class="cls-43" d="M358.05,254.8h.9v4.84h-.9v-4.84Z"/>
            <path class="cls-43" d="M299.25,263.1h.9v4.84h-.9v-4.84Z"/>
            <path class="cls-43" d="M305.9,263.1v4.84h-.74l-2.67-3.28v3.28h-.89v-4.84h.74l2.67,3.28v-3.28h.89Z"/>
            <path class="cls-43" d="M308.32,263.86h-1.6v-.76h4.11v.76h-1.61v4.08h-.9v-4.08Z"/>
            <path class="cls-43" d="M315.28,267.19v.75h-3.63v-4.84h3.54v.75h-2.64v1.26h2.34v.74h-2.34v1.34h2.73Z"/>
            <path class="cls-43" d="M319.59,267.94l-.99-1.42s-.1,0-.19,0h-1.09v1.41h-.9v-4.84h1.99c.42,0,.79,.07,1.1,.21,.31,.14,.55,.34,.72,.59,.17,.26,.25,.57,.25,.92s-.09,.68-.27,.94c-.18,.26-.43,.46-.76,.59l1.11,1.59h-.97Zm-.33-3.83c-.2-.17-.5-.25-.89-.25h-1.05v1.93h1.05c.39,0,.69-.08,.89-.25,.2-.17,.3-.41,.3-.72s-.1-.55-.3-.71Z"/>
            <path class="cls-43" d="M325.92,263.1v4.84h-.74l-2.67-3.28v3.28h-.89v-4.84h.74l2.67,3.28v-3.28h.89Z"/>
            <path class="cls-43" d="M330.5,266.82h-2.42l-.48,1.12h-.93l2.18-4.84h.89l2.19,4.84h-.94l-.48-1.12Zm-.3-.71l-.91-2.12-.91,2.12h1.82Z"/>
            <path class="cls-43" d="M333.42,263.86h-1.6v-.76h4.11v.76h-1.61v4.08h-.9v-4.08Z"/>
            <path class="cls-43" d="M336.74,263.1h.9v4.84h-.9v-4.84Z"/>
            <path class="cls-43" d="M340.01,267.69c-.4-.21-.71-.51-.93-.89-.23-.38-.34-.81-.34-1.28s.11-.9,.34-1.28,.54-.68,.93-.89c.4-.21,.84-.32,1.34-.32s.94,.11,1.33,.32c.4,.21,.71,.51,.93,.89,.23,.38,.34,.81,.34,1.28s-.11,.9-.34,1.28c-.23,.38-.54,.67-.93,.89-.4,.21-.84,.32-1.33,.32s-.94-.11-1.34-.32Zm2.21-.68c.26-.15,.46-.35,.61-.61,.15-.26,.22-.55,.22-.88s-.07-.61-.22-.88-.35-.46-.61-.61c-.26-.14-.55-.22-.87-.22s-.61,.07-.87,.22c-.26,.15-.46,.35-.61,.61-.15,.26-.22,.55-.22,.88s.07,.62,.22,.88c.15,.26,.35,.46,.61,.61,.26,.15,.55,.22,.87,.22s.61-.07,.87-.22Z"/>
            <path class="cls-43" d="M349.35,263.1v4.84h-.74l-2.67-3.28v3.28h-.89v-4.84h.74l2.67,3.28v-3.28h.89Z"/>
            <path class="cls-43" d="M353.93,266.82h-2.42l-.48,1.12h-.93l2.18-4.84h.89l2.19,4.84h-.94l-.48-1.12Zm-.3-.71l-.91-2.12-.91,2.12h1.82Z"/>
            <path class="cls-43" d="M356.11,263.1h.9v4.08h2.53v.76h-3.43v-4.84Z"/>
            <path class="cls-43" d="M330.12,275.13h-2.42l-.48,1.12h-.93l2.18-4.84h.89l2.19,4.84h-.94l-.48-1.12Zm-.3-.71l-.91-2.12-.91,2.12h1.82Z"/>
            <path class="cls-43" d="M332.3,271.4h.9v4.84h-.9v-4.84Z"/>
            <path class="cls-43" d="M337.81,276.25l-.99-1.42s-.1,0-.19,0h-1.09v1.41h-.9v-4.84h1.99c.42,0,.79,.07,1.1,.21,.31,.14,.55,.34,.72,.59,.17,.26,.25,.57,.25,.92s-.09,.68-.27,.94c-.18,.26-.43,.46-.76,.59l1.11,1.59h-.97Zm-.33-3.83c-.2-.17-.5-.25-.89-.25h-1.05v1.93h1.05c.39,0,.69-.08,.89-.25,.2-.17,.3-.41,.3-.72s-.1-.55-.3-.71Z"/>
            <path class="cls-43" d="M342.93,271.61c.31,.14,.55,.34,.72,.59,.17,.26,.25,.57,.25,.92s-.08,.66-.25,.92c-.17,.26-.41,.46-.72,.6-.31,.14-.68,.21-1.1,.21h-1.09v1.4h-.9v-4.84h1.99c.42,0,.79,.07,1.1,.21Zm-.25,2.23c.2-.17,.3-.4,.3-.71s-.1-.55-.3-.71-.5-.25-.89-.25h-1.05v1.92h1.05c.39,0,.69-.08,.89-.25Z"/>
            <path class="cls-43" d="M345.93,276c-.4-.21-.71-.51-.93-.89-.23-.38-.34-.81-.34-1.28s.11-.9,.34-1.28c.23-.38,.54-.68,.93-.89,.4-.21,.84-.32,1.34-.32s.94,.11,1.33,.32c.4,.21,.71,.51,.93,.89,.23,.38,.34,.81,.34,1.28s-.11,.9-.34,1.28c-.23,.38-.54,.67-.93,.89-.4,.21-.84,.32-1.33,.32s-.94-.11-1.34-.32Zm2.21-.68c.26-.15,.46-.35,.61-.61,.15-.26,.22-.55,.22-.88s-.07-.61-.22-.88-.35-.46-.61-.61c-.26-.14-.55-.22-.87-.22s-.61,.07-.87,.22c-.26,.15-.46,.35-.61,.61-.15,.26-.22,.55-.22,.88s.07,.62,.22,.88c.15,.26,.35,.46,.61,.61,.26,.15,.55,.22,.87,.22s.61-.07,.87-.22Z"/>
            <path class="cls-43" d="M354.13,276.25l-.99-1.42s-.1,0-.19,0h-1.09v1.41h-.9v-4.84h1.99c.42,0,.79,.07,1.1,.21,.31,.14,.55,.34,.72,.59,.17,.26,.25,.57,.25,.92s-.09,.68-.27,.94-.43,.46-.76,.59l1.11,1.59h-.97Zm-.33-3.83c-.2-.17-.5-.25-.89-.25h-1.05v1.93h1.05c.39,0,.69-.08,.89-.25,.2-.17,.3-.41,.3-.72s-.1-.55-.3-.71Z"/>
            <path class="cls-43" d="M357.08,272.17h-1.61v-.76h4.11v.76h-1.61v4.08h-.9v-4.08Z"/>
          </g>
          <g>
            <path class="cls-43" d="M463.64,146.42l-.77,.79v1.24h-.9v-4.84h.9v2.48l2.39-2.48h1.01l-2.03,2.17,2.16,2.68h-1.05l-1.71-2.03Z"/>
            <path class="cls-43" d="M470.09,147.33h-2.42l-.48,1.12h-.93l2.18-4.84h.89l2.19,4.84h-.94l-.48-1.12Zm-.3-.71l-.91-2.12-.91,2.12h1.82Z"/>
            <path class="cls-43" d="M472.27,143.61h.9v4.08h2.53v.76h-3.43v-4.84Z"/>
            <path class="cls-43" d="M479.73,147.33h-2.42l-.48,1.12h-.93l2.18-4.84h.89l2.19,4.84h-.94l-.48-1.12Zm-.3-.71l-.91-2.12-.91,2.12h1.82Z"/>
            <path class="cls-43" d="M486.36,148.45v-3.21s-1.6,2.66-1.6,2.66h-.4l-1.59-2.62v3.17h-.86v-4.84h.74l1.92,3.21,1.89-3.21h.74v4.84s-.84,0-.84,0Z"/>
            <path class="cls-43" d="M492.72,146.37c.16,.21,.24,.46,.24,.76,0,.42-.16,.74-.48,.97-.32,.23-.79,.34-1.41,.34h-2.41v-4.84h2.27c.57,0,1.01,.11,1.32,.34,.31,.22,.46,.53,.46,.92,0,.24-.06,.45-.17,.64-.11,.18-.26,.33-.46,.43,.27,.09,.48,.23,.64,.44Zm-3.17-2.06v1.34h1.27c.31,0,.55-.06,.72-.17,.17-.11,.25-.28,.25-.49s-.08-.39-.25-.5c-.17-.11-.41-.17-.72-.17h-1.27Zm2.5,2.73c0-.47-.35-.7-1.04-.7h-1.45v1.4h1.45c.7,0,1.04-.23,1.04-.7Z"/>
            <path class="cls-43" d="M494.99,148.2c-.4-.21-.71-.51-.93-.89-.23-.38-.34-.81-.34-1.28s.11-.9,.34-1.28c.23-.38,.54-.68,.93-.89,.4-.21,.84-.32,1.34-.32s.94,.11,1.33,.32c.4,.21,.71,.51,.93,.89,.23,.38,.34,.8,.34,1.28s-.11,.9-.34,1.28c-.23,.38-.54,.67-.93,.89-.4,.21-.84,.32-1.33,.32s-.94-.11-1.34-.32Zm2.21-.69c.26-.15,.46-.35,.61-.61s.22-.55,.22-.88-.07-.61-.22-.88-.35-.46-.61-.61c-.26-.15-.55-.22-.87-.22s-.61,.07-.87,.22c-.26,.15-.46,.35-.61,.61-.15,.26-.22,.55-.22,.88s.07,.61,.22,.88c.15,.26,.35,.46,.61,.61,.26,.15,.55,.22,.87,.22s.61-.07,.87-.22Z"/>
            <path class="cls-43" d="M500.02,143.61h.9v4.08h2.53v.76h-3.43v-4.84Z"/>
            <path class="cls-43" d="M504.31,143.61h.9v4.84h-.9v-4.84Z"/>
            <path class="cls-43" d="M461.87,156.64c-.26-.12-.47-.29-.64-.52l.51-.62c.27,.37,.59,.55,.96,.55,.5,0,.75-.3,.75-.89v-2.5h-1.72v-.75h2.62v3.21c0,.57-.14,.99-.42,1.28-.28,.28-.68,.43-1.22,.43-.31,0-.59-.06-.85-.18Z"/>
            <path class="cls-43" d="M466.28,156.26c-.37-.38-.56-.91-.56-1.62v-2.73h.9v2.7c0,.95,.41,1.43,1.23,1.43s1.22-.48,1.22-1.43v-2.7h.89v2.73c0,.7-.19,1.24-.56,1.62-.37,.38-.89,.56-1.56,.56s-1.19-.19-1.56-.56Z"/>
            <path class="cls-43" d="M475.66,151.91v4.84h-.74l-2.67-3.28v3.28h-.89v-4.84h.74l2.67,3.28v-3.28h.89Z"/>
            <path class="cls-43" d="M478.02,156.5c-.39-.21-.7-.51-.93-.89s-.33-.81-.33-1.28,.11-.9,.34-1.28c.23-.38,.54-.67,.93-.89s.84-.32,1.33-.32c.4,0,.76,.07,1.09,.21s.6,.34,.83,.6l-.58,.55c-.35-.38-.78-.57-1.29-.57-.33,0-.63,.07-.89,.22-.26,.15-.47,.35-.62,.61-.15,.26-.22,.55-.22,.88s.07,.62,.22,.88c.15,.26,.35,.46,.62,.61,.26,.15,.56,.22,.89,.22,.51,0,.94-.19,1.29-.57l.58,.55c-.23,.26-.5,.46-.83,.6-.33,.14-.69,.21-1.09,.21-.49,0-.93-.11-1.33-.32Z"/>
            <path class="cls-43" d="M483.2,152.67h-1.61v-.76h4.11v.76h-1.61v4.08h-.9v-4.08Z"/>
            <path class="cls-43" d="M486.52,151.91h.9v4.84h-.9v-4.84Z"/>
            <path class="cls-43" d="M489.79,156.5c-.4-.21-.71-.51-.93-.89-.23-.38-.34-.81-.34-1.28s.11-.9,.34-1.28c.23-.38,.54-.68,.93-.89,.4-.21,.84-.32,1.34-.32s.94,.11,1.33,.32c.4,.21,.71,.51,.93,.89,.23,.38,.34,.8,.34,1.28s-.11,.9-.34,1.28c-.23,.38-.54,.67-.93,.89-.4,.21-.84,.32-1.33,.32s-.94-.11-1.34-.32Zm2.21-.69c.26-.15,.46-.35,.61-.61s.22-.55,.22-.88-.07-.61-.22-.88-.35-.46-.61-.61c-.26-.15-.55-.22-.87-.22s-.61,.07-.87,.22c-.26,.15-.46,.35-.61,.61-.15,.26-.22,.55-.22,.88s.07,.61,.22,.88c.15,.26,.35,.46,.61,.61,.26,.15,.55,.22,.87,.22s.61-.07,.87-.22Z"/>
            <path class="cls-43" d="M499.13,151.91v4.84h-.74l-2.67-3.28v3.28h-.89v-4.84h.74l2.67,3.28v-3.28h.89Z"/>
          </g>
          <g>
            <path class="cls-43" d="M467.45,245.92c.31,.14,.55,.34,.72,.59,.17,.26,.25,.57,.25,.92s-.08,.66-.25,.92c-.17,.26-.41,.46-.72,.6-.31,.14-.68,.21-1.1,.21h-1.09v1.4h-.9v-4.84h1.99c.42,0,.79,.07,1.1,.21Zm-.25,2.23c.2-.17,.3-.4,.3-.71s-.1-.55-.3-.71c-.2-.17-.5-.25-.89-.25h-1.05v1.92h1.05c.39,0,.69-.08,.89-.25Z"/>
            <path class="cls-43" d="M472.35,249.44h-2.42l-.48,1.12h-.93l2.18-4.84h.89l2.19,4.84h-.94l-.48-1.12Zm-.3-.71l-.91-2.12-.91,2.12h1.82Z"/>
            <path class="cls-43" d="M478.83,245.72v4.84h-.74l-2.67-3.28v3.28h-.89v-4.84h.74l2.67,3.28v-3.28h.89Z"/>
            <path class="cls-43" d="M484.67,245.72l-2.11,4.84h-.89l-2.12-4.84h.98l1.61,3.74,1.63-3.74h.9Z"/>
            <path class="cls-43" d="M488.95,249.8v.75h-3.63v-4.84h3.54v.75h-2.64v1.26h2.34v.74h-2.34v1.34h2.73Z"/>
            <path class="cls-43" d="M490.09,245.72h.9v4.08h2.53v.76h-3.43v-4.84Z"/>
            <path class="cls-43" d="M464.26,258.75c-.26-.12-.47-.29-.64-.52l.51-.62c.27,.37,.59,.55,.96,.55,.5,0,.75-.3,.75-.89v-2.5h-1.72v-.75h2.62v3.21c0,.57-.14,.99-.42,1.28-.28,.28-.68,.43-1.22,.43-.31,0-.59-.06-.85-.18Z"/>
            <path class="cls-43" d="M468.66,258.37c-.37-.38-.56-.91-.56-1.62v-2.73h.9v2.7c0,.95,.41,1.43,1.23,1.43s1.22-.48,1.22-1.43v-2.7h.89v2.73c0,.7-.19,1.24-.56,1.62-.37,.38-.89,.56-1.56,.56s-1.19-.19-1.56-.56Z"/>
            <path class="cls-43" d="M478.05,254.02v4.84h-.74l-2.67-3.28v3.28h-.89v-4.84h.74l2.67,3.28v-3.28h.89Z"/>
            <path class="cls-43" d="M480.4,258.61c-.39-.21-.7-.51-.93-.89s-.33-.81-.33-1.28,.11-.9,.34-1.28c.23-.38,.54-.67,.93-.89s.84-.32,1.33-.32c.4,0,.76,.07,1.09,.21s.6,.34,.83,.6l-.58,.55c-.35-.38-.78-.57-1.29-.57-.33,0-.63,.07-.89,.22-.26,.15-.47,.35-.62,.61-.15,.26-.22,.55-.22,.88s.07,.62,.22,.88c.15,.26,.35,.46,.62,.61,.26,.15,.56,.22,.89,.22,.51,0,.94-.19,1.29-.57l.58,.55c-.23,.26-.5,.46-.83,.6-.33,.14-.69,.21-1.09,.21-.49,0-.93-.11-1.33-.32Z"/>
            <path class="cls-43" d="M485.58,254.78h-1.61v-.76h4.11v.76h-1.61v4.08h-.9v-4.08Z"/>
            <path class="cls-43" d="M488.9,254.02h.9v4.84h-.9v-4.84Z"/>
            <path class="cls-43" d="M492.17,258.61c-.4-.21-.71-.51-.93-.89-.23-.38-.34-.81-.34-1.28s.11-.9,.34-1.28c.23-.38,.54-.68,.93-.89,.4-.21,.84-.32,1.34-.32s.94,.11,1.33,.32c.4,.21,.71,.51,.93,.89,.23,.38,.34,.8,.34,1.28s-.11,.9-.34,1.28c-.23,.38-.54,.67-.93,.89-.4,.21-.84,.32-1.33,.32s-.94-.11-1.34-.32Zm2.21-.69c.26-.15,.46-.35,.61-.61s.22-.55,.22-.88-.07-.61-.22-.88-.35-.46-.61-.61c-.26-.15-.55-.22-.87-.22s-.61,.07-.87,.22c-.26,.15-.46,.35-.61,.61-.15,.26-.22,.55-.22,.88s.07,.61,.22,.88c.15,.26,.35,.46,.61,.61,.26,.15,.55,.22,.87,.22s.61-.07,.87-.22Z"/>
            <path class="cls-43" d="M501.52,254.02v4.84h-.74l-2.67-3.28v3.28h-.89v-4.84h.74l2.67,3.28v-3.28h.89Z"/>
          </g>
          <g>
            <rect class="cls-2" x="461.38" y="160.24" width="41.67" height="8.3"/>
            <g>
              <path class="cls-3" d="M465.26,162.78v3.23h-.6v-2.73h-.68v-.5h1.28Z"/>
              <path class="cls-3" d="M468.47,164.62c.09,.13,.14,.28,.14,.46,0,.2-.05,.37-.16,.52-.11,.15-.26,.26-.46,.34-.2,.08-.43,.12-.7,.12s-.5-.04-.69-.12c-.2-.08-.35-.19-.46-.34-.11-.15-.16-.32-.16-.52,0-.18,.04-.33,.13-.46,.09-.13,.22-.23,.38-.31-.13-.07-.23-.16-.3-.28s-.1-.25-.1-.4c0-.18,.05-.34,.15-.48,.1-.14,.24-.24,.42-.31s.39-.11,.63-.11,.45,.04,.63,.11,.32,.18,.42,.31,.15,.29,.15,.48c0,.15-.04,.28-.11,.4s-.17,.21-.3,.28c.17,.08,.3,.18,.39,.31Zm-.66,.82c.13-.09,.19-.22,.19-.38s-.06-.29-.19-.38c-.13-.09-.3-.14-.53-.14s-.4,.05-.52,.14-.19,.22-.19,.38,.06,.29,.19,.38c.13,.09,.3,.14,.52,.14s.4-.05,.53-.14Zm-.97-2.12c-.11,.08-.16,.19-.16,.34s.05,.25,.16,.33c.11,.08,.26,.12,.45,.12s.34-.04,.45-.12,.17-.19,.17-.33-.06-.26-.17-.34-.26-.12-.45-.12-.34,.04-.45,.12Z"/>
              <path class="cls-3" d="M473.65,166.01v-2.14s-1.07,1.77-1.07,1.77h-.27l-1.06-1.74v2.11h-.57v-3.23h.49l1.28,2.14,1.26-2.14h.49v3.23s-.56,0-.56,0Z"/>
              <path class="cls-3" d="M475.18,162.78h.6v3.23h-.6v-3.23Z"/>
              <path class="cls-3" d="M479.62,162.78v3.23h-.49l-1.78-2.19v2.19h-.59v-3.23h.49l1.78,2.19v-2.19h.59Z"/>
              <path class="cls-3" d="M481.94,162.59h.53v4.32h-.53v-4.32Z"/>
              <path class="cls-3" d="M487,162.78v.4l-1.25,2.83h-.64l1.21-2.72h-1.27v.55h-.56v-1.06h2.51Z"/>
              <path class="cls-3" d="M487.32,165.93c-.07-.07-.11-.16-.11-.27s.04-.21,.11-.28,.16-.11,.27-.11,.2,.04,.27,.11,.11,.16,.11,.28-.04,.2-.11,.27c-.07,.07-.16,.11-.27,.11s-.19-.04-.27-.11Z"/>
              <path class="cls-3" d="M490.82,162.78v.4l-1.25,2.83h-.64l1.21-2.72h-1.27v.55h-.56v-1.06h2.51Z"/>
              <path class="cls-3" d="M493.98,164.66l-.51,.53v.83h-.6v-3.23h.6v1.66l1.6-1.66h.67l-1.36,1.44,1.44,1.79h-.7l-1.14-1.35Z"/>
              <path class="cls-3" d="M499.29,166.01v-2.14s-1.07,1.77-1.07,1.77h-.27l-1.06-1.74v2.11h-.57v-3.23h.49l1.28,2.14,1.26-2.14h.49v3.23s-.56,0-.56,0Z"/>
            </g>
          </g>
          <g>
            <path class="cls-43" d="M544.45,288.72l2.47-2.05-3.06,.47-.26-.31,1-2.89-2.44,2.02-.55-.66,3.73-3.09,.47,.57-1.25,3.53,3.68-.59,.47,.57-3.73,3.09-.54-.65Z"/>
            <path class="cls-43" d="M546.63,290.57c.05-.53,.35-1.01,.89-1.46l2.11-1.74,.57,.69-2.08,1.72c-.73,.61-.84,1.22-.31,1.86,.52,.63,1.15,.64,1.88,.03l2.08-1.72,.56,.68-2.1,1.74c-.54,.45-1.07,.65-1.6,.6-.53-.05-1-.33-1.43-.84-.43-.52-.61-1.04-.56-1.56Z"/>
            <path class="cls-43" d="M552.33,298.22l2.47-2.05-3.06,.47-.26-.31,1-2.89-2.44,2.02-.55-.66,3.73-3.09,.47,.57-1.25,3.53,3.68-.59,.47,.57-3.73,3.1-.54-.66Z"/>
            <path class="cls-43" d="M557.99,301.8c-.06,.25-.2,.47-.44,.67-.32,.27-.68,.35-1.06,.25-.38-.1-.77-.39-1.16-.87l-1.54-1.85,3.73-3.09,1.45,1.75c.37,.44,.56,.85,.58,1.23,.02,.38-.11,.7-.42,.95-.18,.15-.38,.25-.6,.28-.21,.03-.42,0-.62-.08,.1,.26,.13,.52,.07,.77Zm-.95-.09c.36-.3,.32-.71-.13-1.25l-.93-1.12-1.08,.89,.93,1.12c.44,.54,.85,.66,1.2,.36Zm.51-3.67l-1.03,.85,.81,.98c.2,.24,.4,.39,.59,.45,.2,.06,.38,.02,.54-.12,.17-.14,.25-.31,.23-.51s-.13-.42-.33-.66l-.81-.98Z"/>
            <path class="cls-43" d="M560.11,305.86l-1.54-1.87-1.17,.35-.59-.71,5.12-1.41,.57,.68-2.34,4.77-.6-.72,.55-1.09Zm.35-.68l1.05-2.05-2.21,.65,1.16,1.4Z"/>
            <path class="cls-43" d="M564.36,305.16l.57,.69-3.73,3.09-.57-.69,3.73-3.09Z"/>
            <path class="cls-43" d="M568.98,311.06c.09,.33,.09,.64,0,.93-.09,.29-.28,.55-.55,.78-.27,.22-.56,.36-.87,.39s-.61-.02-.92-.17c-.3-.15-.59-.39-.86-.71l-.7-.84-1.08,.89-.57-.69,3.73-3.09,1.27,1.53c.27,.32,.45,.65,.54,.98Zm-1.87,1.23c.26,.05,.5-.02,.74-.22s.36-.43,.35-.69c0-.26-.13-.54-.38-.85l-.67-.81-1.48,1.23,.67,.81c.25,.3,.5,.48,.76,.53Z"/>
            <path class="cls-43" d="M567.4,315.64c.05-.53,.35-1.01,.89-1.46l2.1-1.74,.57,.69-2.08,1.72c-.73,.61-.84,1.22-.31,1.86,.52,.63,1.15,.64,1.88,.03l2.08-1.72,.56,.68-2.1,1.74c-.54,.45-1.07,.65-1.6,.6-.53-.04-1-.33-1.43-.84-.43-.51-.61-1.04-.56-1.56Z"/>
            <path class="cls-43" d="M576.73,320.09l-3.73,3.09-.47-.57,.82-4.15-2.53,2.09-.57-.69,3.73-3.09,.47,.57-.82,4.15,2.53-2.09,.57,.69Z"/>
            <path class="cls-43" d="M576.82,326.61l-.58,.48-2.32-2.8,3.73-3.09,2.26,2.72-.58,.48-1.68-2.03-.97,.8,1.49,1.8-.57,.47-1.49-1.8-1.03,.85,1.74,2.11Z"/>
            <path class="cls-43" d="M538.12,292.9l-.58,.48-2.32-2.8,3.73-3.09,2.26,2.72-.58,.48-1.68-2.03-.97,.8,1.49,1.8-.57,.47-1.49-1.8-1.03,.85,1.74,2.11Z"/>
            <path class="cls-43" d="M540.18,296.57l.58-2.19-2.25,.17-.65-.79,3.05-.19,.74-2.82,.65,.78-.54,2.05,2.11-.16,.62,.75-2.88,.19-.77,3-.66-.8Z"/>
            <path class="cls-43" d="M546.82,297.32c.09,.33,.09,.64,0,.93s-.28,.55-.55,.78c-.27,.22-.56,.35-.86,.39-.31,.04-.61-.02-.92-.17-.31-.15-.59-.39-.86-.71l-.7-.84-1.08,.89-.57-.69,3.73-3.09,1.27,1.54c.27,.32,.45,.65,.54,.98Zm-1.87,1.23c.26,.05,.5-.02,.74-.22,.24-.2,.36-.43,.35-.69,0-.26-.13-.54-.38-.85l-.67-.81-1.48,1.23,.67,.81c.25,.3,.5,.48,.76,.53Z"/>
            <path class="cls-43" d="M546.55,304.26l.46-1.67s-.07-.07-.12-.14l-.7-.84-1.09,.9-.57-.69,3.73-3.09,1.27,1.53c.27,.32,.45,.65,.54,.98,.09,.33,.09,.64,0,.93-.09,.29-.28,.55-.55,.78-.28,.23-.58,.36-.9,.39-.32,.03-.63-.04-.94-.21l-.51,1.87-.62-.75Zm2.75-2.7c0-.26-.13-.54-.38-.85l-.67-.81-1.49,1.23,.67,.81c.25,.3,.5,.48,.76,.53s.51-.03,.75-.22c.24-.2,.36-.43,.35-.69Z"/>
            <path class="cls-43" d="M550.74,308.14l-.58,.48-2.32-2.8,3.73-3.09,2.26,2.72-.58,.48-1.68-2.03-.97,.8,1.49,1.8-.57,.47-1.49-1.8-1.03,.85,1.74,2.1Z"/>
            <path class="cls-43" d="M551.22,309.77c-.14-.34-.21-.64-.2-.91l.74-.21c0,.25,.06,.52,.17,.81,.11,.29,.25,.54,.44,.76,.23,.28,.45,.45,.65,.51s.38,.03,.52-.09c.11-.09,.16-.2,.17-.33s-.02-.28-.08-.43c-.06-.15-.15-.35-.26-.59-.17-.34-.29-.63-.37-.86-.08-.23-.1-.47-.06-.72s.18-.47,.43-.67c.21-.17,.44-.27,.7-.3,.26-.03,.54,.03,.82,.17,.29,.14,.57,.38,.84,.7,.19,.23,.35,.47,.47,.74,.13,.27,.2,.53,.23,.77l-.72,.23c-.04-.24-.11-.47-.2-.69-.1-.22-.22-.41-.35-.58-.23-.27-.44-.44-.64-.49-.2-.06-.38-.02-.53,.1-.11,.09-.16,.2-.17,.33,0,.13,.02,.27,.08,.42,.06,.15,.15,.35,.26,.59,.17,.33,.29,.61,.37,.85,.08,.24,.1,.47,.06,.72-.04,.24-.18,.47-.42,.67-.21,.17-.44,.27-.7,.29-.26,.03-.53-.03-.82-.18-.29-.15-.57-.38-.84-.71-.24-.29-.43-.6-.57-.94Z"/>
            <path class="cls-43" d="M554.09,313.22c-.14-.34-.21-.64-.2-.91l.74-.21c0,.25,.06,.52,.17,.81,.11,.29,.25,.54,.44,.76,.23,.28,.45,.45,.65,.51s.38,.03,.52-.09c.11-.09,.16-.2,.17-.33s-.02-.28-.08-.43c-.06-.15-.15-.35-.26-.59-.17-.34-.29-.63-.37-.86-.08-.23-.1-.47-.06-.72s.18-.47,.43-.67c.21-.17,.44-.27,.7-.3,.26-.03,.54,.03,.82,.17,.29,.14,.56,.38,.83,.71,.19,.23,.35,.47,.47,.74,.13,.27,.2,.53,.23,.77l-.72,.23c-.04-.24-.11-.47-.21-.69-.1-.22-.22-.41-.35-.58-.23-.27-.44-.44-.64-.49-.2-.06-.38-.02-.53,.1-.11,.09-.16,.2-.17,.33,0,.13,.02,.27,.08,.42,.06,.15,.15,.35,.26,.59,.17,.33,.29,.61,.36,.85,.08,.24,.1,.47,.06,.72-.04,.24-.18,.47-.42,.67-.21,.17-.44,.27-.7,.29-.26,.03-.53-.03-.82-.18-.29-.15-.57-.38-.84-.71-.24-.29-.43-.6-.57-.94Z"/>
            <path class="cls-43" d="M566.17,320.36l-4.75,1.85-.61-.74,2-3.21-3.54,1.35-.61-.74,2.71-4.33,.6,.72-2.07,3.28,3.63-1.38,.53,.64-2.07,3.3,3.64-1.41,.55,.66Z"/>
            <path class="cls-43" d="M565.76,325.7l-1.54-1.87-1.17,.35-.59-.71,5.12-1.41,.56,.68-2.33,4.77-.6-.72,.55-1.09Zm.35-.68l1.05-2.05-2.21,.65,1.16,1.4Z"/>
            <path class="cls-43" d="M568.75,328.39l-1.32,1.09-.57-.69,1.3-1.08,1.21-3.47,.61,.74-.91,2.6,2.73-.4,.57,.68-3.62,.54Z"/>
          </g>
          <g>
            <path class="cls-43" d="M513.08,349.18c-.18-.41-.24-.84-.19-1.28,.05-.44,.23-.84,.52-1.21s.64-.64,1.05-.8c.41-.16,.84-.2,1.28-.13,.45,.08,.86,.26,1.25,.57,.39,.3,.67,.66,.85,1.07,.18,.41,.24,.84,.19,1.28s-.23,.84-.52,1.22c-.29,.37-.64,.64-1.05,.8-.41,.16-.84,.2-1.28,.13-.45-.07-.86-.26-1.25-.57-.39-.3-.67-.66-.86-1.08Zm2.16,.82c.29,.04,.58,0,.85-.11,.28-.12,.51-.3,.71-.55,.2-.25,.32-.53,.36-.83,.04-.29,0-.58-.1-.85-.12-.27-.3-.51-.55-.71-.25-.2-.53-.32-.82-.36-.29-.04-.58,0-.85,.11-.28,.11-.51,.3-.71,.55-.2,.25-.32,.53-.36,.83-.04,.3,0,.58,.1,.85,.12,.27,.3,.51,.55,.71,.25,.2,.53,.32,.82,.36Z"/>
            <path class="cls-43" d="M519.88,348.66l.71,.55-2.51,3.22,2,1.56-.47,.6-2.71-2.11,2.98-3.82Z"/>
            <path class="cls-43" d="M523.26,351.29l1.67,1.3c.41,.32,.71,.68,.9,1.08,.19,.41,.26,.82,.21,1.25-.05,.42-.22,.83-.52,1.21s-.64,.64-1.04,.8c-.4,.15-.82,.18-1.26,.1-.44-.09-.86-.29-1.27-.61l-1.67-1.3,2.98-3.82Zm-.88,4.5c.28,.22,.57,.36,.87,.42,.3,.06,.58,.03,.85-.08,.27-.11,.51-.29,.71-.56s.33-.54,.37-.82c.04-.29,0-.57-.13-.84-.13-.27-.33-.52-.61-.74l-.93-.72-2.04,2.62,.93,.72Z"/>
            <path class="cls-43" d="M530.02,362.71l1.97-2.54-2.89,1.12-.32-.25,.36-3.04-1.95,2.5-.68-.53,2.98-3.82,.58,.46-.46,3.71,3.46-1.37,.58,.46-2.97,3.82-.67-.52Z"/>
            <path class="cls-43" d="M532.54,364.05c-.06-.53,.12-1.06,.55-1.62l1.68-2.15,.71,.55-1.66,2.13c-.58,.75-.55,1.38,.09,1.88,.64,.5,1.26,.38,1.84-.37l1.66-2.13,.7,.54-1.68,2.15c-.43,.55-.91,.86-1.43,.93-.52,.07-1.05-.1-1.58-.51s-.82-.88-.89-1.41Z"/>
            <path class="cls-43" d="M539.75,370.3l1.97-2.54-2.89,1.12-.32-.25,.36-3.04-1.95,2.5-.68-.53,2.98-3.82,.58,.46-.46,3.71,3.46-1.37,.58,.46-2.97,3.82-.67-.52Z"/>
            <path class="cls-43" d="M546.04,372.58c0,.26-.1,.51-.28,.75-.26,.33-.58,.49-.98,.47-.4-.02-.84-.22-1.32-.6l-1.9-1.48,2.98-3.82,1.79,1.4c.45,.35,.73,.71,.84,1.08,.11,.37,.04,.7-.2,1.01-.15,.19-.32,.32-.52,.4-.2,.08-.41,.1-.62,.06,.16,.23,.23,.48,.23,.74Zm-.94,.12c.29-.37,.15-.76-.39-1.19l-1.15-.89-.86,1.1,1.15,.89c.55,.43,.97,.46,1.25,.09Zm-.29-3.69l-.82,1.05,1,.78c.25,.19,.47,.3,.67,.31,.2,.01,.37-.06,.5-.23,.14-.17,.17-.36,.11-.55s-.22-.39-.47-.58l-1-.78Z"/>
            <path class="cls-43" d="M548.98,376.09l-1.91-1.49-1.07,.59-.73-.57,4.7-2.48,.7,.54-1.25,5.16-.74-.58,.31-1.18Zm.2-.74l.58-2.23-2.02,1.11,1.43,1.12Z"/>
            <path class="cls-43" d="M552.99,374.49l.71,.55-2.98,3.82-.71-.55,2.98-3.82Z"/>
            <path class="cls-43" d="M512.38,353.6c.16,.3,.23,.6,.2,.91-.03,.31-.15,.6-.37,.88-.22,.28-.47,.47-.76,.57-.29,.1-.6,.11-.93,.03-.33-.08-.66-.25-.99-.51l-.86-.67-.86,1.1-.71-.55,2.98-3.82,1.57,1.23c.33,.26,.58,.54,.74,.84Zm-1.56,1.6c.26,0,.49-.13,.68-.37,.19-.24,.26-.49,.2-.75-.06-.26-.24-.5-.55-.74l-.83-.65-1.18,1.52,.83,.65c.31,.24,.6,.36,.86,.35Z"/>
            <path class="cls-43" d="M511.82,358.41c-.06-.53,.12-1.07,.55-1.62l1.68-2.15,.71,.55-1.66,2.13c-.58,.75-.55,1.38,.09,1.88,.64,.5,1.26,.38,1.84-.37l1.66-2.13,.7,.54-1.68,2.16c-.43,.55-.91,.86-1.43,.93-.52,.07-1.05-.1-1.58-.51-.53-.41-.82-.88-.89-1.41Z"/>
            <path class="cls-43" d="M521.89,360.76l-2.98,3.82-.58-.46-.09-4.23-2.02,2.59-.7-.55,2.98-3.82,.58,.46,.09,4.23,2.02-2.59,.7,.55Z"/>
            <path class="cls-43" d="M523.37,367.1l-.46,.59-2.86-2.23,2.98-3.82,2.79,2.17-.46,.59-2.08-1.62-.77,.99,1.84,1.44-.46,.58-1.84-1.44-.82,1.05,2.16,1.68Z"/>
            <path class="cls-43" d="M531.8,368.49l-2.98,3.82-.71-.55,1.28-1.64-1.97-1.54-1.28,1.64-.71-.55,2.98-3.82,.71,.55-1.23,1.58,1.97,1.54,1.23-1.58,.71,.55Z"/>
            <path class="cls-43" d="M532.93,369.37l.71,.55-2.98,3.82-.71-.55,2.98-3.82Z"/>
            <path class="cls-43" d="M535.93,374.71l.67,.52-1.19,1.52c-.32,0-.64-.06-.97-.18-.33-.12-.63-.29-.91-.5-.39-.3-.67-.66-.86-1.08-.18-.41-.24-.84-.19-1.28,.05-.44,.23-.84,.52-1.22,.29-.37,.64-.64,1.05-.8,.41-.16,.84-.2,1.29-.12,.45,.08,.87,.27,1.26,.57,.32,.25,.57,.53,.75,.84,.18,.31,.28,.64,.3,.98l-.79,.09c-.06-.52-.3-.94-.71-1.26-.27-.21-.55-.34-.85-.39-.3-.05-.58-.02-.86,.09-.28,.11-.52,.3-.72,.56-.2,.25-.32,.53-.36,.83-.04,.3,0,.58,.12,.86,.12,.28,.31,.52,.58,.73,.3,.23,.61,.37,.94,.42l.93-1.19Z"/>
            <path class="cls-43" d="M542.49,376.83l-2.98,3.82-.71-.55,1.28-1.64-1.97-1.54-1.28,1.64-.71-.55,2.98-3.82,.71,.55-1.23,1.58,1.97,1.54,1.23-1.58,.71,.55Z"/>
            <path class="cls-43" d="M549.18,382.05l-4.25,2.83-.75-.59,1.26-3.56-3.17,2.08-.76-.59,1.71-4.81,.74,.57-1.31,3.64,3.25-2.13,.65,.51-1.31,3.67,3.25-2.16,.68,.53Z"/>
            <path class="cls-43" d="M549.94,387.36l-1.91-1.49-1.07,.59-.73-.57,4.7-2.48,.7,.54-1.26,5.16-.74-.58,.31-1.18Zm.2-.74l.58-2.23-2.02,1.11,1.43,1.12Z"/>
            <path class="cls-43" d="M553.44,389.34l-1.05,1.35-.71-.55,1.04-1.34,.44-3.65,.76,.59-.33,2.73,2.58-.98,.7,.54-3.42,1.3Z"/>
          </g>
          <g>
            <path class="cls-24" d="M351.92,224.62h.65v1.89l1.77-1.89h.83l-1.56,1.69,1.58,2.18h-.77l-1.28-1.69-.56,.61v1.08h-.65v-3.87Z"/>
            <path class="cls-24" d="M355.81,228.49v-3.87h.65v1.68h1.92v-1.68h.65v3.87h-.65v-1.58h-1.92v1.58h-.65Z"/>
            <path class="cls-24" d="M360.66,227.61l-.39,.88h-.7l1.71-3.87h.7l1.71,3.87h-.7l-.39-.88h-1.94Zm1.67-.6l-.7-1.59-.7,1.59h1.41Z"/>
            <path class="cls-24" d="M367.12,224.62h.65v3.87h-.71l-2.19-2.82v2.82h-.65v-3.87h.65l2.25,2.89v-2.89Z"/>
            <path class="cls-24" d="M371.78,225.13c.37,.34,.56,.81,.56,1.41s-.18,1.08-.54,1.43c-.36,.35-.92,.53-1.66,.53h-1.28v-3.87h1.33c.69,0,1.23,.17,1.6,.51Zm-.1,1.43c0-.89-.51-1.33-1.52-1.33h-.65v2.65h.72c.47,0,.83-.11,1.08-.33s.37-.55,.37-.99Z"/>
            <path class="cls-24" d="M375.9,224.62v.61h-2.06v1.02h1.85v.58h-1.85v1.04h2.13v.61h-2.78v-3.87h2.72Z"/>
            <path class="cls-24" d="M377.97,225.13c-.19,0-.35,.04-.47,.12-.12,.08-.18,.19-.18,.35s.06,.28,.18,.36c.12,.08,.38,.17,.78,.27,.4,.1,.7,.23,.9,.4s.3,.43,.3,.77-.13,.61-.38,.82c-.25,.21-.59,.32-1,.32-.61,0-1.14-.21-1.61-.63l.41-.49c.39,.34,.8,.51,1.22,.51,.21,0,.38-.05,.5-.14,.12-.09,.19-.21,.19-.36s-.06-.27-.17-.35c-.12-.08-.32-.16-.6-.23-.29-.07-.5-.13-.65-.19s-.28-.13-.39-.22c-.23-.17-.34-.44-.34-.8s.13-.63,.39-.83,.58-.29,.97-.29c.25,0,.49,.04,.74,.12,.24,.08,.45,.2,.63,.34l-.35,.49c-.11-.1-.27-.19-.46-.25s-.39-.1-.58-.1Z"/>
            <path class="cls-24" d="M380.29,228.49v-3.87h.65v1.68h1.92v-1.68h.65v3.87h-.65v-1.58h-1.92v1.58h-.65Z"/>
            <path class="cls-24" d="M385.79,227.4l.86-2.78h.59l.86,2.78,.97-2.78h.7l-1.35,3.87h-.65l-.81-2.65h-.04l-.81,2.65h-.65l-1.35-3.87h.7l.97,2.78Z"/>
            <path class="cls-24" d="M390.75,227.61l-.39,.88h-.7l1.71-3.87h.7l1.71,3.87h-.7l-.39-.88h-1.94Zm1.67-.6l-.7-1.59-.7,1.59h1.41Z"/>
            <path class="cls-24" d="M397.4,225.88c0,.64-.28,1.04-.84,1.21l1.01,1.41h-.83l-.92-1.3h-.86v1.3h-.65v-3.87h1.44c.59,0,1.01,.1,1.27,.3,.25,.2,.38,.52,.38,.96Zm-.87,.55c.13-.11,.2-.3,.2-.55s-.07-.43-.21-.52-.38-.14-.73-.14h-.83v1.38h.81c.37,0,.62-.06,.75-.17Z"/>
          </g>
          <g>
            <path class="cls-24" d="M419.12,258.14c-.39,.38-.88,.57-1.45,.57s-1.06-.19-1.45-.57c-.39-.38-.59-.86-.59-1.43s.2-1.05,.59-1.43c.39-.38,.87-.57,1.45-.57s1.06,.19,1.45,.57c.39,.38,.59,.86,.59,1.43s-.2,1.05-.59,1.43Zm-.48-2.42c-.26-.27-.59-.41-.97-.41s-.71,.14-.97,.41c-.26,.27-.4,.6-.4,.99s.13,.72,.4,.99,.59,.41,.97,.41,.71-.14,.97-.41c.26-.27,.4-.6,.4-.99s-.13-.72-.4-.99Z"/>
            <path class="cls-24" d="M420.53,258.67v-3.87h.65v3.25h1.77v.62h-2.42Z"/>
            <path class="cls-24" d="M426.59,255.31c.37,.34,.56,.81,.56,1.41s-.18,1.08-.54,1.43c-.36,.35-.92,.53-1.66,.53h-1.28v-3.87h1.33c.69,0,1.23,.17,1.6,.51Zm-.1,1.43c0-.89-.51-1.33-1.52-1.33h-.65v2.65h.72c.47,0,.83-.11,1.08-.33s.37-.55,.37-.99Z"/>
            <path class="cls-24" d="M413.08,261.79c.27,.22,.4,.57,.4,1.04s-.14,.81-.41,1.03c-.28,.22-.7,.33-1.26,.33h-.69v1.13h-.65v-3.87h1.33c.59,0,1.01,.11,1.28,.34Zm-.46,1.6c.13-.14,.2-.34,.2-.61s-.08-.46-.25-.57c-.17-.11-.43-.17-.78-.17h-.66v1.55h.76c.36,0,.61-.07,.74-.21Z"/>
            <path class="cls-24" d="M414.59,264.44l-.39,.88h-.7l1.71-3.87h.7l1.71,3.87h-.7l-.39-.88h-1.94Zm1.67-.6l-.7-1.59-.7,1.59h1.41Z"/>
            <path class="cls-24" d="M421.05,261.45h.65v3.87h-.71l-2.19-2.82v2.82h-.65v-3.87h.65l2.25,2.89v-2.89Z"/>
            <path class="cls-24" d="M424.55,265.32h-.73l-1.56-3.87h.73l1.19,2.89,1.19-2.89h.73l-1.56,3.87Z"/>
            <path class="cls-24" d="M429.37,261.45v.61h-2.06v1.02h1.85v.58h-1.85v1.04h2.13v.61h-2.78v-3.87h2.72Z"/>
            <path class="cls-24" d="M430.28,265.32v-3.87h.65v3.25h1.77v.62h-2.42Z"/>
          </g>
          <g>
            <path class="cls-24" d="M459.15,226.64h.65v3.87h-.71l-2.19-2.82v2.82h-.65v-3.87h.65l2.25,2.89v-2.89Z"/>
            <path class="cls-24" d="M463.6,226.64v.61h-2.06v1.02h1.85v.58h-1.85v1.04h2.13v.61h-2.78v-3.87h2.72Z"/>
            <path class="cls-24" d="M465.71,229.42l.86-2.78h.59l.86,2.78,.97-2.78h.7l-1.35,3.87h-.65l-.81-2.65h-.04l-.81,2.65h-.65l-1.35-3.87h.7l.97,2.78Z"/>
            <path class="cls-24" d="M454.42,233.62c.27,.23,.4,.57,.4,1.04s-.14,.81-.41,1.03c-.28,.22-.7,.33-1.26,.33h-.69v1.13h-.65v-3.87h1.33c.59,0,1.01,.11,1.28,.34Zm-.46,1.6c.13-.14,.2-.34,.2-.61s-.08-.46-.25-.57-.43-.17-.78-.17h-.66v1.55h.76c.36,0,.61-.07,.74-.21Z"/>
            <path class="cls-24" d="M455.93,236.27l-.39,.88h-.7l1.71-3.87h.7l1.71,3.87h-.7l-.39-.88h-1.94Zm1.67-.6l-.7-1.59-.7,1.59h1.41Z"/>
            <path class="cls-24" d="M462.39,233.28h.65v3.87h-.71l-2.19-2.82v2.82h-.65v-3.87h.65l2.25,2.89v-2.89Z"/>
            <path class="cls-24" d="M465.88,237.15h-.73l-1.56-3.87h.73l1.19,2.89,1.19-2.89h.73l-1.56,3.87Z"/>
            <path class="cls-24" d="M470.71,233.28v.61h-2.06v1.02h1.85v.58h-1.85v1.04h2.13v.61h-2.78v-3.87h2.72Z"/>
            <path class="cls-24" d="M471.61,237.15v-3.87h.65v3.25h1.77v.62h-2.42Z"/>
          </g>
          <g>
            <path class="cls-24" d="M386.25,147.04h.65v1.89l1.77-1.89h.83l-1.56,1.69,1.58,2.18h-.77l-1.28-1.69-.56,.61v1.08h-.65v-3.87Z"/>
            <path class="cls-24" d="M390.69,150.03l-.39,.88h-.7l1.71-3.87h.7l1.71,3.87h-.7l-.39-.88h-1.94Zm1.67-.6l-.7-1.59-.7,1.59h1.41Z"/>
            <path class="cls-24" d="M394.25,150.91v-3.87h.65v3.25h1.77v.62h-2.42Z"/>
            <path class="cls-24" d="M397.93,150.03l-.39,.88h-.7l1.71-3.87h.7l1.71,3.87h-.7l-.39-.88h-1.94Zm1.67-.6l-.7-1.59-.7,1.59h1.41Z"/>
            <path class="cls-24" d="M402.14,150.91h-.65v-3.87h1.02l1.17,2.43,1.17-2.43h1.01v3.87h-.65v-3.02l-1.35,2.68h-.37l-1.34-2.68v3.02Z"/>
            <path class="cls-24" d="M408.63,150.91h-1.69v-3.87h1.51c.26,0,.49,.03,.68,.09,.19,.06,.33,.15,.42,.25,.18,.2,.27,.42,.27,.68,0,.3-.1,.53-.29,.68-.07,.05-.12,.08-.14,.1s-.07,.03-.14,.06c.24,.05,.43,.16,.57,.32,.14,.16,.21,.37,.21,.61,0,.27-.09,.51-.28,.71-.22,.24-.59,.36-1.12,.36Zm-1.04-2.26h.83c.47,0,.71-.16,.71-.48,0-.18-.06-.32-.17-.4s-.29-.12-.53-.12h-.84v1Zm0,1.66h1.02c.24,0,.42-.04,.55-.11,.13-.08,.19-.22,.19-.43,0-.34-.28-.51-.83-.51h-.94v1.06Z"/>
            <path class="cls-24" d="M414.08,150.38c-.39,.38-.88,.57-1.45,.57s-1.06-.19-1.45-.57c-.39-.38-.59-.86-.59-1.43s.2-1.05,.59-1.43c.39-.38,.87-.57,1.45-.57s1.06,.19,1.45,.57c.39,.38,.59,.86,.59,1.43s-.2,1.05-.59,1.43Zm-.48-2.42c-.26-.27-.59-.41-.97-.41s-.71,.14-.97,.41c-.26,.27-.4,.6-.4,.99s.13,.72,.4,.99,.59,.41,.97,.41,.71-.14,.97-.41c.26-.27,.4-.6,.4-.99s-.13-.72-.4-.99Z"/>
            <path class="cls-24" d="M415.49,150.91v-3.87h.65v3.25h1.77v.62h-2.42Z"/>
            <path class="cls-24" d="M418.62,147.04h.65v3.87h-.65v-3.87Z"/>
          </g>
          <g>
            <rect class="cls-2" x="463.56" y="262.72" width="39.63" height="8.3"/>
            <g>
              <path class="cls-3" d="M468.5,266.46c.17,.08,.3,.2,.4,.35,.09,.15,.14,.33,.14,.52,0,.21-.05,.39-.16,.55-.1,.16-.25,.28-.42,.37s-.38,.13-.6,.13c-.44,0-.79-.14-1.03-.42-.24-.28-.37-.67-.37-1.19,0-.36,.07-.67,.2-.93s.32-.45,.56-.59,.51-.2,.83-.2c.17,0,.32,.02,.47,.05,.15,.04,.27,.09,.38,.15l-.22,.45c-.16-.1-.36-.16-.61-.16-.31,0-.55,.1-.73,.29-.18,.19-.26,.47-.26,.83h0c.09-.11,.22-.19,.36-.25s.31-.09,.5-.09c.21,0,.4,.04,.57,.12Zm-.22,1.3c.12-.1,.17-.23,.17-.4s-.06-.3-.17-.4c-.12-.1-.27-.15-.47-.15s-.35,.05-.47,.16c-.12,.1-.18,.24-.18,.4s.06,.29,.18,.39c.12,.1,.28,.15,.49,.15,.19,0,.34-.05,.46-.15Z"/>
              <path class="cls-3" d="M474.01,268.33v-2.14s-1.07,1.77-1.07,1.77h-.27l-1.06-1.74v2.11h-.57v-3.23h.49l1.28,2.14,1.26-2.14h.49v3.23s-.56,0-.56,0Z"/>
              <path class="cls-3" d="M475.54,265.11h.6v3.23h-.6v-3.23Z"/>
              <path class="cls-3" d="M479.97,265.11v3.23h-.49l-1.78-2.19v2.19h-.59v-3.23h.49l1.78,2.19v-2.19h.59Z"/>
              <path class="cls-3" d="M482.29,264.91h.53v4.32h-.53v-4.32Z"/>
              <path class="cls-3" d="M487.26,267.83v.51h-2.38v-.4l1.28-1.22c.14-.14,.24-.26,.29-.36,.05-.1,.08-.21,.08-.31,0-.15-.05-.27-.15-.35-.1-.08-.25-.12-.45-.12-.33,0-.58,.11-.76,.34l-.42-.32c.13-.17,.3-.3,.51-.39s.45-.14,.72-.14c.35,0,.63,.08,.84,.25s.31,.39,.31,.68c0,.17-.04,.34-.11,.49-.07,.15-.22,.33-.42,.53l-.86,.82h1.52Z"/>
              <path class="cls-3" d="M487.83,268.26c-.07-.07-.11-.16-.11-.27s.04-.21,.11-.28c.07-.07,.16-.11,.27-.11s.2,.04,.27,.11c.07,.07,.11,.16,.11,.28s-.04,.2-.11,.27c-.07,.07-.16,.11-.27,.11s-.19-.04-.27-.11Z"/>
              <path class="cls-3" d="M491.35,267.83v.51h-2.38v-.4l1.28-1.22c.14-.14,.24-.26,.29-.36,.05-.1,.08-.21,.08-.31,0-.15-.05-.27-.15-.35-.1-.08-.25-.12-.45-.12-.33,0-.58,.11-.76,.34l-.42-.32c.13-.17,.3-.3,.51-.39s.45-.14,.72-.14c.35,0,.63,.08,.84,.25s.31,.39,.31,.68c0,.17-.04,.34-.11,.49-.07,.15-.22,.33-.42,.53l-.86,.82h1.52Z"/>
              <path class="cls-3" d="M494.49,266.98l-.51,.53v.83h-.6v-3.23h.6v1.66l1.6-1.66h.67l-1.36,1.44,1.44,1.79h-.7l-1.14-1.35Z"/>
              <path class="cls-3" d="M499.8,268.33v-2.14s-1.07,1.77-1.07,1.77h-.27l-1.06-1.74v2.11h-.57v-3.23h.49l1.28,2.14,1.26-2.14h.49v3.23s-.56,0-.56,0Z"/>
            </g>
          </g>
          <g>
            <rect class="cls-2" x="320.37" y="280.44" width="39.75" height="8.3"/>
            <g>
              <path class="cls-3" d="M325.72,282.98v.4l-1.25,2.83h-.64l1.21-2.72h-1.27v.55h-.56v-1.06h2.51Z"/>
              <path class="cls-3" d="M330.74,286.21v-2.14s-1.07,1.77-1.07,1.77h-.27l-1.06-1.74v2.11h-.57v-3.23h.49l1.28,2.14,1.26-2.14h.49v3.23s-.56,0-.56,0Z"/>
              <path class="cls-3" d="M332.27,282.98h.6v3.23h-.6v-3.23Z"/>
              <path class="cls-3" d="M336.71,282.98v3.23h-.49l-1.78-2.19v2.19h-.6v-3.23h.49l1.78,2.19v-2.19h.6Z"/>
              <path class="cls-3" d="M339.03,282.78h.53v4.32h-.53v-4.32Z"/>
              <path class="cls-3" d="M343.99,285.7v.51h-2.38v-.4l1.28-1.22c.14-.14,.24-.26,.29-.36,.05-.1,.08-.21,.08-.31,0-.15-.05-.27-.15-.35-.1-.08-.25-.12-.45-.12-.33,0-.58,.11-.76,.34l-.42-.32c.13-.17,.3-.3,.51-.39s.45-.14,.72-.14c.35,0,.63,.08,.84,.25s.31,.39,.31,.68c0,.17-.04,.34-.11,.49-.07,.15-.22,.33-.42,.53l-.86,.82h1.52Z"/>
              <path class="cls-3" d="M344.57,286.13c-.07-.07-.11-.16-.11-.27s.04-.21,.11-.28c.07-.07,.16-.11,.27-.11s.2,.04,.27,.11c.07,.07,.11,.16,.11,.28s-.04,.2-.11,.27c-.07,.07-.16,.11-.27,.11s-.19-.04-.27-.11Z"/>
              <path class="cls-3" d="M347.8,284.61c.16,.17,.23,.37,.23,.62,0,.19-.05,.36-.14,.51-.1,.15-.24,.28-.43,.37-.19,.09-.43,.14-.7,.14-.23,0-.45-.03-.67-.1-.21-.07-.4-.16-.55-.27l.26-.47c.12,.1,.26,.18,.43,.23s.34,.08,.52,.08c.21,0,.38-.04,.5-.13s.18-.21,.18-.36-.06-.27-.17-.35c-.12-.08-.29-.13-.53-.13h-.3v-.41l.73-.87h-1.47v-.5h2.2v.4l-.78,.93c.3,.04,.53,.14,.68,.3Z"/>
              <path class="cls-3" d="M351.23,284.86l-.51,.53v.83h-.6v-3.23h.6v1.66l1.6-1.66h.67l-1.36,1.44,1.44,1.79h-.7l-1.14-1.35Z"/>
              <path class="cls-3" d="M356.54,286.21v-2.14s-1.07,1.77-1.07,1.77h-.27l-1.06-1.74v2.11h-.57v-3.23h.49l1.28,2.14,1.26-2.14h.49v3.23s-.56,0-.56,0Z"/>
            </g>
          </g>
          <g>
            <rect class="cls-2" x="546.92" y="268.88" width="40.96" height="8.3"/>
            <g>
              <path class="cls-3" d="M551.23,271.41v3.23h-.6v-2.73h-.68v-.5h1.28Z"/>
              <path class="cls-3" d="M554.3,274.13v.51h-2.38v-.4l1.28-1.22c.14-.14,.24-.26,.29-.36,.05-.1,.08-.21,.08-.31,0-.15-.05-.27-.15-.35-.1-.08-.25-.12-.45-.12-.33,0-.58,.11-.76,.34l-.42-.32c.13-.17,.3-.3,.51-.39s.45-.14,.72-.14c.35,0,.63,.08,.84,.25s.31,.39,.31,.68c0,.17-.04,.34-.11,.49-.07,.15-.22,.33-.42,.53l-.86,.82h1.52Z"/>
              <path class="cls-3" d="M559.3,274.64v-2.14s-1.07,1.77-1.07,1.77h-.27l-1.06-1.74v2.11h-.57v-3.23h.49l1.28,2.14,1.26-2.14h.49v3.23s-.56,0-.56,0Z"/>
              <path class="cls-3" d="M560.83,271.41h.6v3.23h-.6v-3.23Z"/>
              <path class="cls-3" d="M565.26,271.41v3.23h-.49l-1.78-2.19v2.19h-.59v-3.23h.49l1.78,2.19v-2.19h.59Z"/>
              <path class="cls-3" d="M567.59,271.22h.53v4.32h-.53v-4.32Z"/>
              <path class="cls-3" d="M572.33,271.78c.25,.28,.37,.67,.37,1.19,0,.36-.07,.67-.2,.93-.13,.26-.32,.45-.56,.59-.24,.13-.51,.2-.83,.2-.17,0-.32-.02-.47-.05-.15-.04-.27-.09-.38-.15l.22-.45c.16,.1,.36,.16,.61,.16,.31,0,.55-.09,.73-.29,.17-.19,.26-.47,.26-.83h0c-.1,.11-.22,.19-.36,.25-.15,.06-.31,.08-.5,.08-.21,0-.4-.04-.57-.12s-.3-.2-.4-.35c-.1-.15-.14-.32-.14-.52,0-.21,.05-.39,.16-.55s.25-.28,.42-.37c.18-.09,.38-.13,.6-.13,.44,0,.79,.14,1.03,.42Zm-.51,1c.12-.1,.18-.24,.18-.4s-.06-.29-.18-.39c-.12-.1-.28-.15-.49-.15-.19,0-.34,.05-.46,.15-.12,.1-.17,.23-.17,.4s.06,.3,.17,.4,.27,.15,.47,.15,.35-.05,.47-.16Z"/>
              <path class="cls-3" d="M573.23,274.56c-.07-.07-.11-.16-.11-.27s.04-.21,.11-.28c.07-.07,.16-.11,.27-.11s.2,.04,.27,.11c.07,.07,.11,.16,.11,.28s-.04,.2-.11,.27c-.07,.07-.16,.11-.27,.11s-.19-.04-.27-.11Z"/>
              <path class="cls-3" d="M575.4,271.41v3.23h-.6v-2.73h-.68v-.5h1.28Z"/>
              <path class="cls-3" d="M578.85,273.29l-.51,.53v.83h-.6v-3.23h.6v1.66l1.6-1.66h.67l-1.36,1.44,1.44,1.79h-.7l-1.14-1.35Z"/>
              <path class="cls-3" d="M584.15,274.64v-2.14s-1.07,1.77-1.07,1.77h-.27l-1.06-1.74v2.11h-.57v-3.23h.49l1.28,2.14,1.26-2.14h.49v3.23s-.56,0-.56,0Z"/>
            </g>
          </g>
          <g>
            <rect class="cls-2" x="512.96" y="334.46" width="38.9" height="8.3"/>
            <g>
              <path class="cls-3" d="M517.43,337.1v3.23h-.6v-2.73h-.68v-.5h1.28Z"/>
              <path class="cls-3" d="M518.82,340.18c-.2-.13-.36-.32-.48-.57-.12-.25-.17-.55-.17-.89s.06-.64,.17-.89c.12-.25,.28-.44,.48-.57,.2-.13,.43-.2,.69-.2s.49,.07,.69,.2,.37,.32,.48,.57c.12,.25,.17,.55,.17,.89s-.06,.64-.17,.89c-.12,.25-.28,.44-.48,.57-.2,.13-.44,.2-.69,.2s-.49-.07-.69-.2Zm1.24-.61c.13-.19,.2-.48,.2-.85s-.07-.66-.2-.85-.32-.29-.55-.29-.41,.1-.54,.29-.2,.47-.2,.85,.07,.66,.2,.85c.13,.19,.31,.29,.54,.29s.41-.09,.55-.29Z"/>
              <path class="cls-3" d="M525.92,340.33v-2.14s-1.07,1.77-1.07,1.77h-.27l-1.06-1.74v2.11h-.57v-3.23h.49l1.28,2.14,1.26-2.14h.49v3.23s-.56,0-.56,0Z"/>
              <path class="cls-3" d="M527.45,337.1h.6v3.23h-.6v-3.23Z"/>
              <path class="cls-3" d="M531.88,337.1v3.23h-.49l-1.78-2.19v2.19h-.59v-3.23h.49l1.78,2.19v-2.19h.59Z"/>
              <path class="cls-3" d="M534.21,336.9h.53v4.32h-.53v-4.32Z"/>
              <path class="cls-3" d="M539.71,339.59h-.57v.73h-.58v-.73h-1.77v-.42l1.59-2.08h.64l-1.5,1.99h1.06v-.65h.56v.65h.57v.51Z"/>
              <path class="cls-3" d="M542.77,338.98l-.51,.53v.83h-.6v-3.23h.6v1.66l1.6-1.66h.67l-1.36,1.44,1.44,1.79h-.7l-1.14-1.35Z"/>
              <path class="cls-3" d="M548.07,340.33v-2.14s-1.07,1.77-1.07,1.77h-.27l-1.06-1.74v2.11h-.57v-3.23h.49l1.28,2.14,1.26-2.14h.49v3.23s-.56,0-.56,0Z"/>
            </g>
          </g>
        </g>
      </g>
    </g>
  </g>
</svg>