<svg width="9" height="6" viewBox="0 0 9 6" fill="none" xmlns="http://www.w3.org/2000/svg">
<path d="M4.49294 5.99797C4.343 5.99836 4.19769 5.92865 4.08223 5.80093L0.231828 1.51743C0.100775 1.37202 0.0183608 1.16306 0.0027155 0.936524C-0.0129298 0.70999 0.0394754 0.484437 0.148402 0.309485C0.257329 0.134532 0.413856 0.0245113 0.583547 0.00362514C0.753238 -0.017261 0.922194 0.0526984 1.05325 0.198113L4.49294 4.03613L7.93264 0.335186C7.99828 0.264023 8.07381 0.210881 8.15488 0.178813C8.23596 0.146745 8.32098 0.136385 8.40507 0.148326C8.48915 0.160268 8.57064 0.194276 8.64485 0.248397C8.71906 0.302518 8.78452 0.375685 8.83748 0.463691C8.89625 0.551778 8.94076 0.655119 8.96822 0.767238C8.99568 0.879357 9.0055 0.99784 8.99707 1.11526C8.98864 1.23268 8.96213 1.34652 8.91921 1.44963C8.87629 1.55273 8.81788 1.6429 8.74764 1.71447L4.89723 5.85233C4.77846 5.95986 4.63611 6.01114 4.49294 5.99797Z" fill="#231F20"/>
</svg>
