<svg width="188" height="188" viewBox="0 0 188 188" fill="none" xmlns="http://www.w3.org/2000/svg">
<path d="M108.018 148.397C106.851 148.401 105.699 148.143 104.644 147.643C103.59 147.143 102.661 146.413 101.926 145.507L64.2018 98.6443C63.0531 97.2468 62.425 95.4938 62.425 93.6847C62.425 91.8756 63.0531 90.1226 64.2018 88.7251L103.254 41.8625C104.58 40.2675 106.485 39.2645 108.55 39.0741C110.615 38.8836 112.672 39.5215 114.267 40.8472C115.862 42.1729 116.865 44.078 117.055 46.1433C117.246 48.2085 116.608 50.2649 115.282 51.8599L80.3694 93.7237L114.11 135.588C115.066 136.734 115.672 138.13 115.859 139.611C116.045 141.091 115.804 142.594 115.163 143.941C114.522 145.289 113.508 146.425 112.242 147.214C110.976 148.004 109.51 148.414 108.018 148.397Z" fill="#C49A6C"/>
</svg>
