<svg width="56" height="110" viewBox="0 0 56 110" fill="none" xmlns="http://www.w3.org/2000/svg">
<path d="M46.018 109.397C44.8512 109.401 43.6983 109.143 42.6441 108.643C41.5898 108.143 40.661 107.413 39.9259 106.507L2.20158 59.6443C1.05281 58.2468 0.424805 56.4938 0.424805 54.6847C0.424805 52.8756 1.05281 51.1226 2.20158 49.7251L41.2537 2.86255C42.5794 1.26753 44.4845 0.264481 46.5498 0.0740654C48.615 -0.116351 50.6714 0.521463 52.2664 1.84719C53.8614 3.17292 54.8644 5.07797 55.0549 7.14325C55.2453 9.20854 54.6075 11.2649 53.2817 12.8599L18.3692 54.7237L52.1102 96.5876C53.0653 97.7341 53.6719 99.1301 53.8585 100.611C54.045 102.091 53.8035 103.594 53.1626 104.941C52.5217 106.289 51.5082 107.425 50.2421 108.214C48.9759 109.004 47.5101 109.414 46.018 109.397Z" fill="url(#paint0_linear_902_191)"/>
<defs>
<linearGradient id="paint0_linear_902_191" x1="0.424805" y1="0.0410156" x2="93.2186" y2="1.05024" gradientUnits="userSpaceOnUse">
<stop stop-color="#D59647"/>
<stop offset="0.203125" stop-color="#AE733A"/>
<stop offset="0.463542" stop-color="#D09245"/>
<stop offset="0.713542" stop-color="#E0B580"/>
<stop offset="1" stop-color="#D59647"/>
</linearGradient>
</defs>
</svg>
