<svg width="188" height="188" viewBox="0 0 188 188" fill="none" xmlns="http://www.w3.org/2000/svg">
<path d="M78.1047 148.398C76.2798 148.401 74.5112 147.766 73.106 146.601C72.3151 145.945 71.6614 145.14 71.1822 144.231C70.703 143.323 70.4078 142.328 70.3135 141.305C70.2192 140.282 70.3276 139.251 70.6326 138.27C70.9375 137.289 71.433 136.378 72.0907 135.588L107.081 93.7246L73.3403 51.7826C72.6916 50.9837 72.2071 50.0644 71.9147 49.0777C71.6223 48.0909 71.5279 47.0561 71.6368 46.0327C71.7456 45.0093 72.0557 44.0175 72.5491 43.1144C73.0425 42.2112 73.7096 41.4144 74.5119 40.7699C75.32 40.0589 76.2664 39.5225 77.2916 39.1946C78.3168 38.8666 79.3987 38.7541 80.4695 38.8641C81.5402 38.9742 82.5767 39.3043 83.5138 39.8339C84.4509 40.3634 85.2685 41.081 85.9151 41.9415L123.639 88.804C124.788 90.2015 125.416 91.9545 125.416 93.7636C125.416 95.5727 124.788 97.3257 123.639 98.7232L84.5873 145.586C83.8038 146.531 82.8085 147.278 81.6822 147.767C80.5558 148.255 79.3302 148.471 78.1047 148.398Z" fill="#C49A6C"/>
</svg>
