<svg width="56" height="111" viewBox="0 0 56 111" fill="none" xmlns="http://www.w3.org/2000/svg">
<path d="M8.10444 110.398C6.27952 110.401 4.51096 109.766 3.10577 108.601C2.3149 107.945 1.66115 107.14 1.18197 106.231C0.702783 105.323 0.407578 104.328 0.31326 103.305C0.218943 102.282 0.327367 101.251 0.632321 100.27C0.937275 99.2889 1.43276 98.3776 2.09041 97.5884L37.0811 55.7246L3.34009 13.7826C2.69131 12.9837 2.20681 12.0644 1.91446 11.0777C1.6221 10.0909 1.52764 9.05608 1.63651 8.03269C1.74538 7.0093 2.05543 6.01752 2.54885 5.11435C3.04226 4.21118 3.70931 3.41443 4.51165 2.76989C5.31976 2.05886 6.26612 1.52254 7.29133 1.19458C8.31654 0.866631 9.39849 0.754132 10.4692 0.864141C11.54 0.97415 12.5765 1.30429 13.5136 1.83386C14.4507 2.36342 15.2682 3.08096 15.9149 3.94146L53.6392 50.804C54.788 52.2015 55.416 53.9545 55.416 55.7636C55.416 57.5727 54.788 59.3257 53.6392 60.7232L14.5871 107.586C13.8036 108.531 12.8083 109.278 11.6819 109.767C10.5556 110.255 9.32994 110.471 8.10444 110.398Z" fill="url(#paint0_linear_902_188)"/>
<defs>
<linearGradient id="paint0_linear_902_188" x1="0.280273" y1="0.823242" x2="93.8762" y2="1.84782" gradientUnits="userSpaceOnUse">
<stop stop-color="#D59647"/>
<stop offset="0.203125" stop-color="#AE733A"/>
<stop offset="0.463542" stop-color="#D09245"/>
<stop offset="0.713542" stop-color="#E0B580"/>
<stop offset="1" stop-color="#D59647"/>
</linearGradient>
</defs>
</svg>
