<svg width="15" height="15" viewBox="0 0 15 15" fill="none" xmlns="http://www.w3.org/2000/svg">
<path d="M6.01418 8.03843L6.56946 7.5L6.01418 6.96157L0.834581 1.93907L1.75693 1.0447L6.96971 6.09936L7.49181 6.60563L8.01391 6.09936L13.2078 1.06299L14.1307 1.95791L8.98639 6.98171L8.43499 7.5202L8.9883 8.05673L14.149 13.0609L13.2267 13.9553L8.01391 8.90064L7.49181 8.39437L6.96971 8.90064L1.7758 13.937L0.853446 13.0426L6.01418 8.03843ZM0.69429 1.80302C0.694824 1.80353 0.695354 1.80405 0.695879 1.80458L0.69433 1.80307L0.69429 1.80302Z" stroke="url(#paint0_linear_699_814)" stroke-width="1.5"/>
<defs>
<linearGradient id="paint0_linear_699_814" x1="15" y1="15" x2="-1.18894" y2="13.583" gradientUnits="userSpaceOnUse">
<stop stop-color="#D59647"/>
<stop offset="0.255208" stop-color="#68421D"/>
<stop offset="0.526042" stop-color="#D09245"/>
<stop offset="0.78125" stop-color="#E0B580"/>
<stop offset="1" stop-color="#D59647"/>
</linearGradient>
</defs>
</svg>
