<svg width="57" height="28" viewBox="0 0 57 28" fill="none" xmlns="http://www.w3.org/2000/svg">
<path d="M0.172229 8.34151L5.49208 13.5L0.172229 18.6585C-0.0541067 18.878 -0.0541067 19.2255 0.172229 19.4268L1.7758 20.9817L7.49181 15.4391L13.2267 21L14.8302 19.4451C15.0566 19.2256 15.0566 18.878 14.8302 18.6768L9.5104 13.5183L14.8114 8.34151C15.0377 8.12204 15.0377 7.77447 14.8114 7.57322L13.2078 6.01829L7.49181 11.5609L1.75693 6L0.153362 7.55493C-0.0541563 7.7744 -0.0541553 8.12196 0.172181 8.34144L0.172229 8.34151Z" fill="#1C2C58"/>
<path d="M26.5071 18.08C27.5971 18.08 28.5371 17.7 29.1771 16.98L28.5271 16.35C27.9871 16.92 27.3271 17.19 26.5571 17.19C24.9771 17.19 23.8071 16.05 23.8071 14.5C23.8071 12.95 24.9771 11.81 26.5571 11.81C27.3271 11.81 27.9871 12.07 28.5271 12.64L29.1771 12.01C28.5371 11.29 27.5971 10.92 26.5171 10.92C24.3871 10.92 22.8071 12.43 22.8071 14.5C22.8071 16.57 24.3871 18.08 26.5071 18.08ZM30.6037 18H35.3937V17.13H31.6037V11H30.6037V18ZM39.5743 18.08C41.7043 18.08 43.2843 16.56 43.2843 14.5C43.2843 12.44 41.7043 10.92 39.5743 10.92C37.4243 10.92 35.8443 12.45 35.8443 14.5C35.8443 16.55 37.4243 18.08 39.5743 18.08ZM39.5743 17.19C38.0043 17.19 36.8443 16.05 36.8443 14.5C36.8443 12.95 38.0043 11.81 39.5743 11.81C41.1243 11.81 42.2843 12.95 42.2843 14.5C42.2843 16.05 41.1243 17.19 39.5743 17.19ZM46.8527 18.08C48.7027 18.08 49.5627 17.16 49.5627 16.09C49.5627 13.52 45.3227 14.59 45.3227 12.88C45.3227 12.27 45.8327 11.77 47.0227 11.77C47.6427 11.77 48.3327 11.95 48.9427 12.34L49.2727 11.54C48.6927 11.14 47.8427 10.92 47.0227 10.92C45.1827 10.92 44.3427 11.84 44.3427 12.92C44.3427 15.52 48.5827 14.44 48.5827 16.15C48.5827 16.76 48.0627 17.23 46.8527 17.23C45.9527 17.23 45.0627 16.89 44.5427 16.42L44.1727 17.2C44.7327 17.72 45.7827 18.08 46.8527 18.08ZM52.0236 17.13V14.87H55.5336V14.02H52.0236V11.87H55.9636V11H51.0236V18H56.1036V17.13H52.0236Z" fill="#1C2C58"/>
</svg>
