<svg width="21" height="21" viewBox="0 0 21 21" fill="none" xmlns="http://www.w3.org/2000/svg">
<path d="M13.8882 1.87342L18.4307 1.8368L13.3669 6.82983L14.4095 7.85781L19.4733 2.86477L19.4359 7.34382H20.9253L20.9999 0.331543L13.8883 0.405042L13.8882 1.87342Z" fill="white"/>
<path d="M19.4359 14.0254L19.4733 18.4676L14.4095 13.4746L13.3669 14.5394L18.4307 19.5325L13.8882 19.4956V20.9643L20.9998 21.0009L20.9253 13.9886L19.4359 14.0254Z" fill="white"/>
<path d="M1.71265 6.97642L1.67551 2.53421L6.73928 7.52725L7.78183 6.46243L2.71805 1.46939L7.26056 1.50627V0.0375974L0.148926 0.000976562L0.223466 7.01325L1.71265 6.97642Z" fill="white"/>
<path d="M7.11167 19.4956L2.56916 19.5325L7.63294 14.5394L6.5904 13.4746L1.52662 18.4676L1.56402 14.0254L0.0745401 13.9886L0 21.0008L7.11163 20.9642L7.11167 19.4956Z" fill="white"/>
</svg>
