<svg width="184" height="49" viewBox="0 0 184 49" fill="none" xmlns="http://www.w3.org/2000/svg">
<g clip-path="url(#clip0_699_575)">
<path d="M0 18.7642C0 17.8918 0.688059 17.2037 1.56047 17.2037H5.79787C9.18364 17.2037 11.2322 19.2108 11.2322 22.111V22.1526C11.2322 25.4371 8.67733 27.1403 5.49409 27.1403H3.12093V29.9601C3.12093 30.8325 2.43287 31.5206 1.56047 31.5206C0.688059 31.5206 0 30.8325 0 29.9601V18.7642H0ZM5.59535 24.3596C7.15581 24.3596 8.06977 23.4274 8.06977 22.2097V22.1681C8.06977 20.7687 7.0961 20.0183 5.53563 20.0183H3.12353V24.357H5.59535V24.3596Z" fill="#1C2C58"/>
<path d="M11.336 29.3889L16.2823 18.2164C16.6276 17.4452 17.256 16.9805 18.1076 16.9805H18.2893C19.141 16.9805 19.7485 17.4478 20.0939 18.2164L25.0401 29.3889C25.1414 29.6122 25.2011 29.8147 25.2011 30.0172C25.2011 30.8481 24.552 31.518 23.7211 31.518C22.9915 31.518 22.5034 31.0922 22.2204 30.4431L21.2675 28.2127H15.0282L14.0338 30.5443C13.7689 31.1519 13.2418 31.518 12.5927 31.518C11.7826 31.518 11.1543 30.8689 11.1543 30.0588C11.1543 29.8355 11.2348 29.6122 11.336 29.3889ZM20.1172 25.4553L18.1491 20.7713L16.181 25.4553H20.1172Z" fill="#1C2C58"/>
<path d="M27.2568 18.6812C27.2568 17.8088 27.9475 17.1207 28.8173 17.1207H29.1419C29.8922 17.1207 30.3388 17.4868 30.7646 18.0321L36.7858 25.9408V18.6215C36.7858 17.7698 37.4765 17.0792 38.3281 17.0792C39.1797 17.0792 39.8678 17.7698 39.8678 18.6215V29.916C39.8678 30.7884 39.1797 31.4765 38.3073 31.4765H38.2061C37.4557 31.4765 37.0091 31.1104 36.5833 30.5625L30.3388 22.3707V29.9731C30.3388 30.8248 29.6482 31.5128 28.7965 31.5128C27.9449 31.5128 27.2568 30.8248 27.2568 29.9731V18.6812Z" fill="#1C2C58"/>
<path d="M46.6635 30.3808L42.0626 19.3718C41.9613 19.1278 41.8809 18.8863 41.8809 18.6215C41.8809 17.749 42.5715 17.0792 43.4413 17.0792C44.2514 17.0792 44.7785 17.5465 45.0226 18.1749L48.5719 27.3611L52.1602 18.0736C52.3627 17.5673 52.9106 17.0792 53.661 17.0792C54.5126 17.0792 55.2032 17.7283 55.2032 18.5799C55.2032 18.824 55.1228 19.0862 55.0423 19.2706L50.3998 30.3808C50.0753 31.1519 49.4885 31.6193 48.6368 31.6193H48.4343C47.5775 31.6193 46.9881 31.1519 46.6635 30.3808Z" fill="#1C2C58"/>
<path d="M57.1895 29.8355V18.7642C57.1895 17.8918 57.8801 17.2037 58.7499 17.2037H66.6172C67.3883 17.2037 68.0166 17.8321 68.0166 18.6032C68.0166 19.3744 67.3883 19.9819 66.6172 19.9819H60.2922V22.8614H65.7058C66.477 22.8614 67.1053 23.4897 67.1053 24.2609C67.1053 25.032 66.477 25.6396 65.7058 25.6396H60.2922V28.6203H66.7184C67.4896 28.6203 68.1179 29.2487 68.1179 30.0198C68.1179 30.791 67.4896 31.3985 66.7184 31.3985H58.7499C57.8801 31.3959 57.1895 30.7053 57.1895 29.8355Z" fill="#1C2C58"/>
<path d="M70.3711 18.6423C70.3711 17.7698 71.0618 17.0818 71.9316 17.0818C72.804 17.0818 73.492 17.7724 73.492 18.6423V28.5581H79.2717C80.0636 28.5581 80.692 29.1864 80.692 29.9784C80.692 30.7703 80.0636 31.3986 79.2717 31.3986H71.9316C71.0592 31.3986 70.3711 30.708 70.3711 29.8381V18.6423Z" fill="#1C2C58"/>
<path d="M94.9503 19.8391C96.0641 19.8391 96.9781 20.2052 97.8505 20.8544C98.0738 20.9972 98.3568 21.1581 98.7826 21.1581C99.6342 21.1581 100.325 20.4883 100.325 19.6366C100.325 19.0888 100.042 18.6448 99.7173 18.4007C98.5411 17.5283 97.1027 16.9623 94.9736 16.9623C90.9595 16.9623 88.0697 19.7664 87.636 23.3599H90.918C91.2841 21.3529 92.8627 19.8391 94.9503 19.8391ZM98.967 27.2987C98.6009 27.2987 98.2763 27.4416 98.0348 27.6441C97.1417 28.3529 96.2718 28.758 94.9529 28.758C92.8419 28.758 91.297 27.2312 90.9258 25.2372H87.6309C88.0515 28.8748 90.9907 31.6348 94.8516 31.6348C97.1235 31.6348 98.6242 30.9649 99.9017 29.8511C100.185 29.607 100.429 29.2227 100.429 28.7346C100.426 27.9479 99.7563 27.2987 98.967 27.2987Z" fill="#1C2C58"/>
<path d="M102.759 29.8355V18.7642C102.759 17.8918 103.449 17.2037 104.319 17.2037H112.186C112.958 17.2037 113.586 17.8321 113.586 18.6032C113.586 19.3744 112.958 19.9819 112.186 19.9819H105.859V22.8614H111.273C112.044 22.8614 112.672 23.4897 112.672 24.2609C112.672 25.032 112.044 25.6396 111.273 25.6396H105.859V28.6203H112.288C113.059 28.6203 113.687 29.2487 113.687 30.0198C113.687 30.791 113.059 31.3985 112.288 31.3985H104.319C103.447 31.3959 102.759 30.7053 102.759 29.8355Z" fill="#1C2C58"/>
<path d="M115.942 18.6812C115.942 17.8088 116.633 17.1207 117.503 17.1207H117.827C118.577 17.1207 119.024 17.4868 119.45 18.0321L125.471 25.9408V18.6215C125.471 17.7698 126.162 17.0792 127.011 17.0792C127.862 17.0792 128.553 17.7698 128.553 18.6215V29.916C128.553 30.7884 127.862 31.4765 126.993 31.4765H126.891C126.141 31.4765 125.694 31.1104 125.268 30.5625L119.024 22.3707V29.9731C119.024 30.8248 118.333 31.5128 117.482 31.5128C116.63 31.5128 115.939 30.8248 115.939 29.9731V18.6812H115.942Z" fill="#1C2C58"/>
<path d="M134.861 20.0806H131.86C131.068 20.0806 130.419 19.4315 130.419 18.6422C130.419 17.8503 131.068 17.2037 131.86 17.2037H140.986C141.778 17.2037 142.425 17.8528 142.425 18.6422C142.425 19.4341 141.776 20.0806 140.986 20.0806H137.985V29.9549C137.985 30.8273 137.294 31.5154 136.425 31.5154C135.552 31.5154 134.864 30.8273 134.864 29.9549V20.0806H134.861Z" fill="#1C2C58"/>
<path d="M144.293 18.7642C144.293 17.8918 144.984 17.2037 145.853 17.2037H150.781C152.586 17.2037 153.986 17.71 154.918 18.6422C155.71 19.4341 156.135 20.548 156.135 21.8851V21.9241C156.135 24.1544 155.019 25.5331 153.297 26.2446L155.468 28.88C155.772 29.2642 155.974 29.5888 155.974 30.0769C155.974 30.9493 155.245 31.5154 154.494 31.5154C153.786 31.5154 153.318 31.17 152.952 30.7053L149.912 26.8521H147.417V29.9549C147.417 30.8273 146.728 31.5154 145.856 31.5154C144.984 31.5154 144.296 30.8273 144.296 29.9549V18.7642H144.293ZM150.579 24.0973C152.1 24.0973 152.97 23.2872 152.97 22.0903V22.0513C152.97 20.7141 152.038 20.0235 150.517 20.0235H147.414V24.0999H150.579V24.0973Z" fill="#1C2C58"/>
<path d="M157.76 29.3889L162.709 18.2164C163.054 17.4452 163.682 16.9805 164.534 16.9805H164.716C165.567 16.9805 166.175 17.4478 166.52 18.2164L171.469 29.3889C171.57 29.6122 171.63 29.8147 171.63 30.0172C171.63 30.8481 170.981 31.518 170.15 31.518C169.421 31.518 168.932 31.0922 168.649 30.4431L167.697 28.2127H161.452L160.458 30.5443C160.193 31.1519 159.666 31.518 159.019 31.518C158.209 31.518 157.578 30.8689 157.578 30.0588C157.576 29.8355 157.659 29.6122 157.76 29.3889ZM166.539 25.4553L164.57 20.7713L162.605 25.4553H166.539Z" fill="#1C2C58"/>
<path d="M173.68 18.6423C173.68 17.7698 174.37 17.0818 175.24 17.0818C176.11 17.0818 176.801 17.7724 176.801 18.6423V28.5581H182.58C183.372 28.5581 184.001 29.1864 184.001 29.9784C184.001 30.7703 183.372 31.3986 182.58 31.3986H175.24C174.368 31.3986 173.68 30.708 173.68 29.8381V18.6423Z" fill="#1C2C58"/>
<path d="M97.2506 24.2999C97.2506 25.5721 96.2198 26.6029 94.9476 26.6029C93.6753 26.6029 92.6445 25.5721 92.6445 24.2999C92.6445 23.0276 93.6753 21.9968 94.9476 21.9968C96.2198 21.9968 97.2506 23.0276 97.2506 24.2999Z" fill="#C49A6C"/>
<path d="M59.4633 9.56249C58.8557 9.23274 58.378 8.77576 58.0352 8.19156C57.6899 7.60736 57.5186 6.95046 57.5186 6.21826C57.5186 5.48606 57.6925 4.82916 58.0404 4.24496C58.3884 3.66076 58.8661 3.20378 59.4763 2.87403C60.0838 2.54429 60.7641 2.37811 61.5197 2.37811C62.1298 2.37811 62.6881 2.48457 63.1944 2.69748C63.6981 2.91038 64.1265 3.21936 64.4744 3.62441L63.5787 4.46825C63.0386 3.88405 62.3739 3.59325 61.5846 3.59325C61.0731 3.59325 60.6135 3.7049 60.2085 3.92819C59.8034 4.15149 59.4867 4.46306 59.2582 4.86032C59.0297 5.25758 58.918 5.70936 58.918 6.21567C58.918 6.71938 59.0323 7.17116 59.2582 7.57101C59.4841 7.97087 59.8034 8.27984 60.2085 8.50314C60.6135 8.72643 61.0731 8.83808 61.5846 8.83808C62.3739 8.83808 63.0386 8.54208 63.5787 7.95269L64.4744 8.80692C64.1265 9.21197 63.6981 9.52095 63.1892 9.73385C62.6803 9.94676 62.1195 10.0532 61.5093 10.0532C60.7511 10.0584 60.0709 9.89483 59.4633 9.56249Z" fill="white"/>
<path d="M67.5 9.56255C66.8873 9.2328 66.4095 8.77323 66.059 8.18643C65.7085 7.59963 65.5371 6.94273 65.5371 6.21832C65.5371 5.49391 65.7111 4.83701 66.059 4.25021C66.4069 3.66342 66.8873 3.20384 67.5 2.8741C68.1102 2.54435 68.7982 2.37817 69.559 2.37817C70.3198 2.37817 71.0052 2.54435 71.618 2.8741C72.2282 3.20384 72.7085 3.66082 73.059 4.24502C73.4069 4.82922 73.5809 5.48612 73.5809 6.21832C73.5809 6.95052 73.4069 7.60742 73.059 8.19163C72.7111 8.77583 72.2308 9.2328 71.618 9.56255C71.0052 9.8923 70.3198 10.0585 69.559 10.0585C68.7982 10.0585 68.1128 9.8949 67.5 9.56255ZM70.904 8.50839C71.3012 8.2851 71.6154 7.97093 71.8439 7.57107C72.0724 7.16862 72.184 6.71944 72.184 6.22092C72.184 5.7224 72.0698 5.27322 71.8439 4.87077C71.6154 4.46832 71.3038 4.15674 70.904 3.93345C70.5067 3.71015 70.0575 3.59851 69.559 3.59851C69.0605 3.59851 68.6139 3.71015 68.214 3.93345C67.8168 4.15674 67.5026 4.47091 67.2741 4.87077C67.0456 5.27322 66.934 5.7224 66.934 6.22092C66.934 6.71944 67.0482 7.16862 67.2741 7.57107C67.5 7.97352 67.8142 8.2851 68.214 8.50839C68.6113 8.73169 69.0605 8.84333 69.559 8.84333C70.0575 8.84333 70.5041 8.73169 70.904 8.50839Z" fill="white"/>
<path d="M75.4795 2.48712H78.7432C79.5403 2.48712 80.2466 2.64291 80.8645 2.95189C81.4825 3.26086 81.9628 3.69966 82.3056 4.26309C82.6457 4.82912 82.8171 5.48083 82.8171 6.22082C82.8171 6.9608 82.6457 7.61251 82.3056 8.17854C81.9654 8.74457 81.4851 9.18077 80.8645 9.48975C80.244 9.79872 79.5377 9.95451 78.7432 9.95451H75.4795V2.48712ZM78.6783 8.77832C79.2262 8.77832 79.7065 8.67446 80.1245 8.46415C80.54 8.25384 80.8593 7.95524 81.0852 7.56837C81.3085 7.1815 81.4202 6.72972 81.4202 6.21822C81.4202 5.70672 81.3085 5.25753 81.0852 4.86807C80.8619 4.48119 80.54 4.1826 80.1245 3.97229C79.7091 3.76198 79.2262 3.65812 78.6783 3.65812H76.866V8.77832H78.6783Z" fill="white"/>
<path d="M90.3144 8.7887V9.95191H84.7139V2.48712H90.1638V3.65033H86.1004V5.59248H89.7042V6.73491H86.1004V8.7939H90.3144V8.7887Z" fill="white"/>
<path d="M98.9227 2.48712V9.95451H97.7802L93.6623 4.89922V9.95451H92.2861V2.48712H93.4286L97.5491 7.54241V2.48712H98.9227Z" fill="white"/>
<path d="M106.196 8.22531H102.463L101.728 9.95195H100.3L103.66 2.48456H105.025L108.396 9.95195H106.944L106.196 8.22531ZM105.737 7.1374L104.33 3.87366L102.933 7.1374H105.737Z" fill="white"/>
<path d="M116.629 9.95191L116.618 5.00308L114.165 9.10028H113.547L111.093 5.06799V9.95191H109.771V2.48712H110.914L113.879 7.43595L116.787 2.48712H117.93L117.94 9.95451H116.629V9.95191Z" fill="white"/>
<path d="M125.982 8.7887V9.95191H120.382V2.48712H125.832V3.65033H121.768V5.59248H125.372V6.73491H121.768V8.7939H125.982V8.7887Z" fill="white"/>
<path d="M43.207 43.6018H45.6866V44.5391H43.207V43.6018Z" fill="#1C2C58"/>
<path d="M53.1201 40.2681H54.2911V45.5856H57.5912V46.5774H53.1201V40.2681Z" fill="#1C2C58"/>
<path d="M60.2683 40.7769C60.1306 40.6471 60.0605 40.4861 60.0605 40.294C60.0605 40.1019 60.1306 39.9409 60.2683 39.8111C60.4059 39.6812 60.5772 39.6163 60.7824 39.6163C60.9875 39.6163 61.1588 39.6786 61.2965 39.8007C61.4341 39.9227 61.5042 40.0785 61.5042 40.2654C61.5042 40.4628 61.4367 40.6315 61.3016 40.7666C61.1666 40.9016 60.9927 40.9691 60.7824 40.9691C60.5798 40.9717 60.4085 40.9068 60.2683 40.7769ZM60.2163 41.7636H61.3432V46.5774H60.2163V41.7636Z" fill="#1C2C58"/>
<path d="M69.1295 41.7637L67.0653 46.5775H65.9021L63.8379 41.7637H65.0089L66.5044 45.3338L68.0467 41.7637H69.1295Z" fill="#1C2C58"/>
<path d="M76.0085 44.5315H72.2307C72.2956 44.8872 72.4696 45.1676 72.75 45.3753C73.0304 45.583 73.3757 45.6869 73.7912 45.6869C74.3209 45.6869 74.7545 45.5129 75.0972 45.165L75.7022 45.8583C75.4867 46.1179 75.2114 46.3126 74.8817 46.4451C74.5519 46.5775 74.1781 46.6424 73.7652 46.6424C73.2355 46.6424 72.7708 46.5359 72.3683 46.3282C71.9659 46.1179 71.6543 45.8245 71.4362 45.4506C71.2155 45.0741 71.1064 44.6509 71.1064 44.1758C71.1064 43.7084 71.2129 43.2852 71.4258 42.9087C71.6387 42.5322 71.9347 42.2414 72.3138 42.0311C72.6929 41.8208 73.1187 41.7169 73.5938 41.7169C74.0638 41.7169 74.4818 41.8208 74.8505 42.0285C75.2192 42.2362 75.5074 42.527 75.7151 42.9035C75.9229 43.28 76.0267 43.7136 76.0267 44.2069C76.0267 44.277 76.0189 44.3861 76.0085 44.5315ZM72.6773 42.9321C72.428 43.145 72.2774 43.4306 72.2229 43.7837H74.9544C74.9051 43.4358 74.7597 43.1528 74.513 42.9372C74.2663 42.7217 73.9599 42.6127 73.5938 42.6127C73.2329 42.6101 72.9266 42.7191 72.6773 42.9321Z" fill="#1C2C58"/>
<path d="M84.5049 46.2477C83.9908 45.9673 83.5883 45.583 83.2975 45.0897C83.0067 44.5964 82.8613 44.0407 82.8613 43.4228C82.8613 42.8048 83.0093 42.2466 83.3027 41.7559C83.5961 41.2625 84.0012 40.8783 84.5153 40.5978C85.0294 40.3174 85.6032 40.1798 86.2419 40.1798C86.7586 40.1798 87.2312 40.2707 87.657 40.4498C88.0828 40.629 88.4437 40.8912 88.7397 41.234L87.9815 41.9454C87.5246 41.4521 86.9637 41.2054 86.2964 41.2054C85.8628 41.2054 85.476 41.3015 85.1332 41.4884C84.7905 41.678 84.5231 41.9402 84.3309 42.2777C84.1388 42.6153 84.0427 42.997 84.0427 43.4228C84.0427 43.8486 84.1388 44.2303 84.3309 44.5678C84.5231 44.9054 84.7905 45.1676 85.1332 45.3571C85.476 45.5467 85.8628 45.6401 86.2964 45.6401C86.9637 45.6401 87.5246 45.3909 87.9815 44.8924L88.7397 45.6142C88.4463 45.9569 88.0828 46.2192 87.6544 46.3983C87.2234 46.5775 86.7508 46.6683 86.2341 46.6683C85.5928 46.6683 85.019 46.5281 84.5049 46.2477Z" fill="#1C2C58"/>
<path d="M95.8835 44.5315H92.1057C92.1706 44.8872 92.3446 45.1676 92.625 45.3753C92.9054 45.583 93.2507 45.6869 93.6662 45.6869C94.1958 45.6869 94.6295 45.5129 94.9722 45.165L95.5772 45.8583C95.3617 46.1179 95.0864 46.3126 94.7567 46.4451C94.4269 46.5775 94.053 46.6424 93.6402 46.6424C93.1105 46.6424 92.6458 46.5359 92.2433 46.3282C91.8409 46.1179 91.5293 45.8245 91.3112 45.4506C91.0905 45.0741 90.9814 44.6509 90.9814 44.1758C90.9814 43.7084 91.0879 43.2852 91.3008 42.9087C91.5137 42.5322 91.8097 42.2414 92.1888 42.0311C92.5679 41.8208 92.9937 41.7169 93.4688 41.7169C93.9362 41.7169 94.3568 41.8208 94.7255 42.0285C95.0942 42.2362 95.385 42.527 95.5901 42.9035C95.7979 43.28 95.9017 43.7136 95.9017 44.2069C95.9017 44.277 95.8939 44.3861 95.8835 44.5315ZM92.5523 42.9321C92.303 43.145 92.1524 43.4306 92.0979 43.7837H94.8294C94.7801 43.4358 94.6346 43.1528 94.388 42.9372C94.1413 42.7217 93.8349 42.6127 93.4688 42.6127C93.1079 42.6101 92.8016 42.7191 92.5523 42.9321Z" fill="#1C2C58"/>
<path d="M102.977 42.2414C103.343 42.5971 103.527 43.1216 103.527 43.82V46.5774H102.4V43.9628C102.4 43.5422 102.302 43.2254 102.102 43.0125C101.904 42.7996 101.621 42.6932 101.255 42.6932C100.84 42.6932 100.513 42.8178 100.274 43.067C100.032 43.3163 99.913 43.6746 99.913 44.1446V46.5774H98.7861V41.7636H99.8585V42.3868C100.045 42.1635 100.279 41.9973 100.562 41.8831C100.845 41.7688 101.162 41.7117 101.518 41.7117C102.123 41.7091 102.611 41.8883 102.977 42.2414Z" fill="#1C2C58"/>
<path d="M109.657 46.3152C109.524 46.4243 109.363 46.5048 109.174 46.5593C108.984 46.6138 108.784 46.6398 108.574 46.6398C108.044 46.6398 107.637 46.5022 107.349 46.2243C107.06 45.9491 106.915 45.5441 106.915 45.017V42.701H106.123V41.8H106.915V40.6991H108.042V41.8H109.33V42.701H108.042V44.991C108.042 45.2247 108.099 45.4039 108.213 45.5285C108.327 45.6505 108.494 45.7128 108.709 45.7128C108.961 45.7128 109.171 45.6479 109.34 45.5155L109.657 46.3152Z" fill="#1C2C58"/>
<path d="M115.173 41.7091V42.7814C115.077 42.7633 114.988 42.7555 114.91 42.7555C114.472 42.7555 114.129 42.8827 113.882 43.1398C113.636 43.3968 113.514 43.7629 113.514 44.2432V46.5774H112.387V41.7636H113.459V42.4673C113.784 41.9636 114.355 41.7091 115.173 41.7091Z" fill="#1C2C58"/>
<path d="M122.393 44.5315H118.615C118.68 44.8872 118.854 45.1676 119.135 45.3753C119.415 45.583 119.761 45.6869 120.176 45.6869C120.706 45.6869 121.139 45.5129 121.482 45.165L122.087 45.8583C121.871 46.1179 121.596 46.3126 121.266 46.4451C120.937 46.5775 120.563 46.6424 120.15 46.6424C119.62 46.6424 119.156 46.5359 118.753 46.3282C118.351 46.1179 118.039 45.8245 117.821 45.4506C117.603 45.0767 117.491 44.6509 117.491 44.1758C117.491 43.7084 117.598 43.2852 117.811 42.9087C118.023 42.5322 118.319 42.2414 118.699 42.0311C119.078 41.8208 119.503 41.7169 119.979 41.7169C120.446 41.7169 120.867 41.8208 121.235 42.0285C121.604 42.2362 121.892 42.527 122.1 42.9035C122.308 43.28 122.411 43.7136 122.411 44.2069C122.411 44.277 122.404 44.3861 122.393 44.5315ZM119.062 42.9321C118.813 43.145 118.662 43.4306 118.608 43.7837H121.339C121.29 43.4358 121.144 43.1528 120.898 42.9372C120.651 42.7217 120.345 42.6127 119.979 42.6127C119.618 42.6101 119.311 42.7191 119.062 42.9321Z" fill="#1C2C58"/>
<path d="M130.009 39.8889V46.5774H128.926V45.9542C128.739 46.1827 128.511 46.3541 128.236 46.4683C127.963 46.5826 127.659 46.6397 127.329 46.6397C126.867 46.6397 126.452 46.5384 126.08 46.3333C125.712 46.1282 125.421 45.84 125.211 45.4635C125 45.087 124.896 44.656 124.896 44.1705C124.896 43.6849 125 43.2539 125.211 42.8826C125.421 42.5087 125.712 42.2205 126.08 42.018C126.449 41.8129 126.867 41.7116 127.329 41.7116C127.649 41.7116 127.94 41.7661 128.204 41.8726C128.469 41.9817 128.695 42.1426 128.879 42.3607V39.8915H130.009V39.8889ZM128.199 45.4921C128.415 45.37 128.586 45.1935 128.713 44.965C128.84 44.7365 128.903 44.4717 128.903 44.1705C128.903 43.8693 128.84 43.607 128.713 43.3785C128.586 43.1501 128.415 42.9735 128.199 42.8515C127.984 42.7294 127.74 42.6671 127.47 42.6671C127.2 42.6671 126.955 42.7294 126.74 42.8515C126.524 42.9735 126.353 43.1501 126.226 43.3785C126.099 43.607 126.036 43.8719 126.036 44.1705C126.036 44.4717 126.099 44.7365 126.226 44.965C126.353 45.1935 126.524 45.37 126.74 45.4921C126.955 45.6141 127.2 45.6764 127.47 45.6764C127.74 45.6764 127.981 45.6141 128.199 45.4921Z" fill="#1C2C58"/>
<path d="M137.338 43.6018H139.817V44.5391H137.338V43.6018Z" fill="#1C2C58"/>
</g>
<defs>
<clipPath id="clip0_699_575">
<rect width="184" height="48.0473" fill="white" transform="translate(0 0.869446)"/>
</clipPath>
</defs>
</svg>
