<svg width="128" height="57" viewBox="0 0 128 57" fill="none" xmlns="http://www.w3.org/2000/svg">
<path d="M0.546875 45.454V28.5649H4.47802C7.20229 28.5649 8.40916 29.8212 8.40916 32.4467V33.4842C8.40916 35.2486 7.83043 36.3567 6.67297 36.8154V36.8648C7.85866 37.2248 8.43739 38.4316 8.43739 40.436V43.4002C8.43739 44.3177 8.5362 44.9953 8.72676 45.454H6.02366C5.85427 44.9741 5.7837 44.2683 5.7837 43.3791V40.2878C5.7837 38.7422 5.34612 38.2128 4.11808 38.2128H3.20057V45.454H0.546875ZM3.20057 35.8062H4.16748C5.22614 35.8062 5.76252 35.298 5.76252 34.0206V32.7149C5.76252 31.5574 5.30377 30.9787 4.4145 30.9787H3.20763V35.8062H3.20057Z" fill="#414042"/>
<path d="M13.0469 45.454V28.5649H20.2881V30.9787H15.7006V35.4391H19.3424V37.8529H15.7006V43.0403H20.2881V45.454H13.0469Z" fill="#414042"/>
<path d="M24.4785 45.454V28.5649H27.1322V45.454H24.4785Z" fill="#414042"/>
<path d="M31.6914 32.5739C31.6914 29.8497 33.0677 28.3252 35.6508 28.3252C38.2339 28.3252 39.6102 29.8426 39.6102 32.5739V34.0208H37.0976V32.4046C37.0976 31.2965 36.6389 30.7389 35.7214 30.7389C34.8039 30.7389 34.3451 31.2965 34.3451 32.4046V41.6431C34.3451 42.73 34.8039 43.2805 35.7214 43.2805C36.6389 43.2805 37.0976 42.7229 37.0976 41.6431V38.3401H35.7708V35.9263H39.6102V41.4525C39.6102 44.1768 38.2339 45.7013 35.6508 45.7013C33.0677 45.7013 31.6914 44.1839 31.6914 41.4525V32.5739Z" fill="#414042"/>
<path d="M44.1191 45.454V28.5649H47.401L50.0758 38.6716V28.5649H52.4402V45.454H49.7653L46.4835 33.1242V45.454H44.1191Z" fill="#414042"/>
<path d="M10.4082 56.9859V52.0596H11.5586C12.3561 52.0596 12.709 52.4266 12.709 53.1959V53.4993C12.709 54.0146 12.5396 54.3392 12.2009 54.4733V54.4874C12.5467 54.5933 12.7161 54.9462 12.7161 55.532V56.4001C12.7161 56.6683 12.7443 56.8659 12.8008 57H12.0103C11.9609 56.8588 11.9397 56.6541 11.9397 56.393V55.4896C11.9397 55.0379 11.8127 54.8827 11.4527 54.8827H11.1846V56.9929H10.4082V56.9859ZM11.1846 54.1698H11.4669C11.7774 54.1698 11.9327 54.0216 11.9327 53.6476V53.2664C11.9327 52.9277 11.7986 52.7583 11.5374 52.7583H11.1846V54.1628V54.1698Z" fill="#414042"/>
<path d="M16.6602 56.9859V52.0596H18.7704V52.7653H17.4365V54.064H18.5022V54.7697H17.4365V56.2801H18.7704V56.9859H16.6602Z" fill="#414042"/>
<path d="M24.3043 56.9859L24.1702 56.0189H23.2739L23.1398 56.9859H22.4199L23.2245 52.0596H24.2761L25.0807 56.9859H24.3043ZM23.3727 55.3555H24.0714L23.7185 52.8712L23.3727 55.3555Z" fill="#414042"/>
<path d="M28.8633 56.9859V52.0596H29.6396V56.2801H30.91V56.9859H28.8633Z" fill="#414042"/>
<path d="M34.7726 56.9859V52.7653H33.9609V52.0596H36.3535V52.7653H35.5419V56.9859H34.7655H34.7726Z" fill="#414042"/>
<path d="M40.8762 56.9859V54.8897L39.9375 52.0596H40.7633L41.2996 53.8946L41.836 52.0596H42.5912L41.6525 54.8897V56.9859H40.8762Z" fill="#414042"/>
<path d="M52.5359 49.2363H0.548828V49.8292H52.5359V49.2363Z" fill="#C49A6C"/>
<path d="M27.3327 23.3004L26.1541 21.9453C26.0341 21.8112 25.8083 21.8112 25.6883 21.9453L24.5097 23.3004C24.4108 23.4133 24.4108 23.5897 24.5097 23.7027L25.6883 25.0295C25.7448 25.093 25.8294 25.1354 25.9141 25.1354C25.9988 25.1354 26.0835 25.1001 26.14 25.0295L27.3186 23.7027C27.4174 23.5897 27.4245 23.4133 27.3186 23.3004H27.3327ZM25.9212 24.3661L25.1519 23.498L25.9212 22.6087L26.6905 23.498L25.9212 24.3661Z" fill="#C49A6C"/>
<path d="M32.8648 25.3466L34.1705 17.1738C34.1917 17.0609 34.1423 16.9479 34.0505 16.8844C33.9588 16.8138 33.8388 16.7997 33.74 16.8491L31.3263 17.9501C31.178 18.0207 31.1075 18.1971 31.171 18.3524L32.1379 20.6038C32.0673 20.8932 31.6509 22.0295 29.6112 22.0718C29.5971 22.0718 29.5759 22.0718 29.5618 22.0718C28.1291 22.0718 27.0493 20.8861 26.3788 19.8557L28.1715 17.8372C28.2703 17.7243 28.2773 17.5478 28.1715 17.4349L26.153 15.0988C26.0965 15.0353 26.0118 15 25.92 15C25.8283 15 25.7436 15.0353 25.6871 15.0988L23.6616 17.4279C23.5628 17.5408 23.5628 17.7172 23.6616 17.8301L25.4542 19.8486C24.7908 20.872 23.7039 22.0648 22.2712 22.0648H22.2218C20.1821 22.0224 19.7657 20.8932 19.6951 20.5968L20.6621 18.3454C20.7256 18.1901 20.6621 18.0136 20.5068 17.9431L18.093 16.8421C17.9942 16.7927 17.8743 16.8068 17.7825 16.8774C17.6908 16.9479 17.6484 17.0609 17.6625 17.1667L18.9682 25.3395H0.462891V25.9536H19.3352C19.427 25.9536 19.5116 25.9112 19.5681 25.8477C19.6246 25.7771 19.6528 25.6924 19.6387 25.6007L18.3683 17.6396L19.9916 18.3806L19.1023 20.4415C19.0811 20.4909 19.0741 20.5474 19.0811 20.6038C19.0811 20.625 19.3634 22.6223 22.2218 22.6788C23.1675 22.7 24.5791 22.2906 25.9271 20.2651C26.6752 21.3943 27.8962 22.6788 29.5618 22.6788C29.583 22.6788 29.6112 22.6788 29.6324 22.6788C32.4908 22.6223 32.7731 20.625 32.7731 20.6038C32.7731 20.5474 32.7731 20.4909 32.7519 20.4415L31.8626 18.3806L33.4859 17.6396L32.2155 25.6007C32.2014 25.6924 32.2296 25.7771 32.2861 25.8477C32.3426 25.9183 32.4273 25.9536 32.519 25.9536H51.8783V25.3395H32.8789L32.8648 25.3466ZM25.8706 19.3899L24.3038 17.6255L25.92 15.7693L27.5363 17.6255L25.9694 19.3899C25.9694 19.3899 25.9059 19.3828 25.8706 19.3899Z" fill="#C49A6C"/>
<path d="M125.712 29.4053V33.9808H121.604V29.4053H119.316V40.8153H121.604V36.2469H125.712V40.8153H127.993V29.4053H125.712Z" fill="url(#paint0_linear_715_6677)"/>
<path d="M102.696 37.2682L104.085 34.2179L105.473 37.2682H102.696ZM107.092 40.8149H109.574L104.085 29.1172L98.5957 40.8149H101.071L101.797 39.2178H106.358L107.078 40.8149H107.092Z" fill="url(#paint1_linear_715_6677)"/>
<path d="M113.784 41.0521C116.237 41.0521 117.928 39.7284 117.928 37.6493C117.928 35.8867 116.741 34.9227 114.849 34.0306C113.532 33.4119 112.669 33.1817 112.669 32.4983C112.669 31.9083 113.309 31.4119 114.172 31.4119C114.813 31.4119 115.475 31.6853 115.813 32.3688L117.503 31.1817C116.985 29.8004 115.698 29.1602 114.136 29.1602C112.036 29.1602 110.367 30.4623 110.367 32.4335C110.367 34.2608 111.77 34.9587 113.057 35.599C114.259 36.1961 115.633 36.8579 115.633 37.6925C115.633 38.304 114.906 38.7428 113.827 38.7428C112.834 38.7428 112.108 38.3759 111.604 37.563L109.77 38.8507C110.532 40.268 111.913 41.045 113.784 41.045" fill="url(#paint2_linear_715_6677)"/>
<path d="M91.4177 37.2682L92.8062 34.2179L94.1947 37.2682H91.4177ZM95.8134 40.8149H98.2954L92.8134 29.1172L87.3242 40.8149H89.799L90.5256 39.2178H95.0867L95.8062 40.8149H95.8134Z" fill="url(#paint3_linear_715_6677)"/>
<path d="M80.5899 36.6567L75 29.1172V40.8149H77.2878V35.8438L80.5899 40.6279L83.8848 35.8438V40.8149H86.1798V29.1172L80.5899 36.6567Z" fill="url(#paint4_linear_715_6677)"/>
<path d="M82.8776 42.5635H75V45.103H82.8776V42.5635Z" fill="url(#paint5_linear_715_6677)"/>
<path d="M128.001 42.5635H120.123V45.103H128.001V42.5635Z" fill="url(#paint6_linear_715_6677)"/>
<path d="M84.8718 45.0812V42.5776H85.9797C86.0948 42.5776 86.2027 42.5992 86.2963 42.6496C86.397 42.6999 86.4761 42.7647 86.5481 42.8366C86.62 42.9158 86.6704 43.0021 86.7135 43.1028C86.7567 43.2035 86.7711 43.3043 86.7711 43.405C86.7711 43.5704 86.7279 43.7143 86.6488 43.851C86.5696 43.9805 86.4545 44.0812 86.3178 44.1388L86.8862 45.0812H86.3394L85.8286 44.2395H85.3466V45.0812H84.8574H84.8718ZM85.361 43.815H85.9725C86.0157 43.815 86.0589 43.8078 86.0948 43.7863C86.1308 43.7647 86.1668 43.7359 86.1955 43.6999C86.2243 43.664 86.2459 43.6208 86.2603 43.5704C86.2747 43.5201 86.2819 43.4697 86.2819 43.4122C86.2819 43.3546 86.2747 43.2971 86.2531 43.2467C86.2315 43.1963 86.2099 43.1532 86.174 43.1172C86.1452 43.0812 86.1092 43.0525 86.066 43.0309C86.0229 43.0093 85.9797 43.0021 85.9437 43.0021H85.3538V43.815H85.361Z" fill="url(#paint7_linear_715_6677)"/>
<path d="M91.2449 44.6568V45.0812H89.5039V42.5776H91.2089V43.0021H89.9859V43.6064H91.0435V44.0021H89.9859V44.6568H91.2377H91.2449Z" fill="url(#paint8_linear_715_6677)"/>
<path d="M94.6203 42.5776H95.0519L96.0016 45.0812H95.498L95.2677 44.4553H94.3901L94.1598 45.0812H93.6562L94.6131 42.5776H94.6203ZM95.1814 44.1172L94.8361 43.1316L94.4764 44.1172H95.1814Z" fill="url(#paint9_linear_715_6677)"/>
<path d="M98.5625 45.0812V42.5776H99.0517V44.6568H100.332V45.0812H98.5697H98.5625Z" fill="url(#paint10_linear_715_6677)"/>
<path d="M104.368 43.0099H103.57V45.089H103.088V43.0099H102.289V42.5854H104.375V43.0099H104.368Z" fill="url(#paint11_linear_715_6677)"/>
<path d="M108.698 44.6568V45.0812H106.957V42.5776H108.662V43.0021H107.439V43.6064H108.497V44.0021H107.439V44.6568H108.691H108.698Z" fill="url(#paint12_linear_715_6677)"/>
<path d="M111.16 43.8153C111.16 43.6642 111.189 43.5131 111.246 43.362C111.304 43.211 111.383 43.0815 111.491 42.9592C111.599 42.844 111.728 42.7433 111.88 42.6714C112.031 42.5994 112.203 42.5635 112.405 42.5635C112.635 42.5635 112.836 42.6138 113.002 42.7146C113.167 42.8153 113.297 42.9448 113.376 43.1102L113.002 43.3692C112.966 43.2973 112.93 43.2397 112.88 43.1894C112.829 43.139 112.779 43.103 112.728 43.0743C112.671 43.0455 112.621 43.0239 112.556 43.0095C112.498 42.9951 112.441 42.9879 112.383 42.9879C112.261 42.9879 112.153 43.0095 112.067 43.0599C111.973 43.1102 111.901 43.175 111.844 43.2541C111.786 43.3333 111.736 43.4196 111.707 43.5203C111.678 43.621 111.664 43.7217 111.664 43.8153C111.664 43.9232 111.678 44.0311 111.714 44.1318C111.75 44.2325 111.8 44.3261 111.865 44.4052C111.93 44.4843 112.009 44.5419 112.095 44.5922C112.189 44.6426 112.282 44.6642 112.39 44.6642C112.448 44.6642 112.505 44.6642 112.57 44.6426C112.628 44.6282 112.693 44.6066 112.743 44.5778C112.8 44.5491 112.851 44.5059 112.894 44.4627C112.944 44.4124 112.98 44.3548 113.009 44.2901L113.405 44.5203C113.362 44.6138 113.311 44.7002 113.232 44.7721C113.16 44.844 113.074 44.9016 112.98 44.9519C112.887 45.0023 112.786 45.0383 112.685 45.0671C112.585 45.0958 112.477 45.103 112.376 45.103C112.196 45.103 112.031 45.0671 111.887 44.9879C111.736 44.916 111.613 44.8153 111.505 44.693C111.398 44.5707 111.318 44.434 111.254 44.2829C111.196 44.1318 111.16 43.9735 111.16 43.8153Z" fill="url(#paint13_linear_715_6677)"/>
<path d="M118.124 42.5776V45.0812H117.642V44.0093H116.505V45.0812H116.016V42.5776H116.505V43.592H117.642V42.5776H118.124Z" fill="url(#paint14_linear_715_6677)"/>
<path d="M40.8797 4.36645L39.319 7.52103H38.551L36.9985 4.36645V8H35.7102V2.22761H37.4526L38.9391 5.39871L40.4338 2.22761H42.168V8H40.8797V4.36645ZM47.7018 8L47.165 6.75303H44.7454L44.2086 8H42.8377L45.3317 2.22761H46.5787L49.0726 8H47.7018ZM45.9593 3.94529L45.2326 5.62168H46.6777L45.9593 3.94529ZM54.4248 4.14348C54.4248 5.06838 54.0587 5.66572 53.3265 5.93548L54.7881 8H53.2026L51.9226 6.15845H51.0307V8H49.7425V2.22761H51.9308C52.8282 2.22761 53.4669 2.37901 53.8467 2.6818C54.2321 2.9846 54.4248 3.47182 54.4248 4.14348ZM51.9721 5.04361C52.4126 5.04361 52.7126 4.97204 52.8723 4.8289C53.0319 4.68576 53.1118 4.46004 53.1118 4.15174C53.1118 3.83793 53.0292 3.62322 52.864 3.50761C52.6988 3.392 52.4098 3.33419 51.9969 3.33419H51.0307V5.04361H51.9721ZM55.7425 2.22761H57.0307V4.59767L59.2109 2.22761H60.8047L58.5089 4.77935C58.7071 5.05462 59.0732 5.56937 59.6072 6.32361C60.1413 7.07234 60.5404 7.63114 60.8047 8H59.3017L57.6088 5.72077L57.0307 6.3649V8H55.7425V2.22761ZM65.7674 2.22761V3.37548H62.8936V4.56464H65.4784V5.66297H62.8936V6.86039H65.8583V8H61.6054V2.22761H65.7674ZM69.453 3.34245V8H68.1647V3.34245H66.5296V2.22761H71.0881V3.34245H69.453ZM76.1949 2.22761V3.37548H73.3211V4.56464H75.9058V5.66297H73.3211V6.86039H76.2857V8H72.0328V2.22761H76.1949ZM79.4758 2.22761C80.5053 2.22761 81.2953 2.48086 81.8458 2.98735C82.3964 3.48834 82.6716 4.18752 82.6716 5.0849C82.6716 5.98228 82.4019 6.69247 81.8624 7.21548C81.3283 7.73849 80.5108 8 79.4097 8H77.436V2.22761H79.4758ZM79.5418 6.86039C80.1309 6.86039 80.5824 6.71174 80.8962 6.41445C81.2155 6.11716 81.3751 5.68499 81.3751 5.11793C81.3751 4.55088 81.2155 4.11595 80.8962 3.81316C80.5824 3.50486 80.0979 3.35071 79.4427 3.35071H78.7243V6.86039H79.5418ZM88.4872 8H85.9602V2.22761H88.2064C88.5973 2.22761 88.9331 2.2744 89.2139 2.368C89.5002 2.46159 89.7149 2.58821 89.858 2.74787C90.1168 3.04516 90.2462 3.38099 90.2462 3.75535C90.2462 4.20679 90.1003 4.54262 89.8085 4.76284C89.7094 4.83991 89.6406 4.88946 89.602 4.91148C89.5635 4.928 89.4947 4.95828 89.3956 5.00232C89.7534 5.0794 90.037 5.2418 90.2462 5.48955C90.4609 5.73178 90.5682 6.03458 90.5682 6.39793C90.5682 6.79983 90.4306 7.15492 90.1553 7.46323C89.836 7.82108 89.28 8 88.4872 8ZM87.2485 4.56464H87.8596C88.2174 4.56464 88.4817 4.52611 88.6524 4.44903C88.8285 4.37195 88.9166 4.20679 88.9166 3.95355C88.9166 3.69479 88.8368 3.52413 88.6771 3.44154C88.5175 3.35896 88.2477 3.31767 87.8678 3.31767H87.2485V4.56464ZM87.2485 6.90993H88.1321C88.501 6.90993 88.7762 6.86589 88.9579 6.77781C89.1451 6.68421 89.2387 6.50529 89.2387 6.24103C89.2387 5.97127 89.1396 5.7951 88.9414 5.71251C88.7487 5.62443 88.4376 5.58039 88.0082 5.58039H87.2485V6.90993ZM93.9782 8H92.6899V5.72077L90.6915 2.22761H92.0871L93.334 4.37471L94.581 2.22761H95.9766L93.9782 5.72077V8Z" fill="#1C2C58"/>
<line x1="64.5" y1="18" x2="64.5" y2="56" stroke="#1C2C58"/>
<defs>
<linearGradient id="paint0_linear_715_6677" x1="123.655" y1="29.9161" x2="123.655" y2="40.2541" gradientUnits="userSpaceOnUse">
<stop stop-color="#F36F21"/>
<stop offset="1" stop-color="#CC1A20"/>
</linearGradient>
<linearGradient id="paint1_linear_715_6677" x1="104.085" y1="29.9157" x2="104.085" y2="40.2538" gradientUnits="userSpaceOnUse">
<stop stop-color="#F36F21"/>
<stop offset="1" stop-color="#CC1A20"/>
</linearGradient>
<linearGradient id="paint2_linear_715_6677" x1="113.849" y1="29.9155" x2="113.849" y2="40.2536" gradientUnits="userSpaceOnUse">
<stop stop-color="#F36F21"/>
<stop offset="1" stop-color="#CC1A20"/>
</linearGradient>
<linearGradient id="paint3_linear_715_6677" x1="92.8062" y1="29.9157" x2="92.8062" y2="40.2538" gradientUnits="userSpaceOnUse">
<stop stop-color="#F36F21"/>
<stop offset="1" stop-color="#CC1A20"/>
</linearGradient>
<linearGradient id="paint4_linear_715_6677" x1="80.5899" y1="29.9157" x2="80.5899" y2="40.2538" gradientUnits="userSpaceOnUse">
<stop stop-color="#F36F21"/>
<stop offset="1" stop-color="#CC1A20"/>
</linearGradient>
<linearGradient id="paint5_linear_715_6677" x1="78.9352" y1="29.9161" x2="78.9352" y2="40.2541" gradientUnits="userSpaceOnUse">
<stop stop-color="#F36F21"/>
<stop offset="1" stop-color="#CC1A20"/>
</linearGradient>
<linearGradient id="paint6_linear_715_6677" x1="124.058" y1="29.9161" x2="124.058" y2="40.2541" gradientUnits="userSpaceOnUse">
<stop stop-color="#F36F21"/>
<stop offset="1" stop-color="#CC1A20"/>
</linearGradient>
<linearGradient id="paint7_linear_715_6677" x1="85.8862" y1="29.9159" x2="85.8862" y2="40.2539" gradientUnits="userSpaceOnUse">
<stop stop-color="#F36F21"/>
<stop offset="1" stop-color="#CC1A20"/>
</linearGradient>
<linearGradient id="paint8_linear_715_6677" x1="90.3744" y1="29.9159" x2="90.3744" y2="40.2539" gradientUnits="userSpaceOnUse">
<stop stop-color="#F36F21"/>
<stop offset="1" stop-color="#CC1A20"/>
</linearGradient>
<linearGradient id="paint9_linear_715_6677" x1="94.8361" y1="29.9159" x2="94.8361" y2="40.2539" gradientUnits="userSpaceOnUse">
<stop stop-color="#F36F21"/>
<stop offset="1" stop-color="#CC1A20"/>
</linearGradient>
<linearGradient id="paint10_linear_715_6677" x1="99.4474" y1="29.9159" x2="99.4474" y2="40.2539" gradientUnits="userSpaceOnUse">
<stop stop-color="#F36F21"/>
<stop offset="1" stop-color="#CC1A20"/>
</linearGradient>
<linearGradient id="paint11_linear_715_6677" x1="103.325" y1="29.9165" x2="103.325" y2="40.2545" gradientUnits="userSpaceOnUse">
<stop stop-color="#F36F21"/>
<stop offset="1" stop-color="#CC1A20"/>
</linearGradient>
<linearGradient id="paint12_linear_715_6677" x1="107.828" y1="29.9159" x2="107.828" y2="40.2539" gradientUnits="userSpaceOnUse">
<stop stop-color="#F36F21"/>
<stop offset="1" stop-color="#CC1A20"/>
</linearGradient>
<linearGradient id="paint13_linear_715_6677" x1="112.282" y1="29.9161" x2="112.282" y2="40.2541" gradientUnits="userSpaceOnUse">
<stop stop-color="#F36F21"/>
<stop offset="1" stop-color="#CC1A20"/>
</linearGradient>
<linearGradient id="paint14_linear_715_6677" x1="117.066" y1="29.9159" x2="117.066" y2="40.2539" gradientUnits="userSpaceOnUse">
<stop stop-color="#F36F21"/>
<stop offset="1" stop-color="#CC1A20"/>
</linearGradient>
</defs>
</svg>
