<svg width="129" height="57" viewBox="0 0 129 57" fill="none" xmlns="http://www.w3.org/2000/svg">
<path d="M0.805664 45.5642V28.7993H4.77938C7.53857 28.7993 8.75309 30.0416 8.75309 32.6538V33.6871C8.75309 35.4403 8.16351 36.5316 6.99616 36.996V37.0424C8.1871 37.4024 8.77667 38.5982 8.77667 40.5835V43.5324C8.77667 44.438 8.871 45.1114 9.07145 45.5642H6.33584C6.17076 45.0882 6.08822 44.3916 6.08822 43.5092V40.4442C6.08822 38.9117 5.65194 38.3892 4.40205 38.3892H3.47053V45.5758H0.805664V45.5642ZM3.49411 35.9859H4.4728C5.54582 35.9859 6.08822 35.4867 6.08822 34.2096V32.9209C6.08822 31.7715 5.62836 31.191 4.72042 31.191H3.5059V35.9859H3.49411Z" fill="#1C2C58"/>
<path d="M13.4463 45.5642V28.7993H20.7688V31.191H16.1347V35.626H19.8137V38.0177H16.1347V43.1725H20.7688V45.5642H13.4463Z" fill="#1C2C58"/>
<path d="M25.001 45.5642V28.7993H27.6894V45.5642H25.001Z" fill="#1C2C58"/>
<path d="M32.2998 32.7696C32.2998 30.0645 33.6912 28.5552 36.2971 28.5552C38.903 28.5552 40.2944 30.0645 40.2944 32.7696V34.2093H37.7592V32.6071C37.7592 31.5041 37.2994 30.9585 36.3678 30.9585C35.4363 30.9585 34.9765 31.5041 34.9765 32.6071V41.779C34.9765 42.8587 35.4363 43.4044 36.3678 43.4044C37.2994 43.4044 37.7592 42.8587 37.7592 41.779V38.4934H36.415V36.1017H40.2944V41.5816C40.2944 44.2868 38.903 45.7961 36.2971 45.7961C33.6912 45.7961 32.2998 44.2868 32.2998 41.5816V32.7696Z" fill="#1C2C58"/>
<path d="M44.8584 45.5642V28.7993H48.1718L50.8838 38.8304V28.7993H53.2775V45.5642H50.5654L47.2521 33.3272V45.5642H44.8584Z" fill="#1C2C58"/>
<path d="M10.7803 57.0001V52.1123H11.9359C12.7377 52.1123 13.0915 52.4722 13.0915 53.2385V53.5403C13.0915 54.0512 12.9264 54.3763 12.5844 54.504C12.9382 54.6201 13.1033 54.9684 13.1033 55.5489V56.408C13.1033 56.675 13.1268 56.8724 13.1858 57.0001H12.384C12.3368 56.8608 12.3132 56.6634 12.3132 56.3964V55.5024C12.3132 55.0496 12.1835 54.8987 11.818 54.8987H11.5468V56.9885H10.7686L10.7803 57.0001ZM11.5586 54.2021H11.8416C12.1599 54.2021 12.3132 54.0512 12.3132 53.6797V53.3081C12.3132 52.9714 12.1835 52.8089 11.9123 52.8089H11.5586V54.2021Z" fill="#1C2C58"/>
<path d="M17.1006 57.0001V52.1123H19.2348V52.8089H17.8788V54.0976H18.9518V54.7942H17.8788V56.2919H19.2348V56.9885H17.1006V57.0001Z" fill="#1C2C58"/>
<path d="M24.8242 57.0001L24.6945 56.0481H23.7866L23.6569 57.0001H22.9258L23.7394 52.1123H24.8006L25.6142 57.0001H24.836H24.8242ZM23.8809 55.3747H24.5884L24.2346 52.9134L23.8809 55.3747Z" fill="#1C2C58"/>
<path d="M29.4346 57.0001V52.1123H30.2129V56.3035H31.4981V57.0001H29.4229H29.4346Z" fill="#1C2C58"/>
<path d="M35.4015 57.0001V52.8089H34.5879V52.1123H37.0051V52.8089H36.1915V57.0001H35.4133H35.4015Z" fill="#1C2C58"/>
<path d="M41.58 57.0001V54.9219L40.6367 52.1123H41.4739L42.0163 53.9351L42.5587 52.1123H43.3252L42.3819 54.9219V57.0001H41.6036H41.58Z" fill="#1C2C58"/>
<path d="M53.3719 49.314H0.805664V49.9061H53.3719V49.314Z" fill="#1C2C58"/>
<path d="M27.8901 23.5636L26.6992 22.2169C26.5813 22.0892 26.3455 22.0892 26.2276 22.2169L25.0366 23.5636C24.9305 23.6797 24.9305 23.8539 25.0366 23.97L26.2276 25.2935C26.2865 25.3632 26.3691 25.398 26.4634 25.398C26.5577 25.398 26.6403 25.3632 26.6992 25.2935L27.8901 23.97C27.9963 23.8539 27.9963 23.6797 27.8901 23.5636ZM26.4634 24.6202L25.6852 23.761L26.4634 22.8786L27.2416 23.761L26.4634 24.6202Z" fill="#1C2C58"/>
<path d="M33.4792 25.595L34.7999 17.4796C34.8235 17.3635 34.7763 17.259 34.682 17.1893C34.5876 17.1197 34.4697 17.108 34.3636 17.1545L31.9228 18.2458C31.7695 18.3155 31.6987 18.4896 31.7695 18.6406L32.7482 20.8697C32.6774 21.1599 32.2529 22.2861 30.1894 22.3209C30.1776 22.3209 30.1541 22.3209 30.1423 22.3209C28.6919 22.3209 27.5953 21.1367 26.9232 20.115L28.7391 18.1181C28.8452 18.002 28.8452 17.8279 28.7391 17.7118L26.6992 15.4014C26.6402 15.3317 26.5577 15.2969 26.4633 15.2969C26.369 15.2969 26.2865 15.3317 26.2275 15.4014L24.1876 17.7118C24.0815 17.8279 24.0815 18.002 24.1876 18.1181L26.0035 20.115C25.3314 21.1367 24.2348 22.3209 22.7844 22.3209H22.7373C20.6738 22.2745 20.2493 21.1599 20.1785 20.8697L21.1572 18.6406C21.228 18.4896 21.1572 18.3155 21.0039 18.2458L18.5631 17.1545C18.457 17.108 18.3391 17.1197 18.2447 17.1893C18.1504 17.259 18.1032 17.3635 18.1268 17.4796L19.4474 25.595H0.722656V26.1987H19.8012C19.8955 26.1987 19.9781 26.1639 20.037 26.0942C20.096 26.0245 20.1196 25.9317 20.1078 25.8504L18.8225 17.944L20.4615 18.6754L19.5654 20.7188C19.5654 20.7188 19.53 20.8233 19.5418 20.8813C19.5418 20.9045 19.8248 22.8782 22.7137 22.9363C23.6688 22.9595 25.0955 22.5531 26.4633 20.5446C27.218 21.6592 28.4561 22.9363 30.1305 22.9363C30.1541 22.9363 30.1776 22.9363 30.2012 22.9363C33.0901 22.8782 33.3731 20.8929 33.3731 20.8813C33.3731 20.8233 33.3731 20.7768 33.3495 20.7188L32.4534 18.6754L34.0924 17.944L32.8071 25.8504C32.7953 25.9433 32.8071 26.0245 32.8779 26.0942C32.9368 26.1639 33.0194 26.1987 33.1137 26.1987H52.6875V25.595H33.4792ZM26.4044 19.6855L24.8243 17.9324L26.4516 16.0864L28.0788 17.9324L26.4987 19.6855C26.4987 19.6855 26.428 19.6855 26.4044 19.6855Z" fill="#1C2C58"/>
<path d="M125.723 29.502V33.9956H121.607V29.502H119.312V40.7314H121.607V36.2378H125.723V40.7314H128.019V29.502H125.723Z" fill="#1C2C58"/>
<path d="M102.652 37.2396L104.052 34.2347L105.443 37.2396H102.662H102.652ZM107.058 40.7316H109.549L104.052 29.2173L98.5459 40.7316H101.028L101.756 39.1602H106.33L107.058 40.7316Z" fill="#1C2C58"/>
<path d="M113.777 40.9617C116.232 40.9617 117.93 39.6568 117.93 37.6075C117.93 35.8799 116.736 34.9242 114.841 34.0421C113.525 33.4356 112.657 33.2058 112.657 32.535C112.657 31.9561 113.301 31.469 114.16 31.469C114.804 31.469 115.466 31.7447 115.802 32.4064L117.492 31.2393C116.978 29.8793 115.69 29.2544 114.113 29.2544C112.004 29.2544 110.333 30.5317 110.333 32.4799C110.333 34.2718 111.742 34.9702 113.03 35.5951C114.234 36.1832 115.606 36.8356 115.606 37.6535C115.606 38.2508 114.878 38.6827 113.796 38.6827C112.806 38.6827 112.069 38.3243 111.565 37.5248L109.727 38.793C110.492 40.1806 111.873 40.9525 113.749 40.9525" fill="#1C2C58"/>
<path d="M91.3506 37.2396L92.7506 34.2347L94.1412 37.2396H91.36H91.3506ZM95.7558 40.7316H98.2477L92.7506 29.2173L87.2441 40.7316H89.7267L90.4547 39.1602H95.0278L95.7558 40.7316Z" fill="#1C2C58"/>
<path d="M80.4963 36.6423L74.8965 29.2173V40.7316H77.1924V35.8428L80.4963 40.5478L83.8001 35.8428V40.7316H86.096V29.2173L80.4963 36.6423Z" fill="#1C2C58"/>
<path d="M82.7922 42.4507H74.8965V44.9502H82.7922V42.4507Z" fill="#1C2C58"/>
<path d="M128.02 42.4507H120.124V44.9502H128.02V42.4507Z" fill="#1C2C58"/>
<path d="M84.7896 44.9315V42.4688H85.9002C86.0122 42.4688 86.1242 42.4963 86.2176 42.5423C86.3109 42.5882 86.4042 42.6525 86.4695 42.7261C86.5442 42.7996 86.6002 42.8915 86.6375 42.9925C86.6749 43.0936 86.6935 43.1855 86.6935 43.2866C86.6935 43.4428 86.6562 43.5899 86.5722 43.7185C86.4882 43.8472 86.3762 43.9482 86.2455 44.0034L86.8149 44.9315H86.2642L85.7509 44.1045H85.2656V44.9315H84.7803H84.7896ZM85.2749 43.6817H85.8909C85.8909 43.6817 85.9749 43.6726 86.0122 43.6542C86.0496 43.6358 86.0869 43.6082 86.1149 43.5715C86.1429 43.5347 86.1616 43.498 86.1802 43.4428C86.1989 43.3969 86.2082 43.3417 86.2082 43.2866C86.2082 43.2315 86.1989 43.1763 86.1802 43.1304C86.1616 43.0844 86.1336 43.0385 86.1056 43.0017C86.0776 42.965 86.0402 42.9374 85.9936 42.919C85.9562 42.9007 85.9096 42.8915 85.8722 42.8915H85.2843V43.6909L85.2749 43.6817Z" fill="#1C2C58"/>
<path d="M91.173 44.5088V44.9315H89.4277V42.4688H91.1357V42.8915H89.9131V43.4888H90.9677V43.8747H89.9131V44.518H91.173V44.5088Z" fill="#1C2C58"/>
<path d="M94.5614 42.4688H94.9908L95.9427 44.9315H95.4387L95.2054 44.3158H94.3281L94.0948 44.9315H93.5908L94.5521 42.4688H94.5614ZM95.1214 43.985L94.7761 43.0201L94.4121 43.985H95.1214Z" fill="#1C2C58"/>
<path d="M98.5191 44.9315V42.4688H99.0044V44.518H100.283V44.9407H98.5098L98.5191 44.9315Z" fill="#1C2C58"/>
<path d="M104.333 42.8817H103.53V44.9309H103.045V42.8817H102.242V42.459H104.333V42.8817Z" fill="#1C2C58"/>
<path d="M108.673 44.5088V44.9315H106.928V42.4688H108.636V42.8915H107.413V43.4888H108.468V43.8747H107.413V44.518H108.673V44.5088Z" fill="#1C2C58"/>
<path d="M111.137 43.6815C111.137 43.5345 111.165 43.3782 111.221 43.2312C111.277 43.0842 111.361 42.9555 111.463 42.8361C111.566 42.7166 111.697 42.6247 111.855 42.5512C112.005 42.4777 112.182 42.4409 112.378 42.4409C112.611 42.4409 112.807 42.4869 112.975 42.5879C113.143 42.689 113.274 42.8177 113.349 42.9739L112.975 43.2312C112.938 43.1577 112.901 43.1026 112.854 43.0566C112.807 43.0107 112.761 42.9739 112.705 42.9463C112.649 42.9188 112.593 42.9004 112.537 42.882C112.481 42.8728 112.415 42.8636 112.359 42.8636C112.238 42.8636 112.126 42.8912 112.042 42.9371C111.949 42.9831 111.874 43.0474 111.818 43.1301C111.762 43.2036 111.715 43.2955 111.678 43.3966C111.65 43.4977 111.631 43.5896 111.631 43.6907C111.631 43.8009 111.65 43.902 111.687 44.0031C111.725 44.1042 111.771 44.1961 111.837 44.2696C111.902 44.3431 111.977 44.4074 112.07 44.4534C112.163 44.4993 112.257 44.5269 112.369 44.5269C112.425 44.5269 112.481 44.5269 112.546 44.5085C112.611 44.4902 112.667 44.4718 112.723 44.4442C112.779 44.4166 112.826 44.3799 112.873 44.3247C112.919 44.2788 112.957 44.2237 112.985 44.1501L113.386 44.3799C113.349 44.4718 113.293 44.5545 113.218 44.628C113.143 44.7015 113.059 44.7566 112.966 44.8026C112.873 44.8485 112.77 44.8853 112.667 44.9129C112.565 44.9404 112.462 44.9496 112.359 44.9496C112.182 44.9496 112.014 44.9129 111.865 44.8393C111.715 44.7658 111.585 44.6647 111.482 44.5453C111.379 44.4258 111.295 44.288 111.23 44.141C111.174 43.9939 111.137 43.8377 111.137 43.6815Z" fill="#1C2C58"/>
<path d="M118.118 42.4688V44.9315H117.633V43.8747H116.494V44.9315H116.009V42.4688H116.494V43.4612H117.633V42.4688H118.118Z" fill="#1C2C58"/>
<path d="M40.8797 4.36645L39.319 7.52103H38.551L36.9985 4.36645V8H35.7102V2.22761H37.4526L38.9391 5.39871L40.4338 2.22761H42.168V8H40.8797V4.36645ZM47.7018 8L47.165 6.75303H44.7454L44.2086 8H42.8377L45.3317 2.22761H46.5787L49.0726 8H47.7018ZM45.9593 3.94529L45.2326 5.62168H46.6777L45.9593 3.94529ZM54.4248 4.14348C54.4248 5.06838 54.0587 5.66572 53.3265 5.93548L54.7881 8H53.2026L51.9226 6.15845H51.0307V8H49.7425V2.22761H51.9308C52.8282 2.22761 53.4669 2.37901 53.8467 2.6818C54.2321 2.9846 54.4248 3.47182 54.4248 4.14348ZM51.9721 5.04361C52.4126 5.04361 52.7126 4.97204 52.8723 4.8289C53.0319 4.68576 53.1118 4.46004 53.1118 4.15174C53.1118 3.83793 53.0292 3.62322 52.864 3.50761C52.6988 3.392 52.4098 3.33419 51.9969 3.33419H51.0307V5.04361H51.9721ZM55.7425 2.22761H57.0307V4.59767L59.2109 2.22761H60.8047L58.5089 4.77935C58.7071 5.05462 59.0732 5.56937 59.6072 6.32361C60.1413 7.07234 60.5404 7.63114 60.8047 8H59.3017L57.6088 5.72077L57.0307 6.3649V8H55.7425V2.22761ZM65.7674 2.22761V3.37548H62.8936V4.56464H65.4784V5.66297H62.8936V6.86039H65.8583V8H61.6054V2.22761H65.7674ZM69.453 3.34245V8H68.1647V3.34245H66.5296V2.22761H71.0881V3.34245H69.453ZM76.1949 2.22761V3.37548H73.3211V4.56464H75.9058V5.66297H73.3211V6.86039H76.2857V8H72.0328V2.22761H76.1949ZM79.4758 2.22761C80.5053 2.22761 81.2953 2.48086 81.8458 2.98735C82.3964 3.48834 82.6716 4.18752 82.6716 5.0849C82.6716 5.98228 82.4019 6.69247 81.8624 7.21548C81.3283 7.73849 80.5108 8 79.4097 8H77.436V2.22761H79.4758ZM79.5418 6.86039C80.1309 6.86039 80.5824 6.71174 80.8962 6.41445C81.2155 6.11716 81.3751 5.68499 81.3751 5.11793C81.3751 4.55088 81.2155 4.11595 80.8962 3.81316C80.5824 3.50486 80.0979 3.35071 79.4427 3.35071H78.7243V6.86039H79.5418ZM88.4872 8H85.9602V2.22761H88.2064C88.5973 2.22761 88.9331 2.2744 89.2139 2.368C89.5002 2.46159 89.7149 2.58821 89.858 2.74787C90.1168 3.04516 90.2462 3.38099 90.2462 3.75535C90.2462 4.20679 90.1003 4.54262 89.8085 4.76284C89.7094 4.83991 89.6406 4.88946 89.602 4.91148C89.5635 4.928 89.4947 4.95828 89.3956 5.00232C89.7534 5.0794 90.037 5.2418 90.2462 5.48955C90.4609 5.73178 90.5682 6.03458 90.5682 6.39793C90.5682 6.79983 90.4306 7.15492 90.1553 7.46323C89.836 7.82108 89.28 8 88.4872 8ZM87.2485 4.56464H87.8596C88.2174 4.56464 88.4817 4.52611 88.6524 4.44903C88.8285 4.37195 88.9166 4.20679 88.9166 3.95355C88.9166 3.69479 88.8368 3.52413 88.6771 3.44154C88.5175 3.35896 88.2477 3.31767 87.8678 3.31767H87.2485V4.56464ZM87.2485 6.90993H88.1321C88.501 6.90993 88.7762 6.86589 88.9579 6.77781C89.1451 6.68421 89.2387 6.50529 89.2387 6.24103C89.2387 5.97127 89.1396 5.7951 88.9414 5.71251C88.7487 5.62443 88.4376 5.58039 88.0082 5.58039H87.2485V6.90993ZM93.9782 8H92.6899V5.72077L90.6915 2.22761H92.0871L93.334 4.37471L94.581 2.22761H95.9766L93.9782 5.72077V8Z" fill="#1C2C58"/>
<line x1="64.5" y1="18" x2="64.5" y2="56" stroke="#1C2C58"/>
</svg>
