<svg width="43" height="43" viewBox="0 0 43 43" fill="none" xmlns="http://www.w3.org/2000/svg">
<path d="M37.9952 4.61186C31.8461 -1.53729 21.8659 -1.53729 15.7172 4.61186C10.0722 10.2568 9.568 19.1281 14.3059 25.277L1.60457 36.8701C0.294579 37.9782 0.294579 39.9949 1.50402 41.2043C2.71345 42.4138 4.73016 42.4138 5.8383 41.1038L17.3302 28.4024C23.4793 33.1403 32.3504 32.6363 37.9953 26.9912C44.1445 20.7407 44.1445 10.7608 37.9953 4.61233L37.9952 4.61186ZM35.0722 23.9666C30.5361 28.5026 23.2779 28.5026 18.7419 23.9666C14.2058 19.4305 14.2058 12.1723 18.7419 7.63621C23.2779 3.10014 30.5361 3.10014 35.0722 7.63621C39.5078 12.0718 39.5078 19.4305 35.0722 23.9666Z" fill="#D9D9D9"/>
<path d="M31.7453 13.6846H21.9671C20.7577 13.6846 19.8499 14.5917 19.8499 15.8019C19.8499 17.0113 20.7569 17.9191 21.9671 17.9191H31.7453C32.9547 17.9191 33.8626 17.012 33.8626 15.8019C33.8626 14.5917 32.9548 13.6846 31.7453 13.6846Z" fill="#D9D9D9"/>
</svg>
