<svg width="42" height="43" viewBox="0 0 42 43" fill="none" xmlns="http://www.w3.org/2000/svg">
<path d="M37.3866 4.61186C31.2375 -1.53729 21.2573 -1.53729 15.1086 4.61186C9.46361 10.2568 8.9594 19.1281 13.6973 25.277L0.995963 36.8701C-0.314727 37.9789 -0.314728 39.9948 0.895411 41.2043C2.10486 42.4138 4.12156 42.4138 5.2297 41.1038L16.7216 28.4024C22.8707 33.1403 31.7418 32.6363 37.3867 26.9912C43.5359 20.7407 43.5359 10.7608 37.3867 4.61233L37.3866 4.61186ZM34.4629 23.9666C29.9268 28.5026 22.6686 28.5026 18.1325 23.9666C13.5965 19.4305 13.5965 12.1723 18.1325 7.63621C22.6686 3.10013 29.9268 3.10013 34.4629 7.63621C38.8985 12.0718 38.8985 19.4305 34.4629 23.9666Z" fill="#D9D9D9"/>
<path d="M31.1366 13.6842H28.314V10.8616C28.314 9.65219 27.4069 8.8457 26.1967 8.8457C25.0878 8.8457 24.0794 9.75279 24.0794 10.8616V13.6842H21.3575C20.1481 13.6842 19.2402 14.5913 19.2402 15.8015C19.2402 17.0109 20.1473 17.9188 21.3575 17.9188H24.0794V20.7413C24.0794 21.8502 25.0878 22.8586 26.2972 22.8586C27.4061 22.8586 28.3131 21.8503 28.3131 20.7413V17.9188H31.1357C32.3451 17.9188 33.2529 16.9104 33.2529 15.8015C33.2537 14.5913 32.3467 13.6842 31.1366 13.6842Z" fill="#D9D9D9"/>
</svg>
