<svg width="52" height="53" viewBox="0 0 52 53" fill="none" xmlns="http://www.w3.org/2000/svg">
<rect width="52" height="52.1" fill="black" fill-opacity="0.5"/>
<path d="M42.3861 9.61186C36.2369 3.46271 26.2568 3.46271 20.108 9.61186C14.4631 15.2568 13.9589 24.1281 18.6968 30.277L5.99544 41.8701C4.68545 42.9782 4.68545 44.9949 5.89488 46.2043C7.10432 47.4138 9.12103 47.4138 10.2292 46.1038L21.721 33.4024C27.8702 38.1403 36.7413 37.6363 42.3862 31.9912C48.5353 25.7407 48.5353 15.7608 42.3862 9.61233L42.3861 9.61186ZM39.4631 28.9666C34.927 33.5026 27.6688 33.5026 23.1327 28.9666C18.5967 24.4305 18.5967 17.1723 23.1327 12.6362C27.6688 8.10014 34.927 8.10014 39.4631 12.6362C43.8987 17.0718 43.8987 24.4305 39.4631 28.9666Z" fill="white"/>
<path d="M36.1362 18.6843H26.358C25.1486 18.6843 24.2407 19.5914 24.2407 20.8016C24.2407 22.0111 25.1478 22.9189 26.358 22.9189H36.1362C37.3456 22.9189 38.2534 22.0118 38.2534 20.8016C38.2534 19.5915 37.3457 18.6843 36.1362 18.6843Z" fill="white"/>
</svg>
