<svg width="52" height="53" viewBox="0 0 52 53" fill="none" xmlns="http://www.w3.org/2000/svg">
<rect width="52" height="52.1" transform="translate(0 0.000244141)" fill="black" fill-opacity="0.5"/>
<path d="M42.3866 9.61186C36.2375 3.46271 26.2573 3.46271 20.1086 9.61186C14.4636 15.2568 13.9594 24.1281 18.6973 30.277L5.99596 41.8701C4.68527 42.9789 4.68527 44.9948 5.89541 46.2043C7.10486 47.4138 9.12156 47.4138 10.2297 46.1038L21.7216 33.4024C27.8707 38.1403 36.7418 37.6363 42.3867 31.9912C48.5359 25.7407 48.5359 15.7608 42.3867 9.61233L42.3866 9.61186ZM39.4629 28.9666C34.9268 33.5026 27.6686 33.5026 23.1325 28.9666C18.5965 24.4305 18.5965 17.1723 23.1325 12.6362C27.6686 8.10013 34.9268 8.10013 39.4629 12.6362C43.8985 17.0718 43.8985 24.4305 39.4629 28.9666Z" fill="white"/>
<path d="M36.1366 18.6842H33.314V15.8616C33.314 14.6522 32.4069 13.8457 31.1967 13.8457C30.0878 13.8457 29.0794 14.7528 29.0794 15.8616V18.6842H26.3575C25.1481 18.6842 24.2402 19.5913 24.2402 20.8015C24.2402 22.0109 25.1473 22.9188 26.3575 22.9188H29.0794V25.7413C29.0794 26.8502 30.0878 27.8586 31.2972 27.8586C32.4061 27.8586 33.3131 26.8503 33.3131 25.7413V22.9188H36.1357C37.3451 22.9188 38.2529 21.9104 38.2529 20.8015C38.2537 19.5913 37.3466 18.6842 36.1364 18.6842H36.1366Z" fill="white"/>
</svg>
